<?xml version="1.0" standalone="no"?>
<!DOCTYPE svg PUBLIC "-//W3C//DTD SVG 1.1//EN" "http://www.w3.org/Graphics/SVG/1.1/DTD/svg11.dtd" >
<svg xmlns="http://www.w3.org/2000/svg" xmlns:xlink="http://www.w3.org/1999/xlink" version="1.1">
<metadata>
Created by FontForge 20170731 at Wed Sep 13 14:19:42 2017
 By Aleksey,,,
Copyright (c) 2017 by Colophon Foundry. All rights reserved.
</metadata>
<defs>
<font id="ApercuPro-Regular" horiz-adv-x="620" >
  <font-face 
    font-family="Apercu Pro"
    font-weight="400"
    font-stretch="normal"
    units-per-em="1000"
    panose-1="2 11 5 3 5 6 1 4 1 3"
    ascent="788"
    descent="-212"
    x-height="504"
    cap-height="700"
    bbox="-640 -262 1193 1119"
    underline-thickness="62"
    underline-position="-222"
    unicode-range="U+000D-FB02"
  />
<missing-glyph horiz-adv-x="607" 
d="M87 700h434v-700h-434v700zM439 74v552h-270v-552h270z" />
    <glyph glyph-name="fi" unicode="fi" horiz-adv-x="510" 
d="M86 430h-75v74h75v13q0 91 58.5 141t149.5 50q36 0 68.5 -7.5t55.5 -21.5l-21 -72q-48 27 -104 27q-57 0 -91 -30t-34 -81v-19h286v-504h-82v430h-204v-430h-82v430z" />
    <glyph glyph-name="fl" unicode="fl" horiz-adv-x="529" 
d="M86 430h-75v74h75v30q0 88 42.5 131t119.5 43h206v-708h-82v634h-125q-38 0 -58.5 -22.5t-20.5 -67.5v-40h117v-74h-117v-430h-82v430z" />
    <glyph glyph-name="f_f" unicode="ff" horiz-adv-x="609" 
d="M474.5 611.5q-20.5 -22.5 -20.5 -67.5v-40h117v-74h-117v-430h-82v430h-204v-430h-82v430h-75v74h75v30q0 88 42.5 131t119.5 43q41 0 71 -15l-18 -71q-26 12 -54 12q-38 0 -58.5 -22.5t-20.5 -67.5v-40h204v30q0 88 42.5 131t119.5 43q41 0 71 -15l-18 -71
q-27 12 -55 12q-37 0 -57.5 -22.5z" />
    <glyph glyph-name="f_f_i" unicode="ffi" horiz-adv-x="796" 
d="M86 430h-75v74h75v30q0 88 42.5 131t119.5 43q41 0 71 -15l-18 -71q-26 12 -54 12q-38 0 -58.5 -22.5t-20.5 -67.5v-40h204v13q0 91 58.5 141t149.5 50q36 0 68.5 -7.5t55.5 -21.5l-21 -72q-48 27 -104 27q-57 0 -91 -30t-34 -81v-19h286v-504h-82v430h-204v-430h-82v430
h-204v-430h-82v430z" />
    <glyph glyph-name="f_f_l" unicode="ffl" horiz-adv-x="815" 
d="M86 430h-75v74h75v30q0 88 42.5 131t119.5 43q41 0 71 -15l-18 -71q-26 12 -54 12q-38 0 -58.5 -22.5t-20.5 -67.5v-40h204v30q0 88 42.5 131t119.5 43h206v-708h-82v634h-126q-37 0 -57.5 -22.5t-20.5 -67.5v-40h117v-74h-117v-430h-82v430h-204v-430h-82v430z" />
    <glyph glyph-name=".notdef" horiz-adv-x="607" 
d="M87 700h434v-700h-434v700zM439 74v552h-270v-552h270z" />
    <glyph glyph-name=".null" horiz-adv-x="0" 
 />
    <glyph glyph-name="nonmarkingreturn" unicode="&#xd;" horiz-adv-x="251" 
 />
    <glyph glyph-name="space" unicode=" " horiz-adv-x="251" 
 />
    <glyph glyph-name="exclam" unicode="!" horiz-adv-x="301" 
d="M96 700h110l-24 -497h-62zM105 15q-18 18 -18 45q0 28 18 46.5t46 18.5q27 0 45.5 -18.5t18.5 -46.5q0 -27 -18.5 -45t-45.5 -18q-28 0 -46 18z" />
    <glyph glyph-name="quotedbl" unicode="&#x22;" horiz-adv-x="363" 
d="M48 708h106l-24 -235h-58zM209 708h106l-24 -235h-58z" />
    <glyph glyph-name="numbersign" unicode="#" horiz-adv-x="652" 
d="M154 207h-116v68h130l30 150h-120v68h135l42 207h70l-42 -207h145l42 207h70l-42 -207h117v-68h-131l-30 -150h121v-68h-136l-42 -207h-70l42 207h-144l-43 -207h-70zM384 275l30 150h-145l-30 -150h145z" />
    <glyph glyph-name="dollar" unicode="$" horiz-adv-x="514" 
d="M422.5 59.5q-46.5 -54.5 -122.5 -65.5v-84h-80v86q-71 14 -120 65.5t-61 121.5l72 45q37 -155 155 -155q51 0 83 30.5t32 88.5q0 38 -20 65t-50 45t-85 44q-68 33 -107.5 77.5t-39.5 113.5q0 65 39 111t102 57v85h80v-86q93 -16 134 -110l-71 -45q-32 78 -108 78
q-41 0 -66 -25t-25 -60t19 -60t47.5 -42t77.5 -39q77 -35 119 -81.5t42 -123.5q0 -82 -46.5 -136.5z" />
    <glyph glyph-name="percent" unicode="%" horiz-adv-x="844" 
d="M126 13l541 716l52 -41l-541 -717zM137.5 409.5q-36.5 21.5 -57 58t-20.5 80.5t20.5 80.5t57 58t81.5 21.5t81.5 -21.5t57 -58t20.5 -80.5t-20.5 -80.5t-57 -58t-81.5 -21.5t-81.5 21.5zM284.5 481q24.5 26 24.5 67t-24.5 67t-65.5 26t-65.5 -26t-24.5 -67t24.5 -67
t65.5 -26t65.5 26zM543.5 13.5q-36.5 21.5 -57 58t-20.5 80.5t20.5 80.5t57 58t81.5 21.5t81.5 -21.5t57 -58t20.5 -80.5t-20.5 -80.5t-57 -58t-81.5 -21.5t-81.5 21.5zM690.5 85q24.5 26 24.5 67t-24.5 67t-65.5 26t-65.5 -26t-24.5 -67t24.5 -67t65.5 -26t65.5 26z" />
    <glyph glyph-name="ampersand" unicode="&#x26;" horiz-adv-x="604" 
d="M98 47q-58 55 -58 151q0 77 40 131.5t97 84.5q-26 36 -43 72t-17 73q0 67 44.5 108t110.5 41q71 0 113.5 -40t42.5 -100q0 -59 -39 -103t-98 -75l147 -190q28 51 53 127l52 -61q-23 -75 -55 -130l106 -136h-97l-57 73q-74 -81 -190 -81q-94 0 -152 55zM323.5 499.5
q26.5 25.5 26.5 60.5q0 34 -20.5 55.5t-57.5 21.5q-35 0 -56 -21t-21 -57q0 -48 49 -111q53 26 79.5 51.5zM329 85q34 16 63 50l-170 220q-101 -55 -101 -158q0 -57 36 -92.5t93 -35.5q45 0 79 16z" />
    <glyph glyph-name="quotesingle" unicode="'" horiz-adv-x="202" 
d="M48 708h106l-24 -235h-58z" />
    <glyph glyph-name="parenleft" unicode="(" horiz-adv-x="258" 
d="M79 129q-29 95 -29 221t29 221t79 179h79q-50 -83 -75.5 -180.5t-25.5 -219.5q0 -124 25.5 -220t75.5 -180h-79q-50 84 -79 179z" />
    <glyph glyph-name="parenright" unicode=")" horiz-adv-x="258" 
d="M96.5 130q25.5 96 25.5 220q0 122 -25.5 219.5t-75.5 180.5h79q50 -84 79 -179t29 -221t-29 -221t-79 -179h-79q50 84 75.5 180z" />
    <glyph glyph-name="asterisk" unicode="*" horiz-adv-x="485" 
d="M104 395l80 108l-129 44l23 68l129 -42v135h71v-135l129 42l23 -68l-129 -44l80 -108l-59 -43l-80 109l-79 -109z" />
    <glyph glyph-name="plus" unicode="+" horiz-adv-x="568" 
d="M248 280h-180v73h180v178h73v-178h179v-73h-179v-179h-73v179z" />
    <glyph glyph-name="comma" unicode="," horiz-adv-x="240" 
d="M83 104h117l-111 -200h-61z" />
    <glyph glyph-name="hyphen" unicode="-" horiz-adv-x="480" 
d="M68 353h344v-72h-344v72z" />
    <glyph glyph-name="period" unicode="." horiz-adv-x="243" 
d="M77.5 14.5q-17.5 17.5 -17.5 43.5q0 27 17.5 44.5t43.5 17.5q27 0 44.5 -17.5t17.5 -44.5q0 -26 -17.5 -43.5t-44.5 -17.5q-26 0 -43.5 17.5z" />
    <glyph glyph-name="slash" unicode="/" horiz-adv-x="531" 
d="M442 750h83l-436 -800h-83z" />
    <glyph glyph-name="zero" unicode="0" horiz-adv-x="601" 
d="M117.5 88q-63.5 96 -63.5 262t63.5 262t183.5 96t183 -95.5t63 -262.5t-63 -262.5t-183 -95.5t-183.5 96zM421.5 144q42.5 76 42.5 206t-42.5 206.5t-120.5 76.5q-79 0 -121 -76.5t-42 -206.5t42 -206t121 -76q78 0 120.5 76z" />
    <glyph glyph-name="one" unicode="1" horiz-adv-x="341" 
d="M172 576l-122 -75v90l176 109h29v-700h-83v576z" />
    <glyph glyph-name="two" unicode="2" horiz-adv-x="499" 
d="M30 32l253 328q42 53 56.5 84.5t14.5 71.5q0 54 -30 85.5t-82 31.5q-49 0 -81 -34.5t-40 -91.5l-77 15q4 54 30.5 96t70.5 66t98 24q88 0 141.5 -51.5t53.5 -140.5q0 -46 -19.5 -89.5t-57.5 -91.5l-200 -259h293v-76h-424v32z" />
    <glyph glyph-name="three" unicode="3" horiz-adv-x="539" 
d="M116.5 46q-60.5 54 -70.5 147l81 11q9 -63 45 -99.5t95 -36.5q68 0 105 40t37 110q0 73 -37.5 112.5t-103.5 39.5q-34 0 -62 -17l-37 49l165 223h-254v75h378v-26l-181 -242q10 3 26 3q52 0 95.5 -26t69 -75.5t25.5 -115.5q0 -67 -28 -118t-79 -79.5t-119 -28.5
q-90 0 -150.5 54z" />
    <glyph glyph-name="four" unicode="4" horiz-adv-x="550" 
d="M349 151h-306v32l295 517h94v-474h88v-75h-88v-151h-83v151zM349 226v354l-197 -354h197z" />
    <glyph glyph-name="five" unicode="5" horiz-adv-x="512" 
d="M113 42q-58 50 -69 142l80 14q21 -130 135 -130q65 0 99 42.5t34 118.5q0 79 -35 120t-97 41q-47 0 -83 -23t-61 -61l-55 12l37 382h337v-75h-266l-21 -204q48 43 124 43q95 0 149.5 -63.5t54.5 -171.5q0 -69 -26.5 -123t-76 -84t-114.5 -30q-88 0 -146 50z" />
    <glyph glyph-name="six" unicode="6" horiz-adv-x="538" 
d="M154 22q-51 30 -79.5 82t-28.5 116q0 69 41 141l201 347h89l-154 -271q8 5 22.5 8t26.5 3q64 0 114 -29.5t78 -81.5t28 -117q0 -64 -28.5 -116t-79 -82t-115.5 -30q-64 0 -115 30zM369 110.5q39 42.5 39 109.5q0 70 -38.5 111.5t-100.5 41.5q-61 0 -100 -41.5t-39 -111.5
q0 -67 39.5 -109.5t99.5 -42.5q61 0 100 42.5z" />
    <glyph glyph-name="seven" unicode="7" horiz-adv-x="464" 
d="M334 625h-301v75h400v-30l-273 -670h-84z" />
    <glyph glyph-name="eight" unicode="8" horiz-adv-x="528" 
d="M156 16.5q-49 24.5 -78.5 71.5t-29.5 112q0 62 29.5 109.5t76.5 67.5q-37 22 -59 59.5t-22 86.5q0 53 24 95t67.5 66t99.5 24t99.5 -24t67.5 -66t24 -95q0 -48 -22.5 -85.5t-58.5 -60.5q47 -20 76.5 -67.5t29.5 -109.5q0 -65 -29.5 -112t-78.5 -71.5t-108 -24.5
t-108 24.5zM344.5 439q30.5 31 30.5 83t-30.5 83t-80.5 31t-80.5 -31t-30.5 -83t30.5 -83t80.5 -31t80.5 31zM360 103q36 35 36 97t-36.5 97.5t-95.5 35.5t-95.5 -35.5t-36.5 -97.5t36.5 -97t95.5 -35q60 0 96 35z" />
    <glyph glyph-name="nine" unicode="9" horiz-adv-x="538" 
d="M316 263q-8 -5 -22.5 -8t-26.5 -3q-64 0 -114.5 29.5t-78.5 81.5t-28 117q0 64 28.5 116t79.5 82t115 30t115 -30t79.5 -82t28.5 -116q0 -31 -9.5 -64t-26.5 -63l-206 -361h-89zM369.5 369q38.5 41 38.5 111q0 67 -39.5 110t-99.5 43t-99.5 -43t-39.5 -110q0 -70 39 -111
t100 -41q62 0 100.5 41z" />
    <glyph glyph-name="colon" unicode=":" horiz-adv-x="244" 
d="M77.5 375q-17.5 17 -17.5 44q0 26 17.5 44t44.5 18q26 0 44 -18t18 -44q0 -27 -17.5 -44t-44.5 -17t-44.5 17zM77.5 14.5q-17.5 17.5 -17.5 43.5q0 27 17.5 44.5t44.5 17.5q26 0 44 -17.5t18 -44.5q0 -26 -18 -43.5t-44 -17.5q-27 0 -44.5 17.5z" />
    <glyph glyph-name="semicolon" unicode=";" horiz-adv-x="241" 
d="M95.5 375.5q-17.5 17.5 -17.5 43.5q0 27 17.5 44.5t43.5 17.5q27 0 44.5 -17.5t17.5 -44.5q0 -26 -17.5 -43.5t-44.5 -17.5q-26 0 -43.5 17.5zM83 104h117l-111 -200h-61z" />
    <glyph glyph-name="less" unicode="&#x3c;" horiz-adv-x="467" 
d="M54 268v84l353 188v-85l-273 -145l273 -145v-85z" />
    <glyph glyph-name="equal" unicode="=" horiz-adv-x="540" 
d="M68 436h404v-73h-404v73zM68 265h404v-73h-404v73z" />
    <glyph glyph-name="greater" unicode="&#x3e;" horiz-adv-x="466" 
d="M60 165l273 145l-273 145v85l352 -188v-84l-352 -188v85z" />
    <glyph glyph-name="question" unicode="?" horiz-adv-x="445" 
d="M136 234.5q-37 32.5 -37 90.5q0 48 27.5 79.5t84.5 59.5q46 22 67.5 36t30 27.5t8.5 33.5q0 36 -23.5 55t-64.5 19q-80 0 -104 -91l-78 14q12 68 60 109t126 41q74 0 119.5 -40.5t45.5 -105.5q0 -49 -28.5 -79.5t-99.5 -64.5q-58 -29 -77 -48t-19 -47q0 -24 14.5 -38
t37.5 -14q27 0 44.5 14t27.5 45l62 -23q-15 -52 -48.5 -78.5t-83.5 -26.5q-55 0 -92 32.5zM183 15q-18 18 -18 45q0 28 18 46.5t46 18.5t46 -18.5t18 -46.5q0 -27 -18 -45t-46 -18t-46 18z" />
    <glyph glyph-name="at" unicode="@" horiz-adv-x="891" 
d="M252.5 -45.5q-90.5 48.5 -141.5 138t-51 208.5q0 131 54.5 225t146.5 143t201 49q112 0 195 -43.5t128.5 -126t45.5 -196.5q0 -79 -23.5 -134t-63.5 -82.5t-90 -27.5q-41 0 -69.5 22t-38.5 53q-54 -75 -135 -75t-126.5 51.5t-45.5 135.5q0 61 26.5 111.5t74.5 80
t109 29.5q36 0 64 -14.5t45 -40.5l13 48h64l-23 -250l-2 -25q0 -55 50 -55q44 0 66 47.5t22 127.5q0 141 -77 217t-214 76q-81 0 -153 -40.5t-116.5 -119t-44.5 -186.5q0 -102 42.5 -175t114 -111t156.5 -38q62 0 118 13.5t125 50.5l28 -65q-75 -39 -134.5 -54.5
t-136.5 -15.5q-113 0 -203.5 48.5zM507.5 223.5q33.5 44.5 33.5 107.5q0 53 -25.5 83.5t-73.5 30.5q-54 0 -87.5 -43t-33.5 -110q0 -55 25.5 -84t71.5 -29q56 0 89.5 44.5z" />
    <glyph glyph-name="A" unicode="A" horiz-adv-x="600" 
d="M259 700h82l247 -700h-91l-64 188h-266l-64 -188h-92zM407 269l-107 314l-107 -314h214z" />
    <glyph glyph-name="B" unicode="B" horiz-adv-x="609" 
d="M87 700h235q92 0 144 -47.5t52 -134.5q0 -50 -22.5 -84t-58.5 -51q54 -21 85.5 -65t31.5 -113q0 -95 -59 -150t-161 -55h-247v700zM320 412q112 0 112 103q0 104 -113 104h-145v-207h146zM322 81q72 0 108 30t36 95t-36 95t-108 30h-148v-250h148z" />
    <glyph glyph-name="C" unicode="C" horiz-adv-x="686" 
d="M210 32.5q-72 40.5 -116 121.5t-44 196t44 196t116 121.5t156 40.5q104 0 175 -54t98 -150l-82 -22q-21 69 -68.5 107t-122.5 38q-65 0 -116.5 -32t-80.5 -94t-29 -151t29 -151t80.5 -94t116.5 -32q75 0 122.5 38t68.5 107l82 -22q-27 -96 -98 -150t-175 -54
q-84 0 -156 40.5z" />
    <glyph glyph-name="D" unicode="D" horiz-adv-x="653" 
d="M87 700h195q89 0 162 -41t116 -120t43 -189t-43 -189t-116 -120t-162 -41h-195v700zM269 81q66 0 121 27.5t89 88t34 153.5t-34 153.5t-89 88t-121 27.5h-95v-538h95z" />
    <glyph glyph-name="E" unicode="E" horiz-adv-x="558" 
d="M87 700h407v-81h-320v-206h260v-80h-260v-252h330v-81h-417v700z" />
    <glyph glyph-name="F" unicode="F" horiz-adv-x="536" 
d="M87 700h415v-81h-328v-215h268v-81h-268v-323h-87v700z" />
    <glyph glyph-name="G" unicode="G" horiz-adv-x="706" 
d="M207.5 33q-71.5 41 -114.5 121.5t-43 195.5t44 195.5t116 121.5t156 41q106 0 178 -56.5t98 -153.5l-82 -22q-25 72 -74 111.5t-120 39.5q-66 0 -117 -31.5t-80 -94t-29 -151.5q0 -90 29 -152t79.5 -93.5t116.5 -31.5q91 0 139.5 53.5t51.5 149.5h-152v77h237v-353h-74
l-9 97q-26 -47 -77.5 -76t-118.5 -29q-83 0 -154.5 41z" />
    <glyph glyph-name="H" unicode="H" horiz-adv-x="678" 
d="M87 700h87v-286h331v286h87v-700h-87v333h-331v-333h-87v700z" />
    <glyph glyph-name="I" unicode="I" horiz-adv-x="260" 
d="M87 700h87v-700h-87v700z" />
    <glyph glyph-name="J" unicode="J" horiz-adv-x="513" 
d="M90.5 42.5q-52.5 50.5 -62.5 129.5l88 19q8 -57 37 -87.5t79 -30.5q54 0 86.5 33t32.5 103v491h86v-482q0 -112 -57 -169t-148 -57q-89 0 -141.5 50.5z" />
    <glyph glyph-name="K" unicode="K" horiz-adv-x="582" 
d="M87 700h87v-286l262 286h108l-286 -314l310 -386h-109l-285 359v-359h-87v700z" />
    <glyph glyph-name="L" unicode="L" horiz-adv-x="530" 
d="M87 700h87v-619h317v-81h-404v700z" />
    <glyph glyph-name="M" unicode="M" horiz-adv-x="766" 
d="M87 700h103l194 -498l194 498h102v-700h-86v527l-181 -463h-59l-180 463v-527h-87v700z" />
    <glyph glyph-name="N" unicode="N" horiz-adv-x="674" 
d="M87 700h97l318 -552v552h86v-700h-97l-317 550v-550h-87v700z" />
    <glyph glyph-name="O" unicode="O" horiz-adv-x="729" 
d="M207 34.5q-72 42.5 -114.5 123.5t-42.5 192t42.5 192t114.5 123.5t158 42.5q85 0 157 -42.5t114.5 -123.5t42.5 -192t-42.5 -192t-114.5 -123.5t-157 -42.5q-86 0 -158 42.5zM479 104q51 31 81 93.5t30 152.5t-30 152.5t-81 93.5t-114 31t-114 -31t-81 -93.5t-30 -152.5
t30 -152.5t81 -93.5t114 -31t114 31z" />
    <glyph glyph-name="P" unicode="P" horiz-adv-x="581" 
d="M87 700h246q99 0 153.5 -53.5t54.5 -145.5q0 -93 -54.5 -146.5t-153.5 -53.5h-159v-301h-87v700zM332 382q61 0 90 31.5t29 87.5q0 55 -29 86.5t-90 31.5h-158v-237h158z" />
    <glyph glyph-name="Q" unicode="Q" horiz-adv-x="729" 
d="M207 34.5q-72 42.5 -114.5 123.5t-42.5 192t42.5 192t114.5 123.5t158 42.5q85 0 157 -42.5t114.5 -123.5t42.5 -192q0 -70 -18 -128.5t-51 -103.5l67 -66l-60 -60l-64 64q-39 -31 -88 -47.5t-100 -16.5q-86 0 -158 42.5zM494 114l-80 81l60 59l74 -74q42 69 42 170
q0 90 -30 152.5t-81 93.5t-114 31t-114 -31t-81 -93.5t-30 -152.5t30 -152.5t81 -93.5t114 -31q73 0 129 41z" />
    <glyph glyph-name="R" unicode="R" 
d="M87 700h235q97 0 150.5 -48t53.5 -136q0 -74 -38 -119.5t-108 -59.5l210 -337h-97l-209 332h-110v-332h-87v700zM319 413q59 0 89 25t30 78q0 103 -119 103h-145v-206h145z" />
    <glyph glyph-name="S" unicode="S" horiz-adv-x="514" 
d="M158.5 17.5q-48.5 25.5 -79.5 69.5t-40 96l72 45q37 -155 155 -155q51 0 83 30.5t32 88.5q0 38 -20 65t-50 45t-85 44q-68 33 -107.5 77.5t-39.5 113.5q0 49 23 88t63 61t90 22q69 0 112 -29.5t67 -84.5l-71 -45q-32 78 -108 78q-41 0 -66 -25t-25 -60t19 -60t47.5 -42
t77.5 -39q77 -35 119 -81.5t42 -123.5q0 -61 -26.5 -107t-73 -71.5t-104.5 -25.5t-106.5 25.5z" />
    <glyph glyph-name="T" unicode="T" horiz-adv-x="552" 
d="M233 619h-205v81h496v-81h-205v-619h-86v619z" />
    <glyph glyph-name="U" unicode="U" horiz-adv-x="646" 
d="M197 19.5q-56 27.5 -88.5 83t-32.5 135.5v462h87v-467q0 -72 41 -116t119 -44t119 44t41 116v467h87v-462q0 -80 -33 -135.5t-89 -83t-125 -27.5q-70 0 -126 27.5z" />
    <glyph glyph-name="V" unicode="V" horiz-adv-x="597" 
d="M11 700h93l194 -577l194 577h93l-242 -700h-90z" />
    <glyph glyph-name="W" unicode="W" horiz-adv-x="874" 
d="M11 700h92l144 -570l152 496h76l151 -496l145 570h91l-189 -700h-88l-149 488l-147 -488h-89z" />
    <glyph glyph-name="X" unicode="X" horiz-adv-x="572" 
d="M238 383l-183 317h95l136 -236l135 236h96l-184 -317l224 -383h-96l-175 300l-175 -300h-96z" />
    <glyph glyph-name="Y" unicode="Y" horiz-adv-x="525" 
d="M219 302l-208 398h98l154 -312l154 312h97l-208 -398v-302h-87v302z" />
    <glyph glyph-name="Z" unicode="Z" horiz-adv-x="544" 
d="M41 41l336 578h-323v81h440v-41l-332 -578h341v-81h-462v41z" />
    <glyph glyph-name="bracketleft" unicode="[" horiz-adv-x="307" 
d="M87 750h195v-73h-116v-654h116v-73h-195v800z" />
    <glyph glyph-name="backslash" unicode="\" horiz-adv-x="531" 
d="M6 750h83l436 -800h-83z" />
    <glyph glyph-name="bracketright" unicode="]" horiz-adv-x="307" 
d="M25 23h116v654h-116v73h196v-800h-196v73z" />
    <glyph glyph-name="asciicircum" unicode="^" horiz-adv-x="504" 
d="M219 700h67l187 -279h-85l-136 205l-135 -205h-86z" />
    <glyph glyph-name="underscore" unicode="_" horiz-adv-x="485" 
d="M30 0h424v-73h-424v73z" />
    <glyph glyph-name="grave" unicode="`" horiz-adv-x="226" 
d="M18 703h118l69 -146h-63z" />
    <glyph glyph-name="a" unicode="a" horiz-adv-x="505" 
d="M92 30.5q-44 38.5 -44 114.5q0 80 59.5 122.5t163.5 42.5h88v22q0 55 -29.5 80.5t-77.5 25.5q-83 0 -110 -82l-74 17q10 63 61.5 101t122.5 38q85 0 137 -49.5t52 -139.5v-323h-65l-15 73q-52 -81 -157 -81q-68 0 -112 38.5zM285 82.5q32 16.5 53 52t21 88.5v16h-85
q-70 0 -105 -24t-35 -69q0 -38 22.5 -59t62.5 -21q34 0 66 16.5z" />
    <glyph glyph-name="b" unicode="b" horiz-adv-x="577" 
d="M217.5 13q-41.5 21 -59.5 48v-61h-83v708h83v-267q25 32 64 51.5t83 19.5q72 0 123 -33.5t77 -92.5t26 -134t-26 -134t-77 -92.5t-123 -33.5q-46 0 -87.5 21zM405.5 117.5q39.5 51.5 39.5 134.5t-39.5 134.5t-108.5 51.5q-68 0 -107.5 -51.5t-39.5 -134.5t39 -134.5
t108 -51.5t108.5 51.5z" />
    <glyph glyph-name="c" unicode="c" horiz-adv-x="528" 
d="M151 28q-52 36 -78.5 95t-26.5 129t26.5 129t78.5 95t126 36q158 0 211 -141l-74 -29q-39 96 -137 96q-71 0 -108 -52t-37 -134q0 -81 37 -133.5t108 -52.5q50 0 83 24t54 72l74 -29q-27 -70 -80.5 -105.5t-130.5 -35.5q-74 0 -126 36z" />
    <glyph glyph-name="d" unicode="d" horiz-adv-x="577" 
d="M148 25.5q-50 33.5 -76 92.5t-26 134t26 134t76 92.5t121 33.5q48 0 87 -19t64 -52v267h82v-708h-82v66q-19 -30 -61 -52t-90 -22q-71 0 -121 33.5zM388 117q39 51 39 135q0 83 -39 134.5t-108 51.5t-108.5 -51.5t-39.5 -134.5t39.5 -134.5t108.5 -51.5t108 51z" />
    <glyph glyph-name="e" unicode="e" horiz-adv-x="547" 
d="M153 27q-52 35 -79.5 94.5t-27.5 130.5t27.5 130.5t79.5 94.5t123 35q69 0 120 -32t78 -86t27 -120v-35h-369q1 -76 39.5 -124.5t106.5 -48.5q52 0 85 23t59 75l70 -30q-36 -74 -87.5 -108t-128.5 -34q-71 0 -123 35zM417 310q-9 59 -45 93.5t-96 34.5q-55 0 -92 -36
t-48 -92h281z" />
    <glyph glyph-name="f" unicode="f" horiz-adv-x="323" 
d="M86 430h-75v74h75v30q0 88 42.5 131t119.5 43q41 0 71 -15l-18 -71q-26 12 -54 12q-38 0 -58.5 -22.5t-20.5 -67.5v-40h117v-74h-117v-430h-82v430z" />
    <glyph glyph-name="g" unicode="g" horiz-adv-x="490" 
d="M95.5 -168q-58.5 44 -58.5 122q0 33 13.5 60t35.5 44q-36 31 -36 81q0 32 17 56.5t45 38.5q-37 45 -37 109q0 50 23.5 88.5t63.5 59.5t89 21q47 0 90 -23l90 51l36 -62l-71 -38q30 -43 30 -97q0 -51 -23 -89.5t-63 -59t-89 -20.5q-48 0 -88 20q-35 -17 -35 -50
q0 -23 16 -34t41 -11h121q73 0 116.5 -34.5t43.5 -102.5q0 -88 -60 -131t-154 -43q-98 0 -156.5 44zM319 270.5q27 26.5 27 72.5t-27 72.5t-68 26.5t-68.5 -26.5t-27.5 -72.5t27.5 -72.5t68.5 -26.5t68 26.5zM349.5 -114.5q34.5 25.5 34.5 68.5q0 40 -23.5 57.5t-68.5 17.5
h-91q-28 0 -52 3q-32 -29 -32 -76q0 -46 34.5 -71t100.5 -25q63 0 97.5 25.5z" />
    <glyph glyph-name="h" unicode="h" horiz-adv-x="563" 
d="M75 708h83v-305q25 52 72 80.5t101 28.5q74 0 115.5 -41.5t41.5 -119.5v-351h-82v331q0 52 -24 79.5t-71 27.5q-41 0 -76 -26.5t-56 -77.5t-21 -120v-214h-83v708z" />
    <glyph glyph-name="i" unicode="i" horiz-adv-x="233" 
d="M73.5 606.5q-17.5 17.5 -17.5 42.5q0 26 17.5 43t42.5 17q26 0 43.5 -17t17.5 -43t-17.5 -43t-43.5 -17q-25 0 -42.5 17.5zM75 504h83v-504h-83v504z" />
    <glyph glyph-name="j" unicode="j" horiz-adv-x="233" 
d="M73.5 606.5q-17.5 17.5 -17.5 42.5q0 26 17.5 43t42.5 17q26 0 43.5 -17t17.5 -43t-17.5 -43t-43.5 -17q-25 0 -42.5 17.5zM-15 -137q47 13 68.5 37.5t21.5 76.5v527h83v-528q0 -83 -38.5 -128t-114.5 -60z" />
    <glyph glyph-name="k" unicode="k" horiz-adv-x="482" 
d="M75 708h83v-419l195 215h103l-213 -231l229 -273h-103l-211 256v-256h-83v708z" />
    <glyph glyph-name="l" unicode="l" horiz-adv-x="233" 
d="M75 708h83v-708h-83v708z" />
    <glyph glyph-name="m" unicode="m" horiz-adv-x="832" 
d="M75 504h83v-97q26 49 65 77t90 28q54 0 89.5 -27.5t48.5 -81.5q26 49 69 79t92 30q145 0 145 -162v-350h-82v337q0 52 -19 76.5t-62 24.5q-38 0 -69 -27t-49.5 -78t-18.5 -120v-213h-82v337q0 52 -18.5 76.5t-62.5 24.5q-38 0 -69 -27t-49 -79t-18 -123v-209h-83v504z
" />
    <glyph glyph-name="n" unicode="n" horiz-adv-x="555" 
d="M75 504h83v-97q27 48 71.5 76.5t95.5 28.5q71 0 113 -42t42 -119v-351h-82v333q0 52 -23.5 78.5t-69.5 26.5q-41 0 -74.5 -27t-53 -77.5t-19.5 -118.5v-215h-83v504z" />
    <glyph glyph-name="o" unicode="o" horiz-adv-x="577" 
d="M160.5 27.5q-55.5 35.5 -85 95.5t-29.5 129t29.5 129t85 95.5t128.5 35.5t128 -35.5t84.5 -95.5t29.5 -129t-29.5 -129t-84.5 -95.5t-128 -35.5t-128.5 35.5zM373.5 92q35.5 26 53.5 68.5t18 91.5t-18 91.5t-53.5 68.5t-84.5 26t-84.5 -26t-54 -68.5t-18.5 -91.5
t18.5 -91.5t54 -68.5t84.5 -26t84.5 26z" />
    <glyph glyph-name="p" unicode="p" horiz-adv-x="577" 
d="M75 504h83v-65q18 29 58.5 51t88.5 22q72 0 123 -33.5t77 -92.5t26 -134t-26 -134t-77 -92.5t-123 -33.5q-43 0 -84 19.5t-63 51.5v-267h-83v708zM405.5 117.5q39.5 51.5 39.5 134.5t-39.5 134.5t-108.5 51.5t-108 -51.5t-39 -134.5t39.5 -134.5t107.5 -51.5
q69 0 108.5 51.5z" />
    <glyph glyph-name="q" unicode="q" horiz-adv-x="577" 
d="M420 63q-24 -33 -63 -52t-84 -19q-72 0 -123.5 33.5t-77.5 92.5t-26 134t26 134t77.5 92.5t123.5 33.5q46 0 87.5 -21t59.5 -48v61h82v-708h-82v267zM388 117.5q39 51.5 39 134.5q0 84 -39 135t-108 51t-108.5 -51.5t-39.5 -134.5t39.5 -134.5t108.5 -51.5t108 51.5z" />
    <glyph glyph-name="r" unicode="r" horiz-adv-x="392" 
d="M75 504h83v-87q24 46 62 70.5t86 24.5q33 0 71 -15l-17 -77q-31 17 -65 17q-60 0 -98.5 -63t-38.5 -184v-190h-83v504z" />
    <glyph glyph-name="s" unicode="s" horiz-adv-x="435" 
d="M105 32q-48 40 -63 97l69 37q15 -48 43.5 -74t75.5 -26q37 0 59.5 19.5t22.5 56.5q0 33 -27 52t-84 40q-60 22 -92.5 55t-32.5 88q0 60 41.5 97.5t105.5 37.5q97 0 146 -79l-54 -48q-34 53 -93 53q-28 0 -47 -16.5t-19 -44.5t24.5 -46.5t87.5 -41.5q123 -45 123 -144
q0 -71 -44 -112t-117 -41q-77 0 -125 40z" />
    <glyph glyph-name="t" unicode="t" horiz-adv-x="352" 
d="M135 32.5q-39 40.5 -39 121.5v276h-85v74h85v151l83 53v-204h135v-74h-135v-282q0 -82 70 -82q34 0 58 14l21 -70q-36 -18 -86 -18q-68 0 -107 40.5z" />
    <glyph glyph-name="u" unicode="u" horiz-adv-x="555" 
d="M117 34q-42 42 -42 119v351h83v-333q0 -52 23.5 -78.5t68.5 -26.5q41 0 75 27t53.5 78t19.5 119v214h82v-504h-82v97q-27 -48 -71.5 -76.5t-96.5 -28.5q-71 0 -113 42z" />
    <glyph glyph-name="v" unicode="v" horiz-adv-x="453" 
d="M15 504h85l127 -398l126 398h85l-170 -504h-83z" />
    <glyph glyph-name="w" unicode="w" horiz-adv-x="691" 
d="M13 504h85l108 -393l100 393h79l99 -393l109 393h85l-155 -504h-78l-100 384l-99 -384h-79z" />
    <glyph glyph-name="x" unicode="x" horiz-adv-x="445" 
d="M178 273l-143 231h89l98 -160l99 160h89l-143 -231l169 -273h-86l-128 202l-127 -202h-86z" />
    <glyph glyph-name="y" unicode="y" horiz-adv-x="458" 
d="M192 12l-182 492h85l139 -378l130 378h84l-253 -708h-81z" />
    <glyph glyph-name="z" unicode="z" horiz-adv-x="436" 
d="M34 36l244 394h-231v74h337v-39l-242 -391h254v-74h-362v36z" />
    <glyph glyph-name="braceleft" unicode="{" horiz-adv-x="291" 
d="M136.5 -22q-26.5 28 -26.5 75v177q0 46 -18 65t-61 19v72q43 0 61 19t18 65v177q0 47 26.5 75t69.5 28h60v-73h-29q-25 0 -36 -11t-11 -37v-182q0 -46 -17 -67t-50 -30q33 -9 50 -30t17 -67v-182q0 -26 11 -37t36 -11h29v-73h-60q-43 0 -69.5 28z" />
    <glyph glyph-name="bar" unicode="|" horiz-adv-x="253" 
d="M87 750h80v-800h-80v800z" />
    <glyph glyph-name="braceright" unicode="}" horiz-adv-x="291" 
d="M25 23h29q25 0 36 11t11 37v182q0 46 17 67t50 30q-33 9 -50 30t-17 67v182q0 26 -11 37t-36 11h-29v73h60q43 0 69.5 -28t26.5 -75v-177q0 -46 18 -65t61 -19v-72q-43 0 -61 -19t-18 -65v-177q0 -47 -26.5 -75t-69.5 -28h-60v73z" />
    <glyph glyph-name="asciitilde" unicode="~" horiz-adv-x="552" 
d="M324 269q-21 7 -50 22q-25 13 -44.5 20t-43.5 7q-26 0 -49.5 -12.5t-40.5 -34.5l-48 48q23 38 58 63.5t73 25.5q27 0 48 -7t50 -22q26 -14 45.5 -20.5t43.5 -6.5q51 0 90 47l48 -48q-23 -38 -58 -63.5t-74 -25.5q-27 0 -48 7z" />
    <glyph glyph-name="uni00A0" unicode="&#xa0;" horiz-adv-x="251" 
 />
    <glyph glyph-name="exclamdown" unicode="&#xa1;" horiz-adv-x="301" 
d="M105 389.5q-18 18.5 -18 46.5q0 27 18 45t46 18q27 0 45.5 -18t18.5 -45q0 -28 -18.5 -46.5t-45.5 -18.5q-28 0 -46 18.5zM120 293h62l24 -497h-110z" />
    <glyph glyph-name="cent" unicode="&#xa2;" horiz-adv-x="528" 
d="M238 93q-62 9 -105 46t-65 92t-22 119q0 63 22 118.5t65 92.5t105 46v143h80v-143q61 -8 104 -43t66 -95l-74 -29q-21 48 -54 72t-83 24q-71 0 -108 -52t-37 -134q0 -81 37 -133.5t108 -52.5q50 0 83 24t54 72l74 -29q-23 -60 -66 -95t-104 -43v-143h-80v143z" />
    <glyph glyph-name="sterling" unicode="&#xa3;" horiz-adv-x="531" 
d="M38 54q55 52 82 99.5t27 100.5q0 34 -12 73h-83v74h59q-11 29 -17 52.5t-6 51.5q0 92 53 147.5t140 55.5q70 0 119 -37t74 -103l-71 -33q-22 49 -50.5 72.5t-71.5 23.5q-48 0 -78.5 -33.5t-30.5 -95.5q0 -27 4.5 -50t13.5 -51h167v-74h-144q8 -34 8 -66q0 -51 -23 -99.5
t-57 -78.5q21 11 44.5 18t44.5 7t37.5 -6t36.5 -17q18 -10 29.5 -14.5t24.5 -4.5q30 0 48.5 15.5t43.5 59.5l60 -36q-33 -61 -68 -87t-85 -26q-26 0 -44 6t-41 17q-20 10 -34.5 15t-33.5 5q-32 0 -56 -10.5t-54 -32.5z" />
    <glyph glyph-name="currency" unicode="&#xa4;" horiz-adv-x="555" 
d="M27 125l87 67q-33 52 -33 115t33 115l-87 67l68 69l67 -86q51 37 116 37q64 0 115 -37l67 86l68 -69l-87 -67q34 -53 34 -115t-34 -115l87 -67l-68 -69l-67 86q-51 -37 -115 -37q-65 0 -116 37l-67 -86zM365 214q33 36 33 93t-33 93t-87 36q-55 0 -88 -35.5t-33 -93.5
t33 -93.5t88 -35.5q54 0 87 36z" />
    <glyph glyph-name="yen" unicode="&#xa5;" horiz-adv-x="512" 
d="M212 147h-155v73h155v82h-155v73h119l-165 325h98l147 -310l147 310h98l-165 -325h118v-73h-155v-82h155v-73h-155v-147h-87v147z" />
    <glyph glyph-name="brokenbar" unicode="&#xa6;" horiz-adv-x="253" 
d="M87 750h80v-349h-80v349zM87 299h80v-349h-80v349z" />
    <glyph glyph-name="section" unicode="&#xa7;" horiz-adv-x="495" 
d="M122.5 -174.5q-47.5 37.5 -65.5 110.5l74 24q29 -95 113 -95q40 0 65.5 27t25.5 78q0 30 -16 51.5t-42 38t-75 40.5q-39 19 -61 31q-52 28 -77 62.5t-25 87.5q0 82 74 132q-42 48 -42 109q0 57 24 99.5t63.5 64.5t85.5 22q74 0 121.5 -37.5t65.5 -110.5l-73 -24
q-14 45 -42.5 70t-71.5 25q-40 0 -65 -27t-25 -78q0 -30 16 -51.5t42 -38t75 -40.5q39 -19 61 -31q51 -28 76.5 -62.5t25.5 -87.5q0 -81 -74 -132q41 -49 41 -109q0 -57 -24 -99.5t-63.5 -64.5t-85.5 -22q-74 0 -121.5 37.5zM374 213q0 27 -20 48.5t-50 38.5t-87 44l-45 21
q-58 -31 -58 -82q0 -26 19.5 -47.5t48.5 -37.5t84 -43q26 -11 51 -24q57 31 57 82z" />
    <glyph glyph-name="dieresis" unicode="&#xa8;" horiz-adv-x="321" 
d="M34.5 601q-15.5 16 -15.5 40t16 40.5t40 16.5t40 -16.5t16 -40.5t-16 -40t-40 -16q-25 0 -40.5 16zM206 601q-16 16 -16 40t16 40.5t39 16.5q25 0 41 -16.5t16 -40.5t-16 -40t-41 -16q-23 0 -39 16z" />
    <glyph glyph-name="copyright" unicode="&#xa9;" horiz-adv-x="878" 
d="M245.5 11q-86.5 51 -136 140t-49.5 199t49.5 199t136 140t193.5 51t193.5 -51t136 -140t49.5 -199t-49.5 -199t-136 -140t-193.5 -51t-193.5 51zM595.5 77q68.5 41 106.5 112.5t38 160.5t-38 160.5t-106.5 112.5t-156.5 41t-156.5 -41t-106.5 -112.5t-38 -160.5
t38 -160.5t106.5 -112.5t156.5 -41t156.5 41zM345.5 157.5q-45.5 23.5 -74.5 72.5t-29 120t29 120t74.5 72.5t93.5 23.5q65 0 112 -35.5t61 -99.5l-68 -16q-14 43 -39.5 63.5t-65.5 20.5q-54 0 -87.5 -39t-33.5 -110t33.5 -110t87.5 -39q40 0 65.5 21t39.5 63l68 -16
q-14 -64 -61 -99.5t-112 -35.5q-48 0 -93.5 23.5z" />
    <glyph glyph-name="ordfeminine" unicode="&#xaa;" horiz-adv-x="436" 
d="M98 327q-35 31 -35 89q0 63 48 96.5t130 33.5h66v17q0 43 -23 62.5t-61 19.5q-33 0 -54.5 -17t-30.5 -47l-59 14q10 51 49 80t95 29q69 0 109 -35t40 -113v-256h-52l-9 59q-19 -29 -51 -46t-75 -17q-52 0 -87 31zM273 385.5q34 30.5 34 91.5v14h-64q-54 0 -81.5 -20.5
t-27.5 -54.5q0 -29 16.5 -45t45.5 -16q43 0 77 30.5z" />
    <glyph glyph-name="guillemotleft" unicode="&#xab;" horiz-adv-x="636" 
d="M48 283v55l278 202v-88l-194 -142l194 -142v-88zM301 283v55l278 202v-88l-193 -142l193 -142v-88z" />
    <glyph glyph-name="logicalnot" unicode="&#xac;" horiz-adv-x="573" 
d="M422 313h-354v76h437v-247h-83v171z" />
    <glyph glyph-name="uni00AD" unicode="&#xad;" horiz-adv-x="480" 
d="M68 353h344v-72h-344v72z" />
    <glyph glyph-name="registered" unicode="&#xae;" horiz-adv-x="878" 
d="M245.5 11q-86.5 51 -136 140t-49.5 199t49.5 199t136 140t193.5 51t193.5 -51t136 -140t49.5 -199t-49.5 -199t-136 -140t-193.5 -51t-193.5 51zM595.5 77q68.5 41 106.5 112.5t38 160.5t-38 160.5t-106.5 112.5t-156.5 41t-156.5 -41t-106.5 -112.5t-38 -160.5
t38 -160.5t106.5 -112.5t156.5 -41t156.5 41zM296 563h153q64 0 99.5 -33t35.5 -89q0 -47 -26 -78t-67 -40l122 -183h-79l-119 179h-45v-179h-74v423zM445 382q33 0 49.5 15.5t16.5 43.5t-16.5 43.5t-49.5 15.5h-75v-118h75z" />
    <glyph glyph-name="macron" unicode="&#xaf;" horiz-adv-x="276" 
d="M13 670h250v-69h-250v69z" />
    <glyph glyph-name="degree" unicode="&#xb0;" horiz-adv-x="346" 
d="M92 511q-32 32 -32 82t32 82t81 32q50 0 81.5 -32t31.5 -82t-31.5 -82t-81.5 -32q-49 0 -81 32zM212 552.5q15 15.5 15 40.5t-15 40.5t-39 15.5t-39 -15.5t-15 -40.5t15 -40.5t39 -15.5t39 15.5z" />
    <glyph glyph-name="plusminus" unicode="&#xb1;" horiz-adv-x="568" 
d="M248 362h-180v73h180v178h73v-178h179v-73h-179v-179h-73v179zM68 72h432v-73h-432v73z" />
    <glyph glyph-name="uni00B2" unicode="&#xb2;" horiz-adv-x="324" 
d="M33 324l146 181q20 24 28 43t8 40q0 26 -14 40.5t-40 14.5q-24 0 -39.5 -18t-20.5 -50l-62 17q5 49 38.5 80.5t83.5 31.5q55 0 88 -32t33 -83q0 -53 -39 -103l-102 -125h150v-61h-258v24z" />
    <glyph glyph-name="uni00B3" unicode="&#xb3;" horiz-adv-x="327" 
d="M75.5 328.5q-36.5 32.5 -40.5 87.5l62 9q5 -32 23 -51t47 -19q32 0 48 20.5t16 55.5q0 34 -16 53t-48 19q-20 0 -35 -10l-31 40l82 108h-127v59h221v-23l-97 -128l13 1q46 0 75.5 -32.5t29.5 -87.5q0 -58 -33 -96t-97 -38q-56 0 -92.5 32.5z" />
    <glyph glyph-name="acute" unicode="&#xb4;" horiz-adv-x="226" 
d="M90 703h117l-123 -146h-63z" />
    <glyph glyph-name="uni00B5" unicode="&#xb5;" horiz-adv-x="555" 
d="M75 504h83v-333q0 -52 23.5 -78.5t68.5 -26.5q41 0 75 27t53.5 78t19.5 119v214h82v-504h-82v97q-27 -48 -71.5 -76.5t-96.5 -28.5q-43 0 -72 19v-215h-83v708z" />
    <glyph glyph-name="paragraph" unicode="&#xb6;" horiz-adv-x="681" 
d="M249 319q-52 0 -95.5 25.5t-69 69t-25.5 95.5t25.5 96t69 69.5t95.5 25.5h367v-77h-59v-827h-84v827h-140v-827h-84v523z" />
    <glyph glyph-name="periodcentered" unicode="&#xb7;" horiz-adv-x="297" 
d="M104.5 306.5q-17.5 17.5 -17.5 43.5q0 27 17.5 44.5t43.5 17.5q27 0 44.5 -17.5t17.5 -44.5q0 -26 -17.5 -43.5t-44.5 -17.5q-26 0 -43.5 17.5z" />
    <glyph glyph-name="cedilla" unicode="&#xb8;" horiz-adv-x="196" 
d="M9 -189l112 129h66l-81 -171z" />
    <glyph glyph-name="uni00B9" unicode="&#xb9;" horiz-adv-x="229" 
d="M112 610l-85 -40v69l125 61h23v-400h-63v310z" />
    <glyph glyph-name="ordmasculine" unicode="&#xba;" horiz-adv-x="515" 
d="M157.5 324q-43.5 28 -67 75t-23.5 101t23.5 101t67 75t100.5 28t100.5 -28t66.5 -75t23 -101t-23 -101t-66.5 -75t-100.5 -28t-100.5 28zM346.5 397.5q31.5 42.5 31.5 102.5t-31.5 102.5t-88.5 42.5t-89 -42.5t-32 -102.5t32 -102.5t89 -42.5t88.5 42.5z" />
    <glyph glyph-name="guillemotright" unicode="&#xbb;" horiz-adv-x="636" 
d="M57 168l194 142l-194 142v88l278 -202v-55l-278 -203v88zM310 168l194 142l-194 142v88l278 -202v-55l-278 -203v88z" />
    <glyph glyph-name="onequarter" unicode="&#xbc;" horiz-adv-x="734" 
d="M112 610l-85 -40v69l125 61h23v-400h-63v310zM91 13l541 716l52 -41l-541 -717zM597 77h-170v26l162 297h70v-263h49v-60h-49v-77h-62v77zM597 137v171l-90 -171h90z" />
    <glyph glyph-name="onehalf" unicode="&#xbd;" horiz-adv-x="812" 
d="M112 610l-85 -40v69l125 61h23v-400h-63v310zM91 13l541 716l52 -41l-541 -717zM521 24l146 181q20 24 28 43t8 40q0 26 -14 40.5t-40 14.5q-24 0 -39.5 -18t-20.5 -50l-62 17q5 49 38.5 80.5t83.5 31.5q55 0 88 -32t33 -83q0 -53 -39 -103l-102 -125h150v-61h-258v24z
" />
    <glyph glyph-name="threequarters" unicode="&#xbe;" horiz-adv-x="783" 
d="M75.5 328.5q-36.5 32.5 -40.5 87.5l62 9q5 -32 23 -51t47 -19q32 0 48 20.5t16 55.5q0 34 -16 53t-48 19q-20 0 -35 -10l-31 40l82 108h-127v59h221v-23l-97 -128l13 1q46 0 75.5 -32.5t29.5 -87.5q0 -58 -33 -96t-97 -38q-56 0 -92.5 32.5zM141 13l541 716l52 -41
l-541 -717zM646 77h-170v26l162 297h70v-263h49v-60h-49v-77h-62v77zM646 137v171l-90 -171h90z" />
    <glyph glyph-name="questiondown" unicode="&#xbf;" horiz-adv-x="445" 
d="M309 261.5q37 -32.5 37 -90.5q0 -48 -27.5 -79.5t-84.5 -59.5q-46 -22 -67.5 -36t-30 -27.5t-8.5 -33.5q0 -36 23.5 -55t64.5 -19q80 0 104 91l78 -14q-12 -68 -60 -109t-126 -41q-74 0 -119.5 40.5t-45.5 105.5q0 49 28.5 79.5t99.5 64.5q58 29 77 48t19 47
q0 24 -14.5 38t-37.5 14q-27 0 -44.5 -14t-27.5 -45l-62 23q15 52 48.5 78.5t83.5 26.5q55 0 92 -32.5zM262 481q18 -18 18 -45q0 -28 -18 -46.5t-46 -18.5t-46 18.5t-18 46.5q0 27 18 45t46 18t46 -18z" />
    <glyph glyph-name="Agrave" unicode="&#xc0;" horiz-adv-x="600" 
d="M259 700h82l247 -700h-91l-64 188h-266l-64 -188h-92zM407 269l-107 314l-107 -314h214zM147 899h118l69 -146h-63z" />
    <glyph glyph-name="Aacute" unicode="&#xc1;" horiz-adv-x="600" 
d="M259 700h82l247 -700h-91l-64 188h-266l-64 -188h-92zM407 269l-107 314l-107 -314h214zM336 899h117l-123 -146h-63z" />
    <glyph glyph-name="Acircumflex" unicode="&#xc2;" horiz-adv-x="600" 
d="M259 700h82l247 -700h-91l-64 188h-266l-64 -188h-92zM407 269l-107 314l-107 -314h214zM286 907h26l143 -151h-85l-71 75l-70 -75h-85z" />
    <glyph glyph-name="Atilde" unicode="&#xc3;" horiz-adv-x="600" 
d="M259 700h82l247 -700h-91l-64 188h-266l-64 -188h-92zM407 269l-107 314l-107 -314h214zM123 816q18 33 47 54t60 21q24 0 41 -6t37 -17q18 -10 29 -14t25 -4q33 0 62 41l52 -42q-18 -33 -46.5 -54t-60.5 -21q-24 0 -40 6t-37 17q-16 9 -27.5 13.5t-26.5 4.5
q-33 0 -63 -41z" />
    <glyph glyph-name="Adieresis" unicode="&#xc4;" horiz-adv-x="600" 
d="M259 700h82l247 -700h-91l-64 188h-266l-64 -188h-92zM407 269l-107 314l-107 -314h214zM172.5 797q-15.5 16 -15.5 40t16 40.5t40 16.5t40 -16.5t16 -40.5t-16 -40t-40 -16q-25 0 -40.5 16zM344 797q-16 16 -16 40t16 40.5t39 16.5q25 0 41 -16.5t16 -40.5t-16 -40
t-41 -16q-23 0 -39 16z" />
    <glyph glyph-name="Aring" unicode="&#xc5;" horiz-adv-x="600" 
d="M259 700h82l247 -700h-91l-64 188h-266l-64 -188h-92zM407 269l-107 314l-107 -314h214zM228.5 781q-28.5 28 -28.5 69q0 42 28.5 70.5t71.5 28.5t71.5 -28.5t28.5 -70.5q0 -41 -28.5 -69t-71.5 -28t-71.5 28zM332 818q13 13 13 32q0 20 -13 33.5t-32 13.5t-32 -13.5
t-13 -33.5q0 -19 12.5 -32t32.5 -13q19 0 32 13z" />
    <glyph glyph-name="AE" unicode="&#xc6;" horiz-adv-x="836" 
d="M318 700h454v-81h-321v-206h261v-80h-261v-252h331v-81h-417v188h-181l-81 -188h-92zM365 269v314h-12l-135 -314h147z" />
    <glyph glyph-name="Ccedilla" unicode="&#xc7;" horiz-adv-x="686" 
d="M210 32.5q-72 40.5 -116 121.5t-44 196t44 196t116 121.5t156 40.5q104 0 175 -54t98 -150l-82 -22q-21 69 -68.5 107t-122.5 38q-65 0 -116.5 -32t-80.5 -94t-29 -151t29 -151t80.5 -94t116.5 -32q75 0 122.5 38t68.5 107l82 -22q-27 -96 -98 -150t-175 -54
q-84 0 -156 40.5zM230 -189l112 129h66l-81 -171z" />
    <glyph glyph-name="Egrave" unicode="&#xc8;" horiz-adv-x="558" 
d="M87 700h407v-81h-320v-206h260v-80h-260v-252h330v-81h-417v700zM144 899h118l69 -146h-63z" />
    <glyph glyph-name="Eacute" unicode="&#xc9;" horiz-adv-x="558" 
d="M87 700h407v-81h-320v-206h260v-80h-260v-252h330v-81h-417v700zM333 899h117l-123 -146h-63z" />
    <glyph glyph-name="Ecircumflex" unicode="&#xca;" horiz-adv-x="558" 
d="M87 700h407v-81h-320v-206h260v-80h-260v-252h330v-81h-417v700zM283 907h26l143 -151h-85l-71 75l-70 -75h-85z" />
    <glyph glyph-name="Edieresis" unicode="&#xcb;" horiz-adv-x="558" 
d="M87 700h407v-81h-320v-206h260v-80h-260v-252h330v-81h-417v700zM169.5 797q-15.5 16 -15.5 40t16 40.5t40 16.5t40 -16.5t16 -40.5t-16 -40t-40 -16q-25 0 -40.5 16zM341 797q-16 16 -16 40t16 40.5t39 16.5q25 0 41 -16.5t16 -40.5t-16 -40t-41 -16q-23 0 -39 16z" />
    <glyph glyph-name="Igrave" unicode="&#xcc;" horiz-adv-x="260" 
d="M87 700h87v-700h-87v700zM-23 899h118l69 -146h-63z" />
    <glyph glyph-name="Iacute" unicode="&#xcd;" horiz-adv-x="260" 
d="M87 700h87v-700h-87v700zM166 899h117l-123 -146h-63z" />
    <glyph glyph-name="Icircumflex" unicode="&#xce;" horiz-adv-x="260" 
d="M87 700h87v-700h-87v700zM116 907h26l143 -151h-85l-71 75l-70 -75h-85z" />
    <glyph glyph-name="Idieresis" unicode="&#xcf;" horiz-adv-x="260" 
d="M87 700h87v-700h-87v700zM2.5 797q-15.5 16 -15.5 40t16 40.5t40 16.5t40 -16.5t16 -40.5t-16 -40t-40 -16q-25 0 -40.5 16zM174 797q-16 16 -16 40t16 40.5t39 16.5q25 0 41 -16.5t16 -40.5t-16 -40t-41 -16q-23 0 -39 16z" />
    <glyph glyph-name="Eth" unicode="&#xd0;" horiz-adv-x="653" 
d="M87 700h195q89 0 162 -41t116 -120t43 -189t-43 -189t-116 -120t-162 -41h-195v700zM269 81q66 0 121 27.5t89 88t34 153.5t-34 153.5t-89 88t-121 27.5h-95v-538h95zM16 388h261v-76h-261v76z" />
    <glyph glyph-name="Ntilde" unicode="&#xd1;" horiz-adv-x="674" 
d="M87 700h97l318 -552v552h86v-700h-97l-317 550v-550h-87v700zM161 816q18 33 47 54t60 21q24 0 41 -6t37 -17q18 -10 29 -14t25 -4q33 0 62 41l52 -42q-18 -33 -46.5 -54t-60.5 -21q-24 0 -40 6t-37 17q-16 9 -27.5 13.5t-26.5 4.5q-33 0 -63 -41z" />
    <glyph glyph-name="Ograve" unicode="&#xd2;" horiz-adv-x="729" 
d="M207 34.5q-72 42.5 -114.5 123.5t-42.5 192t42.5 192t114.5 123.5t158 42.5q85 0 157 -42.5t114.5 -123.5t42.5 -192t-42.5 -192t-114.5 -123.5t-157 -42.5q-86 0 -158 42.5zM479 104q51 31 81 93.5t30 152.5t-30 152.5t-81 93.5t-114 31t-114 -31t-81 -93.5t-30 -152.5
t30 -152.5t81 -93.5t114 -31t114 31zM212 899h118l69 -146h-63z" />
    <glyph glyph-name="Oacute" unicode="&#xd3;" horiz-adv-x="729" 
d="M207 34.5q-72 42.5 -114.5 123.5t-42.5 192t42.5 192t114.5 123.5t158 42.5q85 0 157 -42.5t114.5 -123.5t42.5 -192t-42.5 -192t-114.5 -123.5t-157 -42.5q-86 0 -158 42.5zM479 104q51 31 81 93.5t30 152.5t-30 152.5t-81 93.5t-114 31t-114 -31t-81 -93.5t-30 -152.5
t30 -152.5t81 -93.5t114 -31t114 31zM401 899h117l-123 -146h-63z" />
    <glyph glyph-name="Ocircumflex" unicode="&#xd4;" horiz-adv-x="729" 
d="M207 34.5q-72 42.5 -114.5 123.5t-42.5 192t42.5 192t114.5 123.5t158 42.5q85 0 157 -42.5t114.5 -123.5t42.5 -192t-42.5 -192t-114.5 -123.5t-157 -42.5q-86 0 -158 42.5zM479 104q51 31 81 93.5t30 152.5t-30 152.5t-81 93.5t-114 31t-114 -31t-81 -93.5t-30 -152.5
t30 -152.5t81 -93.5t114 -31t114 31zM351 907h26l143 -151h-85l-71 75l-70 -75h-85z" />
    <glyph glyph-name="Otilde" unicode="&#xd5;" horiz-adv-x="729" 
d="M207 34.5q-72 42.5 -114.5 123.5t-42.5 192t42.5 192t114.5 123.5t158 42.5q85 0 157 -42.5t114.5 -123.5t42.5 -192t-42.5 -192t-114.5 -123.5t-157 -42.5q-86 0 -158 42.5zM479 104q51 31 81 93.5t30 152.5t-30 152.5t-81 93.5t-114 31t-114 -31t-81 -93.5t-30 -152.5
t30 -152.5t81 -93.5t114 -31t114 31zM188 816q18 33 47 54t60 21q24 0 41 -6t37 -17q18 -10 29 -14t25 -4q33 0 62 41l52 -42q-18 -33 -46.5 -54t-60.5 -21q-24 0 -40 6t-37 17q-16 9 -27.5 13.5t-26.5 4.5q-33 0 -63 -41z" />
    <glyph glyph-name="Odieresis" unicode="&#xd6;" horiz-adv-x="729" 
d="M207 34.5q-72 42.5 -114.5 123.5t-42.5 192t42.5 192t114.5 123.5t158 42.5q85 0 157 -42.5t114.5 -123.5t42.5 -192t-42.5 -192t-114.5 -123.5t-157 -42.5q-86 0 -158 42.5zM479 104q51 31 81 93.5t30 152.5t-30 152.5t-81 93.5t-114 31t-114 -31t-81 -93.5t-30 -152.5
t30 -152.5t81 -93.5t114 -31t114 31zM237.5 797q-15.5 16 -15.5 40t16 40.5t40 16.5t40 -16.5t16 -40.5t-16 -40t-40 -16q-25 0 -40.5 16zM409 797q-16 16 -16 40t16 40.5t39 16.5q25 0 41 -16.5t16 -40.5t-16 -40t-41 -16q-23 0 -39 16z" />
    <glyph glyph-name="multiply" unicode="&#xd7;" horiz-adv-x="547" 
d="M67 161l155 155l-155 155l51 52l155 -156l154 155l52 -52l-155 -154l156 -155l-52 -51l-155 155l-155 -155z" />
    <glyph glyph-name="Oslash" unicode="&#xd8;" horiz-adv-x="729" 
d="M207 34.5q-72 42.5 -114.5 123.5t-42.5 192t42.5 192t114.5 123.5t158 42.5q85 0 157 -42.5t114.5 -123.5t42.5 -192t-42.5 -192t-114.5 -123.5t-157 -42.5q-86 0 -158 42.5zM479 104q51 31 81 93.5t30 152.5t-30 152.5t-81 93.5t-114 31t-114 -31t-81 -93.5t-30 -152.5
t30 -152.5t81 -93.5t114 -31t114 31zM63 20l545 704l59 -44l-545 -704z" />
    <glyph glyph-name="Ugrave" unicode="&#xd9;" horiz-adv-x="646" 
d="M197 19.5q-56 27.5 -88.5 83t-32.5 135.5v462h87v-467q0 -72 41 -116t119 -44t119 44t41 116v467h87v-462q0 -80 -33 -135.5t-89 -83t-125 -27.5q-70 0 -126 27.5zM170 899h118l69 -146h-63z" />
    <glyph glyph-name="Uacute" unicode="&#xda;" horiz-adv-x="646" 
d="M197 19.5q-56 27.5 -88.5 83t-32.5 135.5v462h87v-467q0 -72 41 -116t119 -44t119 44t41 116v467h87v-462q0 -80 -33 -135.5t-89 -83t-125 -27.5q-70 0 -126 27.5zM359 899h117l-123 -146h-63z" />
    <glyph glyph-name="Ucircumflex" unicode="&#xdb;" horiz-adv-x="646" 
d="M197 19.5q-56 27.5 -88.5 83t-32.5 135.5v462h87v-467q0 -72 41 -116t119 -44t119 44t41 116v467h87v-462q0 -80 -33 -135.5t-89 -83t-125 -27.5q-70 0 -126 27.5zM309 907h26l143 -151h-85l-71 75l-70 -75h-85z" />
    <glyph glyph-name="Udieresis" unicode="&#xdc;" horiz-adv-x="646" 
d="M197 19.5q-56 27.5 -88.5 83t-32.5 135.5v462h87v-467q0 -72 41 -116t119 -44t119 44t41 116v467h87v-462q0 -80 -33 -135.5t-89 -83t-125 -27.5q-70 0 -126 27.5zM195.5 797q-15.5 16 -15.5 40t16 40.5t40 16.5t40 -16.5t16 -40.5t-16 -40t-40 -16q-25 0 -40.5 16z
M367 797q-16 16 -16 40t16 40.5t39 16.5q25 0 41 -16.5t16 -40.5t-16 -40t-41 -16q-23 0 -39 16z" />
    <glyph glyph-name="Yacute" unicode="&#xdd;" horiz-adv-x="525" 
d="M219 302l-208 398h98l154 -312l154 312h97l-208 -398v-302h-87v302zM299 899h117l-123 -146h-63z" />
    <glyph glyph-name="Thorn" unicode="&#xde;" horiz-adv-x="581" 
d="M87 700h87v-150h159q98 0 153 -54t55 -146t-54.5 -145.5t-153.5 -53.5h-159v-151h-87v700zM332 231q61 0 90 31.5t29 87.5t-29 87.5t-90 31.5h-158v-238h158z" />
    <glyph glyph-name="germandbls" unicode="&#xdf;" horiz-adv-x="570" 
d="M227 -1v77q40 -10 69 -10q68 0 102.5 36.5t34.5 100.5q0 72 -41.5 107t-113.5 35h-33v74h32q53 0 82.5 28.5t29.5 78.5q0 51 -28.5 79.5t-75.5 28.5q-52 0 -82 -36t-30 -106v-492h-82v345h-54v74h54v73q0 105 53.5 160.5t140.5 55.5q84 0 132.5 -48.5t48.5 -124.5
q0 -55 -25 -94t-65 -50q62 -18 100.5 -63t38.5 -125q0 -98 -57.5 -154.5t-154.5 -56.5q-39 0 -76 7z" />
    <glyph glyph-name="agrave" unicode="&#xe0;" horiz-adv-x="505" 
d="M92 30.5q-44 38.5 -44 114.5q0 80 59.5 122.5t163.5 42.5h88v22q0 55 -29.5 80.5t-77.5 25.5q-83 0 -110 -82l-74 17q10 63 61.5 101t122.5 38q85 0 137 -49.5t52 -139.5v-323h-65l-15 73q-52 -81 -157 -81q-68 0 -112 38.5zM285 82.5q32 16.5 53 52t21 88.5v16h-85
q-70 0 -105 -24t-35 -69q0 -38 22.5 -59t62.5 -21q34 0 66 16.5zM99 703h118l69 -146h-63z" />
    <glyph glyph-name="aacute" unicode="&#xe1;" horiz-adv-x="505" 
d="M92 30.5q-44 38.5 -44 114.5q0 80 59.5 122.5t163.5 42.5h88v22q0 55 -29.5 80.5t-77.5 25.5q-83 0 -110 -82l-74 17q10 63 61.5 101t122.5 38q85 0 137 -49.5t52 -139.5v-323h-65l-15 73q-52 -81 -157 -81q-68 0 -112 38.5zM285 82.5q32 16.5 53 52t21 88.5v16h-85
q-70 0 -105 -24t-35 -69q0 -38 22.5 -59t62.5 -21q34 0 66 16.5zM288 703h117l-123 -146h-63z" />
    <glyph glyph-name="acircumflex" unicode="&#xe2;" horiz-adv-x="505" 
d="M92 30.5q-44 38.5 -44 114.5q0 80 59.5 122.5t163.5 42.5h88v22q0 55 -29.5 80.5t-77.5 25.5q-83 0 -110 -82l-74 17q10 63 61.5 101t122.5 38q85 0 137 -49.5t52 -139.5v-323h-65l-15 73q-52 -81 -157 -81q-68 0 -112 38.5zM285 82.5q32 16.5 53 52t21 88.5v16h-85
q-70 0 -105 -24t-35 -69q0 -38 22.5 -59t62.5 -21q34 0 66 16.5zM238 711h26l143 -151h-85l-71 75l-70 -75h-85z" />
    <glyph glyph-name="atilde" unicode="&#xe3;" horiz-adv-x="505" 
d="M92 30.5q-44 38.5 -44 114.5q0 80 59.5 122.5t163.5 42.5h88v22q0 55 -29.5 80.5t-77.5 25.5q-83 0 -110 -82l-74 17q10 63 61.5 101t122.5 38q85 0 137 -49.5t52 -139.5v-323h-65l-15 73q-52 -81 -157 -81q-68 0 -112 38.5zM285 82.5q32 16.5 53 52t21 88.5v16h-85
q-70 0 -105 -24t-35 -69q0 -38 22.5 -59t62.5 -21q34 0 66 16.5zM75 620q18 33 47 54t60 21q24 0 41 -6t37 -17q18 -10 29 -14t25 -4q33 0 62 41l52 -42q-18 -33 -46.5 -54t-60.5 -21q-24 0 -40 6t-37 17q-16 9 -27.5 13.5t-26.5 4.5q-33 0 -63 -41z" />
    <glyph glyph-name="adieresis" unicode="&#xe4;" horiz-adv-x="505" 
d="M92 30.5q-44 38.5 -44 114.5q0 80 59.5 122.5t163.5 42.5h88v22q0 55 -29.5 80.5t-77.5 25.5q-83 0 -110 -82l-74 17q10 63 61.5 101t122.5 38q85 0 137 -49.5t52 -139.5v-323h-65l-15 73q-52 -81 -157 -81q-68 0 -112 38.5zM285 82.5q32 16.5 53 52t21 88.5v16h-85
q-70 0 -105 -24t-35 -69q0 -38 22.5 -59t62.5 -21q34 0 66 16.5zM125.5 601q-15.5 16 -15.5 40t16 40.5t40 16.5t40 -16.5t16 -40.5t-16 -40t-40 -16q-25 0 -40.5 16zM297 601q-16 16 -16 40t16 40.5t39 16.5q25 0 41 -16.5t16 -40.5t-16 -40t-41 -16q-23 0 -39 16z" />
    <glyph glyph-name="aring" unicode="&#xe5;" horiz-adv-x="505" 
d="M92 30.5q-44 38.5 -44 114.5q0 80 59.5 122.5t163.5 42.5h88v22q0 55 -29.5 80.5t-77.5 25.5q-83 0 -110 -82l-74 17q10 63 61.5 101t122.5 38q85 0 137 -49.5t52 -139.5v-323h-65l-15 73q-52 -81 -157 -81q-68 0 -112 38.5zM285 82.5q32 16.5 53 52t21 88.5v16h-85
q-70 0 -105 -24t-35 -69q0 -38 22.5 -59t62.5 -21q34 0 66 16.5zM180.5 585q-28.5 28 -28.5 69q0 42 28.5 70.5t71.5 28.5t71.5 -28.5t28.5 -70.5q0 -41 -28.5 -69t-71.5 -28t-71.5 28zM284.5 622q12.5 13 12.5 32q0 20 -13 33.5t-32 13.5t-32 -13.5t-13 -33.5q0 -19 13 -32
t32 -13q20 0 32.5 13z" />
    <glyph glyph-name="ae" unicode="&#xe6;" horiz-adv-x="860" 
d="M92 30.5q-44 38.5 -44 114.5q0 80 60 122.5t165 42.5h86v22q0 55 -29 80.5t-78 25.5q-42 0 -70 -21.5t-40 -60.5l-74 17q10 63 61 101t123 38q55 0 98.5 -22t65.5 -63q30 40 74 62.5t98 22.5q69 0 120.5 -32t78.5 -86t27 -120v-35h-369q1 -76 39.5 -124.5t106.5 -48.5
q51 0 85 23.5t58 71.5l71 -27q-36 -74 -88 -108t-129 -34q-68 0 -119 32.5t-77 87.5q-28 -62 -76.5 -91t-111.5 -29q-68 0 -112 38.5zM729 310q-9 59 -45 93.5t-96 34.5q-55 0 -92 -36t-48 -92h281zM283.5 82.5q32.5 16.5 54 52t21.5 88.5v16h-85q-70 0 -105 -24t-35 -69
q0 -38 22 -59t61 -21q34 0 66.5 16.5z" />
    <glyph glyph-name="ccedilla" unicode="&#xe7;" horiz-adv-x="528" 
d="M151 28q-52 36 -78.5 95t-26.5 129t26.5 129t78.5 95t126 36q158 0 211 -141l-74 -29q-39 96 -137 96q-71 0 -108 -52t-37 -134q0 -81 37 -133.5t108 -52.5q50 0 83 24t54 72l74 -29q-27 -70 -80.5 -105.5t-130.5 -35.5q-74 0 -126 36zM140 -189l112 129h66l-81 -171z
" />
    <glyph glyph-name="egrave" unicode="&#xe8;" horiz-adv-x="547" 
d="M153 27q-52 35 -79.5 94.5t-27.5 130.5t27.5 130.5t79.5 94.5t123 35q69 0 120 -32t78 -86t27 -120v-35h-369q1 -76 39.5 -124.5t106.5 -48.5q52 0 85 23t59 75l70 -30q-36 -74 -87.5 -108t-128.5 -34q-71 0 -123 35zM417 310q-9 59 -45 93.5t-96 34.5q-55 0 -92 -36
t-48 -92h281zM123 703h118l69 -146h-63z" />
    <glyph glyph-name="eacute" unicode="&#xe9;" horiz-adv-x="547" 
d="M153 27q-52 35 -79.5 94.5t-27.5 130.5t27.5 130.5t79.5 94.5t123 35q69 0 120 -32t78 -86t27 -120v-35h-369q1 -76 39.5 -124.5t106.5 -48.5q52 0 85 23t59 75l70 -30q-36 -74 -87.5 -108t-128.5 -34q-71 0 -123 35zM417 310q-9 59 -45 93.5t-96 34.5q-55 0 -92 -36
t-48 -92h281zM312 703h117l-123 -146h-63z" />
    <glyph glyph-name="ecircumflex" unicode="&#xea;" horiz-adv-x="547" 
d="M153 27q-52 35 -79.5 94.5t-27.5 130.5t27.5 130.5t79.5 94.5t123 35q69 0 120 -32t78 -86t27 -120v-35h-369q1 -76 39.5 -124.5t106.5 -48.5q52 0 85 23t59 75l70 -30q-36 -74 -87.5 -108t-128.5 -34q-71 0 -123 35zM417 310q-9 59 -45 93.5t-96 34.5q-55 0 -92 -36
t-48 -92h281zM262 711h26l143 -151h-85l-71 75l-70 -75h-85z" />
    <glyph glyph-name="edieresis" unicode="&#xeb;" horiz-adv-x="547" 
d="M153 27q-52 35 -79.5 94.5t-27.5 130.5t27.5 130.5t79.5 94.5t123 35q69 0 120 -32t78 -86t27 -120v-35h-369q1 -76 39.5 -124.5t106.5 -48.5q52 0 85 23t59 75l70 -30q-36 -74 -87.5 -108t-128.5 -34q-71 0 -123 35zM417 310q-9 59 -45 93.5t-96 34.5q-55 0 -92 -36
t-48 -92h281zM149.5 601q-15.5 16 -15.5 40t16 40.5t40 16.5t40 -16.5t16 -40.5t-16 -40t-40 -16q-25 0 -40.5 16zM321 601q-16 16 -16 40t16 40.5t39 16.5q25 0 41 -16.5t16 -40.5t-16 -40t-41 -16q-23 0 -39 16z" />
    <glyph glyph-name="igrave" unicode="&#xec;" horiz-adv-x="233" 
d="M75 504h83v-504h-83v504zM-37 703h118l69 -146h-63z" />
    <glyph glyph-name="iacute" unicode="&#xed;" horiz-adv-x="233" 
d="M75 504h83v-504h-83v504zM152 703h117l-123 -146h-63z" />
    <glyph glyph-name="icircumflex" unicode="&#xee;" horiz-adv-x="233" 
d="M75 504h83v-504h-83v504zM102 711h26l143 -151h-85l-71 75l-70 -75h-85z" />
    <glyph glyph-name="idieresis" unicode="&#xef;" horiz-adv-x="233" 
d="M75 504h83v-504h-83v504zM-10.5 601q-15.5 16 -15.5 40t16 40.5t40 16.5t40 -16.5t16 -40.5t-16 -40t-40 -16q-25 0 -40.5 16zM161 601q-16 16 -16 40t16 40.5t39 16.5q25 0 41 -16.5t16 -40.5t-16 -40t-41 -16q-23 0 -39 16z" />
    <glyph glyph-name="eth" unicode="&#xf0;" horiz-adv-x="566" 
d="M156 27.5q-54 35.5 -82 95t-28 129.5t28 129.5t82 95t127 35.5q33 0 65 -12t53 -33q-14 35 -45 71t-72 67l-40 -60l-53 38l39 57q-38 23 -82 41l39 58q43 -19 83 -41l36 54l53 -38l-35 -51q100 -70 148 -168.5t48 -234.5q0 -73 -28.5 -134t-82 -97.5t-126.5 -36.5
t-127 35.5zM366 92q34 26 51 68.5t17 91.5q-1 77 -40 131.5t-111 54.5q-49 0 -83 -26t-51 -68.5t-17 -91.5t17 -91.5t51 -68.5t83 -26t83 26z" />
    <glyph glyph-name="ntilde" unicode="&#xf1;" horiz-adv-x="555" 
d="M75 504h83v-97q27 48 71.5 76.5t95.5 28.5q71 0 113 -42t42 -119v-351h-82v333q0 52 -23.5 78.5t-69.5 26.5q-41 0 -74.5 -27t-53 -77.5t-19.5 -118.5v-215h-83v504zM112 620q18 33 47 54t60 21q24 0 41 -6t37 -17q18 -10 29 -14t25 -4q33 0 62 41l52 -42
q-18 -33 -46.5 -54t-60.5 -21q-24 0 -40 6t-37 17q-16 9 -27.5 13.5t-26.5 4.5q-33 0 -63 -41z" />
    <glyph glyph-name="ograve" unicode="&#xf2;" horiz-adv-x="577" 
d="M160.5 27.5q-55.5 35.5 -85 95.5t-29.5 129t29.5 129t85 95.5t128.5 35.5t128 -35.5t84.5 -95.5t29.5 -129t-29.5 -129t-84.5 -95.5t-128 -35.5t-128.5 35.5zM373.5 92q35.5 26 53.5 68.5t18 91.5t-18 91.5t-53.5 68.5t-84.5 26t-84.5 -26t-54 -68.5t-18.5 -91.5
t18.5 -91.5t54 -68.5t84.5 -26t84.5 26zM136 703h118l69 -146h-63z" />
    <glyph glyph-name="oacute" unicode="&#xf3;" horiz-adv-x="577" 
d="M160.5 27.5q-55.5 35.5 -85 95.5t-29.5 129t29.5 129t85 95.5t128.5 35.5t128 -35.5t84.5 -95.5t29.5 -129t-29.5 -129t-84.5 -95.5t-128 -35.5t-128.5 35.5zM373.5 92q35.5 26 53.5 68.5t18 91.5t-18 91.5t-53.5 68.5t-84.5 26t-84.5 -26t-54 -68.5t-18.5 -91.5
t18.5 -91.5t54 -68.5t84.5 -26t84.5 26zM325 703h117l-123 -146h-63z" />
    <glyph glyph-name="ocircumflex" unicode="&#xf4;" horiz-adv-x="577" 
d="M160.5 27.5q-55.5 35.5 -85 95.5t-29.5 129t29.5 129t85 95.5t128.5 35.5t128 -35.5t84.5 -95.5t29.5 -129t-29.5 -129t-84.5 -95.5t-128 -35.5t-128.5 35.5zM373.5 92q35.5 26 53.5 68.5t18 91.5t-18 91.5t-53.5 68.5t-84.5 26t-84.5 -26t-54 -68.5t-18.5 -91.5
t18.5 -91.5t54 -68.5t84.5 -26t84.5 26zM275 711h26l143 -151h-85l-71 75l-70 -75h-85z" />
    <glyph glyph-name="otilde" unicode="&#xf5;" horiz-adv-x="577" 
d="M160.5 27.5q-55.5 35.5 -85 95.5t-29.5 129t29.5 129t85 95.5t128.5 35.5t128 -35.5t84.5 -95.5t29.5 -129t-29.5 -129t-84.5 -95.5t-128 -35.5t-128.5 35.5zM373.5 92q35.5 26 53.5 68.5t18 91.5t-18 91.5t-53.5 68.5t-84.5 26t-84.5 -26t-54 -68.5t-18.5 -91.5
t18.5 -91.5t54 -68.5t84.5 -26t84.5 26zM112 620q18 33 47 54t60 21q24 0 41 -6t37 -17q18 -10 29 -14t25 -4q33 0 62 41l52 -42q-18 -33 -46.5 -54t-60.5 -21q-24 0 -40 6t-37 17q-16 9 -27.5 13.5t-26.5 4.5q-33 0 -63 -41z" />
    <glyph glyph-name="odieresis" unicode="&#xf6;" horiz-adv-x="577" 
d="M160.5 27.5q-55.5 35.5 -85 95.5t-29.5 129t29.5 129t85 95.5t128.5 35.5t128 -35.5t84.5 -95.5t29.5 -129t-29.5 -129t-84.5 -95.5t-128 -35.5t-128.5 35.5zM373.5 92q35.5 26 53.5 68.5t18 91.5t-18 91.5t-53.5 68.5t-84.5 26t-84.5 -26t-54 -68.5t-18.5 -91.5
t18.5 -91.5t54 -68.5t84.5 -26t84.5 26zM162.5 601q-15.5 16 -15.5 40t16 40.5t40 16.5t40 -16.5t16 -40.5t-16 -40t-40 -16q-25 0 -40.5 16zM334 601q-16 16 -16 40t16 40.5t39 16.5q25 0 41 -16.5t16 -40.5t-16 -40t-41 -16q-23 0 -39 16z" />
    <glyph glyph-name="divide" unicode="&#xf7;" horiz-adv-x="568" 
d="M239.5 457q-17.5 17 -17.5 44q0 26 17.5 44t43.5 18q27 0 44.5 -18t17.5 -44q0 -27 -17.5 -44t-44.5 -17q-26 0 -43.5 17zM68 352h432v-73h-432v73zM239.5 85.5q-17.5 17.5 -17.5 44.5q0 26 17.5 44t43.5 18q27 0 44.5 -18t17.5 -44q0 -27 -17.5 -44.5t-44.5 -17.5
q-26 0 -43.5 17.5z" />
    <glyph glyph-name="oslash" unicode="&#xf8;" horiz-adv-x="577" 
d="M160.5 27.5q-55.5 35.5 -85 95.5t-29.5 129t29.5 129t85 95.5t128.5 35.5t128 -35.5t84.5 -95.5t29.5 -129t-29.5 -129t-84.5 -95.5t-128 -35.5t-128.5 35.5zM373.5 92q35.5 26 53.5 68.5t18 91.5t-18 91.5t-53.5 68.5t-84.5 26t-84.5 -26t-54 -68.5t-18.5 -91.5
t18.5 -91.5t54 -68.5t84.5 -26t84.5 26zM44 0l431 548l59 -44l-431 -548z" />
    <glyph glyph-name="ugrave" unicode="&#xf9;" horiz-adv-x="555" 
d="M117 34q-42 42 -42 119v351h83v-333q0 -52 23.5 -78.5t68.5 -26.5q41 0 75 27t53.5 78t19.5 119v214h82v-504h-82v97q-27 -48 -71.5 -76.5t-96.5 -28.5q-71 0 -113 42zM125 703h118l69 -146h-63z" />
    <glyph glyph-name="uacute" unicode="&#xfa;" horiz-adv-x="555" 
d="M117 34q-42 42 -42 119v351h83v-333q0 -52 23.5 -78.5t68.5 -26.5q41 0 75 27t53.5 78t19.5 119v214h82v-504h-82v97q-27 -48 -71.5 -76.5t-96.5 -28.5q-71 0 -113 42zM314 703h117l-123 -146h-63z" />
    <glyph glyph-name="ucircumflex" unicode="&#xfb;" horiz-adv-x="555" 
d="M117 34q-42 42 -42 119v351h83v-333q0 -52 23.5 -78.5t68.5 -26.5q41 0 75 27t53.5 78t19.5 119v214h82v-504h-82v97q-27 -48 -71.5 -76.5t-96.5 -28.5q-71 0 -113 42zM264 711h26l143 -151h-85l-71 75l-70 -75h-85z" />
    <glyph glyph-name="udieresis" unicode="&#xfc;" horiz-adv-x="555" 
d="M117 34q-42 42 -42 119v351h83v-333q0 -52 23.5 -78.5t68.5 -26.5q41 0 75 27t53.5 78t19.5 119v214h82v-504h-82v97q-27 -48 -71.5 -76.5t-96.5 -28.5q-71 0 -113 42zM151.5 601q-15.5 16 -15.5 40t16 40.5t40 16.5t40 -16.5t16 -40.5t-16 -40t-40 -16q-25 0 -40.5 16z
M323 601q-16 16 -16 40t16 40.5t39 16.5q25 0 41 -16.5t16 -40.5t-16 -40t-41 -16q-23 0 -39 16z" />
    <glyph glyph-name="yacute" unicode="&#xfd;" horiz-adv-x="458" 
d="M192 12l-182 492h85l139 -378l130 378h84l-253 -708h-81zM265 703h117l-123 -146h-63z" />
    <glyph glyph-name="thorn" unicode="&#xfe;" horiz-adv-x="577" 
d="M75 708h83v-268q18 29 59 50.5t88 21.5q72 0 123 -33.5t77 -92.5t26 -134t-26 -134t-77 -92.5t-123 -33.5q-43 0 -84 19.5t-63 51.5v-267h-83v912zM405.5 117.5q39.5 51.5 39.5 134.5t-39.5 134.5t-108.5 51.5t-108 -51.5t-39 -134.5t39.5 -134.5t107.5 -51.5
q69 0 108.5 51.5z" />
    <glyph glyph-name="ydieresis" unicode="&#xff;" horiz-adv-x="458" 
d="M192 12l-182 492h85l139 -378l130 378h84l-253 -708h-81zM102.5 601q-15.5 16 -15.5 40t16 40.5t40 16.5t40 -16.5t16 -40.5t-16 -40t-40 -16q-25 0 -40.5 16zM274 601q-16 16 -16 40t16 40.5t39 16.5q25 0 41 -16.5t16 -40.5t-16 -40t-41 -16q-23 0 -39 16z" />
    <glyph glyph-name="Amacron" unicode="&#x100;" horiz-adv-x="600" 
d="M259 700h82l247 -700h-91l-64 188h-266l-64 -188h-92zM407 269l-107 314l-107 -314h214zM174 866h250v-69h-250v69z" />
    <glyph glyph-name="amacron" unicode="&#x101;" horiz-adv-x="505" 
d="M92 30.5q-44 38.5 -44 114.5q0 80 59.5 122.5t163.5 42.5h88v22q0 55 -29.5 80.5t-77.5 25.5q-83 0 -110 -82l-74 17q10 63 61.5 101t122.5 38q85 0 137 -49.5t52 -139.5v-323h-65l-15 73q-52 -81 -157 -81q-68 0 -112 38.5zM285 82.5q32 16.5 53 52t21 88.5v16h-85
q-70 0 -105 -24t-35 -69q0 -38 22.5 -59t62.5 -21q34 0 66 16.5zM126 670h250v-69h-250v69z" />
    <glyph glyph-name="Abreve" unicode="&#x102;" horiz-adv-x="600" 
d="M259 700h82l247 -700h-91l-64 188h-266l-64 -188h-92zM407 269l-107 314l-107 -314h214zM223 818q-30 31 -30 78h64q0 -22 12 -35.5t33 -13.5q22 0 34 13.5t12 35.5h64q0 -48 -29.5 -78.5t-80.5 -30.5q-49 0 -79 31z" />
    <glyph glyph-name="abreve" unicode="&#x103;" horiz-adv-x="505" 
d="M92 30.5q-44 38.5 -44 114.5q0 80 59.5 122.5t163.5 42.5h88v22q0 55 -29.5 80.5t-77.5 25.5q-83 0 -110 -82l-74 17q10 63 61.5 101t122.5 38q85 0 137 -49.5t52 -139.5v-323h-65l-15 73q-52 -81 -157 -81q-68 0 -112 38.5zM285 82.5q32 16.5 53 52t21 88.5v16h-85
q-70 0 -105 -24t-35 -69q0 -38 22.5 -59t62.5 -21q34 0 66 16.5zM175 622q-30 31 -30 78h64q0 -22 12 -35.5t33 -13.5q22 0 34 13.5t12 35.5h64q0 -48 -29.5 -78.5t-80.5 -30.5q-49 0 -79 31z" />
    <glyph glyph-name="Aogonek" unicode="&#x104;" horiz-adv-x="600" 
d="M259 700h82l247 -700h-91l-64 188h-266l-64 -188h-92zM407 269l-107 314l-107 -314h214zM489 -152q-23 22 -23 59q0 26 14 51t38 42h70q-29 -26 -43 -44.5t-14 -34.5q0 -15 8.5 -23t22.5 -8t28 9l17 -59q-13 -8 -25.5 -11t-30.5 -3q-39 0 -62 22z" />
    <glyph glyph-name="aogonek" unicode="&#x105;" horiz-adv-x="514" 
d="M460 -160q-13 -8 -25.5 -11t-31.5 -3q-38 0 -61 22t-23 59q0 26 15.5 50.5t46.5 42.5h-5l-15 73q-52 -81 -157 -81q-68 0 -112 38.5t-44 114.5q0 80 59.5 122.5t163.5 42.5h88v22q0 55 -29.5 80.5t-77.5 25.5q-83 0 -110 -82l-74 17q10 63 61.5 101t122.5 38
q85 0 137 -49.5t52 -139.5v-323q-29 -26 -43 -44.5t-14 -34.5q0 -15 8.5 -23t22.5 -8q15 0 28 9zM359 239h-85q-70 0 -105 -24t-35 -69q0 -38 22.5 -59t62.5 -21q34 0 66 16.5t53 52t21 88.5v16z" />
    <glyph glyph-name="Cacute" unicode="&#x106;" horiz-adv-x="686" 
d="M210 32.5q-72 40.5 -116 121.5t-44 196t44 196t116 121.5t156 40.5q104 0 175 -54t98 -150l-82 -22q-21 69 -68.5 107t-122.5 38q-65 0 -116.5 -32t-80.5 -94t-29 -151t29 -151t80.5 -94t116.5 -32q75 0 122.5 38t68.5 107l82 -22q-27 -96 -98 -150t-175 -54
q-84 0 -156 40.5zM402 899h117l-123 -146h-63z" />
    <glyph glyph-name="cacute" unicode="&#x107;" horiz-adv-x="528" 
d="M151 28q-52 36 -78.5 95t-26.5 129t26.5 129t78.5 95t126 36q158 0 211 -141l-74 -29q-39 96 -137 96q-71 0 -108 -52t-37 -134q0 -81 37 -133.5t108 -52.5q50 0 83 24t54 72l74 -29q-27 -70 -80.5 -105.5t-130.5 -35.5q-74 0 -126 36zM314 703h117l-123 -146h-63z" />
    <glyph glyph-name="Ccircumflex" unicode="&#x108;" horiz-adv-x="686" 
d="M210 32.5q-72 40.5 -116 121.5t-44 196t44 196t116 121.5t156 40.5q104 0 175 -54t98 -150l-82 -22q-21 69 -68.5 107t-122.5 38q-65 0 -116.5 -32t-80.5 -94t-29 -151t29 -151t80.5 -94t116.5 -32q75 0 122.5 38t68.5 107l82 -22q-27 -96 -98 -150t-175 -54
q-84 0 -156 40.5zM352 907h26l143 -151h-85l-71 75l-70 -75h-85z" />
    <glyph glyph-name="ccircumflex" unicode="&#x109;" horiz-adv-x="528" 
d="M151 28q-52 36 -78.5 95t-26.5 129t26.5 129t78.5 95t126 36q158 0 211 -141l-74 -29q-39 96 -137 96q-71 0 -108 -52t-37 -134q0 -81 37 -133.5t108 -52.5q50 0 83 24t54 72l74 -29q-27 -70 -80.5 -105.5t-130.5 -35.5q-74 0 -126 36zM264 711h26l143 -151h-85l-71 75
l-70 -75h-85z" />
    <glyph glyph-name="Cdotaccent" unicode="&#x10a;" horiz-adv-x="686" 
d="M210 32.5q-72 40.5 -116 121.5t-44 196t44 196t116 121.5t156 40.5q104 0 175 -54t98 -150l-82 -22q-21 69 -68.5 107t-122.5 38q-65 0 -116.5 -32t-80.5 -94t-29 -151t29 -151t80.5 -94t116.5 -32q75 0 122.5 38t68.5 107l82 -22q-27 -96 -98 -150t-175 -54
q-84 0 -156 40.5zM323 802.5q-17 17.5 -17 42.5q0 26 17 43t43 17t43.5 -17t17.5 -43t-17.5 -43t-43.5 -17t-43 17.5z" />
    <glyph glyph-name="cdotaccent" unicode="&#x10b;" horiz-adv-x="528" 
d="M151 28q-52 36 -78.5 95t-26.5 129t26.5 129t78.5 95t126 36q158 0 211 -141l-74 -29q-39 96 -137 96q-71 0 -108 -52t-37 -134q0 -81 37 -133.5t108 -52.5q50 0 83 24t54 72l74 -29q-27 -70 -80.5 -105.5t-130.5 -35.5q-74 0 -126 36zM235.5 606.5
q-17.5 17.5 -17.5 42.5q0 26 17.5 43t42.5 17q26 0 43.5 -17t17.5 -43t-17.5 -43t-43.5 -17q-25 0 -42.5 17.5z" />
    <glyph glyph-name="Ccaron" unicode="&#x10c;" horiz-adv-x="686" 
d="M210 32.5q-72 40.5 -116 121.5t-44 196t44 196t116 121.5t156 40.5q104 0 175 -54t98 -150l-82 -22q-21 69 -68.5 107t-122.5 38q-65 0 -116.5 -32t-80.5 -94t-29 -151t29 -151t80.5 -94t116.5 -32q75 0 122.5 38t68.5 107l82 -22q-27 -96 -98 -150t-175 -54
q-84 0 -156 40.5zM210 907h85l70 -75l71 75h85l-143 -151h-26z" />
    <glyph glyph-name="ccaron" unicode="&#x10d;" horiz-adv-x="528" 
d="M151 28q-52 36 -78.5 95t-26.5 129t26.5 129t78.5 95t126 36q158 0 211 -141l-74 -29q-39 96 -137 96q-71 0 -108 -52t-37 -134q0 -81 37 -133.5t108 -52.5q50 0 83 24t54 72l74 -29q-27 -70 -80.5 -105.5t-130.5 -35.5q-74 0 -126 36zM122 711h85l70 -75l71 75h85
l-143 -151h-26z" />
    <glyph glyph-name="Dcaron" unicode="&#x10e;" horiz-adv-x="653" 
d="M87 700h195q89 0 162 -41t116 -120t43 -189t-43 -189t-116 -120t-162 -41h-195v700zM269 81q66 0 121 27.5t89 88t34 153.5t-34 153.5t-89 88t-121 27.5h-95v-538h95zM94 907h85l70 -75l71 75h85l-143 -151h-26z" />
    <glyph glyph-name="dcaron" unicode="&#x10f;" horiz-adv-x="703" 
d="M148 25.5q-50 33.5 -76 92.5t-26 134t26 134t76 92.5t121 33.5q48 0 87 -19t64 -52v267h82v-708h-82v66q-19 -30 -61 -52t-90 -22q-71 0 -121 33.5zM388 117q39 51 39 135q0 83 -39 134.5t-108 51.5t-108.5 -51.5t-39.5 -134.5t39.5 -134.5t108.5 -51.5t108 51zM605 714
h98l-71 -172h-55z" />
    <glyph glyph-name="Dcroat" unicode="&#x110;" horiz-adv-x="653" 
d="M87 700h195q89 0 162 -41t116 -120t43 -189t-43 -189t-116 -120t-162 -41h-195v700zM269 81q66 0 121 27.5t89 88t34 153.5t-34 153.5t-89 88t-121 27.5h-95v-538h95zM16 388h261v-76h-261v76z" />
    <glyph glyph-name="dcroat" unicode="&#x111;" horiz-adv-x="577" 
d="M148 25.5q-50 33.5 -76 92.5t-26 134t26 134t76 92.5t121 33.5q48 0 87 -19t64 -52v267h82v-708h-82v66q-19 -30 -61 -52t-90 -22q-71 0 -121 33.5zM388 117q39 51 39 135q0 83 -39 134.5t-108 51.5t-108.5 -51.5t-39.5 -134.5t39.5 -134.5t108.5 -51.5t108 51zM287 640
h282v-68h-282v68z" />
    <glyph glyph-name="Emacron" unicode="&#x112;" horiz-adv-x="558" 
d="M87 700h407v-81h-320v-206h260v-80h-260v-252h330v-81h-417v700zM171 866h250v-69h-250v69z" />
    <glyph glyph-name="emacron" unicode="&#x113;" horiz-adv-x="547" 
d="M153 27q-52 35 -79.5 94.5t-27.5 130.5t27.5 130.5t79.5 94.5t123 35q69 0 120 -32t78 -86t27 -120v-35h-369q1 -76 39.5 -124.5t106.5 -48.5q52 0 85 23t59 75l70 -30q-36 -74 -87.5 -108t-128.5 -34q-71 0 -123 35zM417 310q-9 59 -45 93.5t-96 34.5q-55 0 -92 -36
t-48 -92h281zM150 670h250v-69h-250v69z" />
    <glyph glyph-name="Ebreve" unicode="&#x114;" horiz-adv-x="558" 
d="M87 700h407v-81h-320v-206h260v-80h-260v-252h330v-81h-417v700zM220 818q-30 31 -30 78h64q0 -22 12 -35.5t33 -13.5q22 0 34 13.5t12 35.5h64q0 -48 -29.5 -78.5t-80.5 -30.5q-49 0 -79 31z" />
    <glyph glyph-name="ebreve" unicode="&#x115;" horiz-adv-x="547" 
d="M153 27q-52 35 -79.5 94.5t-27.5 130.5t27.5 130.5t79.5 94.5t123 35q69 0 120 -32t78 -86t27 -120v-35h-369q1 -76 39.5 -124.5t106.5 -48.5q52 0 85 23t59 75l70 -30q-36 -74 -87.5 -108t-128.5 -34q-71 0 -123 35zM417 310q-9 59 -45 93.5t-96 34.5q-55 0 -92 -36
t-48 -92h281zM199 622q-30 31 -30 78h64q0 -22 12 -35.5t33 -13.5q22 0 34 13.5t12 35.5h64q0 -48 -29.5 -78.5t-80.5 -30.5q-49 0 -79 31z" />
    <glyph glyph-name="Edotaccent" unicode="&#x116;" horiz-adv-x="558" 
d="M87 700h407v-81h-320v-206h260v-80h-260v-252h330v-81h-417v700zM254 802.5q-17 17.5 -17 42.5q0 26 17 43t43 17t43.5 -17t17.5 -43t-17.5 -43t-43.5 -17t-43 17.5z" />
    <glyph glyph-name="edotaccent" unicode="&#x117;" horiz-adv-x="547" 
d="M153 27q-52 35 -79.5 94.5t-27.5 130.5t27.5 130.5t79.5 94.5t123 35q69 0 120 -32t78 -86t27 -120v-35h-369q1 -76 39.5 -124.5t106.5 -48.5q52 0 85 23t59 75l70 -30q-36 -74 -87.5 -108t-128.5 -34q-71 0 -123 35zM417 310q-9 59 -45 93.5t-96 34.5q-55 0 -92 -36
t-48 -92h281zM233.5 606.5q-17.5 17.5 -17.5 42.5q0 26 17.5 43t42.5 17q26 0 43.5 -17t17.5 -43t-17.5 -43t-43.5 -17q-25 0 -42.5 17.5z" />
    <glyph glyph-name="Eogonek" unicode="&#x118;" horiz-adv-x="558" 
d="M87 700h407v-81h-320v-206h260v-80h-260v-252h330v-81h-417v700zM405 -152q-23 22 -23 59q0 26 14 51t38 42h70q-29 -26 -43 -44.5t-14 -34.5q0 -15 8.5 -23t22.5 -8t28 9l17 -59q-13 -8 -25.5 -11t-30.5 -3q-39 0 -62 22z" />
    <glyph glyph-name="eogonek" unicode="&#x119;" horiz-adv-x="547" 
d="M153 27q-52 35 -79.5 94.5t-27.5 130.5t27.5 130.5t79.5 94.5t123 35q69 0 120 -32t78 -86t27 -120v-35h-369q1 -76 39.5 -124.5t106.5 -48.5q52 0 85 23t59 75l70 -30q-36 -74 -87.5 -108t-128.5 -34q-71 0 -123 35zM417 310q-9 59 -45 93.5t-96 34.5q-55 0 -92 -36
t-48 -92h281zM246 -152q-23 22 -23 59q0 26 14 51t38 42h70q-29 -26 -43 -44.5t-14 -34.5q0 -15 8.5 -23t22.5 -8t28 9l17 -59q-13 -8 -25.5 -11t-30.5 -3q-39 0 -62 22z" />
    <glyph glyph-name="Ecaron" unicode="&#x11a;" horiz-adv-x="558" 
d="M87 700h407v-81h-320v-206h260v-80h-260v-252h330v-81h-417v700zM141 907h85l70 -75l71 75h85l-143 -151h-26z" />
    <glyph glyph-name="ecaron" unicode="&#x11b;" horiz-adv-x="547" 
d="M153 27q-52 35 -79.5 94.5t-27.5 130.5t27.5 130.5t79.5 94.5t123 35q69 0 120 -32t78 -86t27 -120v-35h-369q1 -76 39.5 -124.5t106.5 -48.5q52 0 85 23t59 75l70 -30q-36 -74 -87.5 -108t-128.5 -34q-71 0 -123 35zM417 310q-9 59 -45 93.5t-96 34.5q-55 0 -92 -36
t-48 -92h281zM120 711h85l70 -75l71 75h85l-143 -151h-26z" />
    <glyph glyph-name="Gcircumflex" unicode="&#x11c;" horiz-adv-x="706" 
d="M207.5 33q-71.5 41 -114.5 121.5t-43 195.5t44 195.5t116 121.5t156 41q106 0 178 -56.5t98 -153.5l-82 -22q-25 72 -74 111.5t-120 39.5q-66 0 -117 -31.5t-80 -94t-29 -151.5q0 -90 29 -152t79.5 -93.5t116.5 -31.5q91 0 139.5 53.5t51.5 149.5h-152v77h237v-353h-74
l-9 97q-26 -47 -77.5 -76t-118.5 -29q-83 0 -154.5 41zM352 907h26l143 -151h-85l-71 75l-70 -75h-85z" />
    <glyph glyph-name="gcircumflex" unicode="&#x11d;" horiz-adv-x="490" 
d="M95.5 -168q-58.5 44 -58.5 122q0 33 13.5 60t35.5 44q-36 31 -36 81q0 32 17 56.5t45 38.5q-37 45 -37 109q0 50 23.5 88.5t63.5 59.5t89 21q47 0 90 -23l90 51l36 -62l-71 -38q30 -43 30 -97q0 -51 -23 -89.5t-63 -59t-89 -20.5q-48 0 -88 20q-35 -17 -35 -50
q0 -23 16 -34t41 -11h121q73 0 116.5 -34.5t43.5 -102.5q0 -88 -60 -131t-154 -43q-98 0 -156.5 44zM319 270.5q27 26.5 27 72.5t-27 72.5t-68 26.5t-68.5 -26.5t-27.5 -72.5t27.5 -72.5t68.5 -26.5t68 26.5zM349.5 -114.5q34.5 25.5 34.5 68.5q0 40 -23.5 57.5t-68.5 17.5
h-91q-28 0 -52 3q-32 -29 -32 -76q0 -46 34.5 -71t100.5 -25q63 0 97.5 25.5zM238 711h26l143 -151h-85l-71 75l-70 -75h-85z" />
    <glyph glyph-name="Gbreve" unicode="&#x11e;" horiz-adv-x="706" 
d="M207.5 33q-71.5 41 -114.5 121.5t-43 195.5t44 195.5t116 121.5t156 41q106 0 178 -56.5t98 -153.5l-82 -22q-25 72 -74 111.5t-120 39.5q-66 0 -117 -31.5t-80 -94t-29 -151.5q0 -90 29 -152t79.5 -93.5t116.5 -31.5q91 0 139.5 53.5t51.5 149.5h-152v77h237v-353h-74
l-9 97q-26 -47 -77.5 -76t-118.5 -29q-83 0 -154.5 41zM289 818q-30 31 -30 78h64q0 -22 12 -35.5t33 -13.5q22 0 34 13.5t12 35.5h64q0 -48 -29.5 -78.5t-80.5 -30.5q-49 0 -79 31z" />
    <glyph glyph-name="gbreve" unicode="&#x11f;" horiz-adv-x="490" 
d="M95.5 -168q-58.5 44 -58.5 122q0 33 13.5 60t35.5 44q-36 31 -36 81q0 32 17 56.5t45 38.5q-37 45 -37 109q0 50 23.5 88.5t63.5 59.5t89 21q47 0 90 -23l90 51l36 -62l-71 -38q30 -43 30 -97q0 -51 -23 -89.5t-63 -59t-89 -20.5q-48 0 -88 20q-35 -17 -35 -50
q0 -23 16 -34t41 -11h121q73 0 116.5 -34.5t43.5 -102.5q0 -88 -60 -131t-154 -43q-98 0 -156.5 44zM319 270.5q27 26.5 27 72.5t-27 72.5t-68 26.5t-68.5 -26.5t-27.5 -72.5t27.5 -72.5t68.5 -26.5t68 26.5zM349.5 -114.5q34.5 25.5 34.5 68.5q0 40 -23.5 57.5t-68.5 17.5
h-91q-28 0 -52 3q-32 -29 -32 -76q0 -46 34.5 -71t100.5 -25q63 0 97.5 25.5zM175 622q-30 31 -30 78h64q0 -22 12 -35.5t33 -13.5q22 0 34 13.5t12 35.5h64q0 -48 -29.5 -78.5t-80.5 -30.5q-49 0 -79 31z" />
    <glyph glyph-name="Gdotaccent" unicode="&#x120;" horiz-adv-x="706" 
d="M207.5 33q-71.5 41 -114.5 121.5t-43 195.5t44 195.5t116 121.5t156 41q106 0 178 -56.5t98 -153.5l-82 -22q-25 72 -74 111.5t-120 39.5q-66 0 -117 -31.5t-80 -94t-29 -151.5q0 -90 29 -152t79.5 -93.5t116.5 -31.5q91 0 139.5 53.5t51.5 149.5h-152v77h237v-353h-74
l-9 97q-26 -47 -77.5 -76t-118.5 -29q-83 0 -154.5 41zM323 802.5q-17 17.5 -17 42.5q0 26 17 43t43 17t43.5 -17t17.5 -43t-17.5 -43t-43.5 -17t-43 17.5z" />
    <glyph glyph-name="gdotaccent" unicode="&#x121;" horiz-adv-x="490" 
d="M95.5 -168q-58.5 44 -58.5 122q0 33 13.5 60t35.5 44q-36 31 -36 81q0 32 17 56.5t45 38.5q-37 45 -37 109q0 50 23.5 88.5t63.5 59.5t89 21q47 0 90 -23l90 51l36 -62l-71 -38q30 -43 30 -97q0 -51 -23 -89.5t-63 -59t-89 -20.5q-48 0 -88 20q-35 -17 -35 -50
q0 -23 16 -34t41 -11h121q73 0 116.5 -34.5t43.5 -102.5q0 -88 -60 -131t-154 -43q-98 0 -156.5 44zM319 270.5q27 26.5 27 72.5t-27 72.5t-68 26.5t-68.5 -26.5t-27.5 -72.5t27.5 -72.5t68.5 -26.5t68 26.5zM349.5 -114.5q34.5 25.5 34.5 68.5q0 40 -23.5 57.5t-68.5 17.5
h-91q-28 0 -52 3q-32 -29 -32 -76q0 -46 34.5 -71t100.5 -25q63 0 97.5 25.5zM209.5 606.5q-17.5 17.5 -17.5 42.5q0 26 17.5 43t42.5 17q26 0 43.5 -17t17.5 -43t-17.5 -43t-43.5 -17q-25 0 -42.5 17.5z" />
    <glyph glyph-name="Gcommaaccent" unicode="&#x122;" horiz-adv-x="706" 
d="M207.5 33q-71.5 41 -114.5 121.5t-43 195.5t44 195.5t116 121.5t156 41q106 0 178 -56.5t98 -153.5l-82 -22q-25 72 -74 111.5t-120 39.5q-66 0 -117 -31.5t-80 -94t-29 -151.5q0 -90 29 -152t79.5 -93.5t116.5 -31.5q91 0 139.5 53.5t51.5 149.5h-152v77h237v-353h-74
l-9 97q-26 -47 -77.5 -76t-118.5 -29q-83 0 -154.5 41zM317 -52h109l-104 -172h-47z" />
    <glyph glyph-name="gcommaaccent" unicode="&#x123;" horiz-adv-x="490" 
d="M95.5 -168q-58.5 44 -58.5 122q0 33 13.5 60t35.5 44q-36 31 -36 81q0 32 17 56.5t45 38.5q-37 45 -37 109q0 50 23.5 88.5t63.5 59.5t89 21q47 0 90 -23l90 51l36 -62l-71 -38q30 -43 30 -97q0 -51 -23 -89.5t-63 -59t-89 -20.5q-48 0 -88 20q-35 -17 -35 -50
q0 -23 16 -34t41 -11h121q73 0 116.5 -34.5t43.5 -102.5q0 -88 -60 -131t-154 -43q-98 0 -156.5 44zM319 270.5q27 26.5 27 72.5t-27 72.5t-68 26.5t-68.5 -26.5t-27.5 -72.5t27.5 -72.5t68.5 -26.5t68 26.5zM349.5 -114.5q34.5 25.5 34.5 68.5q0 40 -23.5 57.5t-68.5 17.5
h-91q-28 0 -52 3q-32 -29 -32 -76q0 -46 34.5 -71t100.5 -25q63 0 97.5 25.5zM288 738h57l-42 -152h-102z" />
    <glyph glyph-name="Hcircumflex" unicode="&#x124;" horiz-adv-x="678" 
d="M87 700h87v-286h331v286h87v-700h-87v333h-331v-333h-87v700zM325 907h26l143 -151h-85l-71 75l-70 -75h-85z" />
    <glyph glyph-name="hcircumflex" unicode="&#x125;" horiz-adv-x="563" 
d="M75 708h83v-305q25 52 72 80.5t101 28.5q74 0 115.5 -41.5t41.5 -119.5v-351h-82v331q0 52 -24 79.5t-71 27.5q-41 0 -76 -26.5t-56 -77.5t-21 -120v-214h-83v708zM212 907h26l143 -151h-85l-71 75l-70 -75h-85z" />
    <glyph glyph-name="Hbar" unicode="&#x126;" horiz-adv-x="678" 
d="M87 700h87v-286h331v286h87v-700h-87v333h-331v-333h-87v700zM19 594h640v-74h-640v74z" />
    <glyph glyph-name="hbar" unicode="&#x127;" horiz-adv-x="563" 
d="M75 708h83v-305q25 52 72 80.5t101 28.5q74 0 115.5 -41.5t41.5 -119.5v-351h-82v331q0 52 -24 79.5t-71 27.5q-41 0 -76 -26.5t-56 -77.5t-21 -120v-214h-83v708zM8 640h282v-68h-282v68z" />
    <glyph glyph-name="Itilde" unicode="&#x128;" horiz-adv-x="260" 
d="M87 700h87v-700h-87v700zM-47 816q18 33 47 54t60 21q24 0 41 -6t37 -17q18 -10 29 -14t25 -4q33 0 62 41l52 -42q-18 -33 -46.5 -54t-60.5 -21q-24 0 -40 6t-37 17q-16 9 -27.5 13.5t-26.5 4.5q-33 0 -63 -41z" />
    <glyph glyph-name="itilde" unicode="&#x129;" horiz-adv-x="233" 
d="M75 504h83v-504h-83v504zM-61 620q18 33 47 54t60 21q24 0 41 -6t37 -17q18 -10 29 -14t25 -4q33 0 62 41l52 -42q-18 -33 -46.5 -54t-60.5 -21q-24 0 -40 6t-37 17q-16 9 -27.5 13.5t-26.5 4.5q-33 0 -63 -41z" />
    <glyph glyph-name="Imacron" unicode="&#x12a;" horiz-adv-x="260" 
d="M87 700h87v-700h-87v700zM4 866h250v-69h-250v69z" />
    <glyph glyph-name="imacron" unicode="&#x12b;" horiz-adv-x="233" 
d="M75 504h83v-504h-83v504zM-10 670h250v-69h-250v69z" />
    <glyph glyph-name="Ibreve" unicode="&#x12c;" horiz-adv-x="260" 
d="M87 700h87v-700h-87v700zM53 818q-30 31 -30 78h64q0 -22 12 -35.5t33 -13.5q22 0 34 13.5t12 35.5h64q0 -48 -29.5 -78.5t-80.5 -30.5q-49 0 -79 31z" />
    <glyph glyph-name="ibreve" unicode="&#x12d;" horiz-adv-x="233" 
d="M75 504h83v-504h-83v504zM39 622q-30 31 -30 78h64q0 -22 12 -35.5t33 -13.5q22 0 34 13.5t12 35.5h64q0 -48 -29.5 -78.5t-80.5 -30.5q-49 0 -79 31z" />
    <glyph glyph-name="Iogonek" unicode="&#x12e;" horiz-adv-x="260" 
d="M87 700h87v-700h-87v700zM75 -152q-23 22 -23 59q0 26 14 51t38 42h70q-29 -26 -43 -44.5t-14 -34.5q0 -15 8.5 -23t22.5 -8t28 9l17 -59q-13 -8 -25.5 -11t-30.5 -3q-39 0 -62 22z" />
    <glyph glyph-name="iogonek" unicode="&#x12f;" horiz-adv-x="233" 
d="M75 504h83v-504h-83v504zM73.5 606.5q-17.5 17.5 -17.5 42.5q0 26 17.5 43t42.5 17q26 0 43.5 -17t17.5 -43t-17.5 -43t-43.5 -17q-25 0 -42.5 17.5zM59 -152q-23 22 -23 59q0 26 14 51t38 42h70q-29 -26 -43 -44.5t-14 -34.5q0 -15 8.5 -23t22.5 -8t28 9l17 -59
q-13 -8 -25.5 -11t-30.5 -3q-39 0 -62 22z" />
    <glyph glyph-name="Idotaccent" unicode="&#x130;" horiz-adv-x="260" 
d="M87 700h87v-700h-87v700zM87 802.5q-17 17.5 -17 42.5q0 26 17 43t43 17t43.5 -17t17.5 -43t-17.5 -43t-43.5 -17t-43 17.5z" />
    <glyph glyph-name="dotlessi" unicode="&#x131;" horiz-adv-x="233" 
d="M75 504h83v-504h-83v504z" />
    <glyph glyph-name="IJ" unicode="&#x132;" horiz-adv-x="771" 
d="M87 700h87v-700h-87v700zM348.5 42.5q-52.5 50.5 -62.5 129.5l88 19q8 -57 37 -87.5t79 -30.5q54 0 86.5 33t32.5 103v491h86v-482q0 -112 -57 -169t-148 -57q-89 0 -141.5 50.5z" />
    <glyph glyph-name="ij" unicode="&#x133;" horiz-adv-x="466" 
d="M73.5 606.5q-17.5 17.5 -17.5 42.5q0 26 17.5 43t42.5 17q26 0 43.5 -17t17.5 -43t-17.5 -43t-43.5 -17q-25 0 -42.5 17.5zM75 504h83v-504h-83v504zM306.5 606.5q-17.5 17.5 -17.5 42.5q0 26 17.5 43t42.5 17q26 0 43.5 -17t17.5 -43t-17.5 -43t-43.5 -17
q-25 0 -42.5 17.5zM218 -137q47 13 68.5 37.5t21.5 76.5v527h83v-528q0 -83 -38.5 -128t-114.5 -60z" />
    <glyph glyph-name="Jcircumflex" unicode="&#x134;" horiz-adv-x="513" 
d="M90.5 42.5q-52.5 50.5 -62.5 129.5l88 19q8 -57 37 -87.5t79 -30.5q54 0 86.5 33t32.5 103v491h86v-482q0 -112 -57 -169t-148 -57q-89 0 -141.5 50.5zM380 907h26l143 -151h-85l-71 75l-70 -75h-85z" />
    <glyph glyph-name="jcircumflex" unicode="&#x135;" horiz-adv-x="233" 
d="M-15 -137q47 13 68.5 37.5t21.5 76.5v527h83v-528q0 -83 -38.5 -128t-114.5 -60zM102 711h26l143 -151h-85l-71 75l-70 -75h-85z" />
    <glyph glyph-name="Kcommaaccent" unicode="&#x136;" horiz-adv-x="582" 
d="M87 700h87v-286l262 286h108l-286 -314l310 -386h-109l-285 359v-359h-87v700zM256 -52h109l-104 -172h-47z" />
    <glyph glyph-name="kcommaaccent" unicode="&#x137;" horiz-adv-x="482" 
d="M75 708h83v-419l195 215h103l-213 -231l229 -273h-103l-211 256v-256h-83v708zM201 -52h109l-104 -172h-47z" />
    <glyph glyph-name="kgreenlandic" unicode="&#x138;" horiz-adv-x="482" 
d="M75 504h83v-215l195 215h103l-213 -231l229 -273h-103l-211 256v-256h-83v504z" />
    <glyph glyph-name="Lacute" unicode="&#x139;" horiz-adv-x="530" 
d="M87 700h87v-619h317v-81h-404v700zM166 899h117l-123 -146h-63z" />
    <glyph glyph-name="lacute" unicode="&#x13a;" horiz-adv-x="233" 
d="M75 708h83v-708h-83v708zM152 899h117l-123 -146h-63z" />
    <glyph glyph-name="Lcommaaccent" unicode="&#x13b;" horiz-adv-x="530" 
d="M87 700h87v-619h317v-81h-404v700zM234 -52h109l-104 -172h-47z" />
    <glyph glyph-name="lcommaaccent" unicode="&#x13c;" horiz-adv-x="233" 
d="M75 708h83v-708h-83v708zM62 -52h109l-104 -172h-47z" />
    <glyph glyph-name="Lcaron" unicode="&#x13d;" horiz-adv-x="530" 
d="M87 700h87v-619h317v-81h-404v700zM394 714h98l-71 -172h-55z" />
    <glyph glyph-name="lcaron" unicode="&#x13e;" horiz-adv-x="359" 
d="M75 708h83v-708h-83v708zM261 714h98l-71 -172h-55z" />
    <glyph glyph-name="Ldot" unicode="&#x13f;" horiz-adv-x="530" 
d="M87 700h87v-619h317v-81h-404v700zM342.5 311.5q-17.5 17.5 -17.5 43.5q0 27 17.5 44.5t43.5 17.5q27 0 44.5 -17.5t17.5 -44.5q0 -26 -17.5 -43.5t-44.5 -17.5q-26 0 -43.5 17.5z" />
    <glyph glyph-name="ldot" unicode="&#x140;" horiz-adv-x="439" 
d="M75 708h83v-708h-83v708zM298.5 311.5q-17.5 17.5 -17.5 43.5q0 27 17.5 44.5t43.5 17.5q27 0 44.5 -17.5t17.5 -44.5q0 -26 -17.5 -43.5t-44.5 -17.5q-26 0 -43.5 17.5z" />
    <glyph glyph-name="Lslash" unicode="&#x141;" horiz-adv-x="557" 
d="M114 700h87v-619h317v-81h-404v700zM-2 254l306 174l35 -63l-308 -174z" />
    <glyph glyph-name="lslash" unicode="&#x142;" horiz-adv-x="233" 
d="M75 708h83v-708h-83v708zM-28 311l253 140l36 -63l-254 -140z" />
    <glyph glyph-name="Nacute" unicode="&#x143;" horiz-adv-x="674" 
d="M87 700h97l318 -552v552h86v-700h-97l-317 550v-550h-87v700zM374 899h117l-123 -146h-63z" />
    <glyph glyph-name="nacute" unicode="&#x144;" horiz-adv-x="555" 
d="M75 504h83v-97q27 48 71.5 76.5t95.5 28.5q71 0 113 -42t42 -119v-351h-82v333q0 52 -23.5 78.5t-69.5 26.5q-41 0 -74.5 -27t-53 -77.5t-19.5 -118.5v-215h-83v504zM325 703h117l-123 -146h-63z" />
    <glyph glyph-name="Ncommaaccent" unicode="&#x145;" horiz-adv-x="674" 
d="M87 700h97l318 -552v552h86v-700h-97l-317 550v-550h-87v700zM284 -52h109l-104 -172h-47z" />
    <glyph glyph-name="ncommaaccent" unicode="&#x146;" horiz-adv-x="555" 
d="M75 504h83v-97q27 48 71.5 76.5t95.5 28.5q71 0 113 -42t42 -119v-351h-82v333q0 52 -23.5 78.5t-69.5 26.5q-41 0 -74.5 -27t-53 -77.5t-19.5 -118.5v-215h-83v504zM224 -52h109l-104 -172h-47z" />
    <glyph glyph-name="Ncaron" unicode="&#x147;" horiz-adv-x="674" 
d="M87 700h97l318 -552v552h86v-700h-97l-317 550v-550h-87v700zM182 907h85l70 -75l71 75h85l-143 -151h-26z" />
    <glyph glyph-name="ncaron" unicode="&#x148;" horiz-adv-x="555" 
d="M75 504h83v-97q27 48 71.5 76.5t95.5 28.5q71 0 113 -42t42 -119v-351h-82v333q0 52 -23.5 78.5t-69.5 26.5q-41 0 -74.5 -27t-53 -77.5t-19.5 -118.5v-215h-83v504zM133 711h85l70 -75l71 75h85l-143 -151h-26z" />
    <glyph glyph-name="Eng" unicode="&#x14a;" horiz-adv-x="674" 
d="M389 -131q53 0 82.5 29.5t30.5 97.5v4l-328 550v-550h-87v700h97l318 -540v540h86v-699q0 -108 -53 -160.5t-146 -52.5v81z" />
    <glyph glyph-name="eng" unicode="&#x14b;" horiz-adv-x="555" 
d="M308 -137q47 13 68.5 37.5t21.5 76.5v356q0 52 -23.5 78.5t-69.5 26.5q-41 0 -74.5 -27t-53 -77.5t-19.5 -118.5v-215h-83v504h83v-97q27 48 71.5 76.5t95.5 28.5q71 0 113 -42t42 -119v-375q0 -83 -38 -128t-115 -60z" />
    <glyph glyph-name="Omacron" unicode="&#x14c;" horiz-adv-x="729" 
d="M207 34.5q-72 42.5 -114.5 123.5t-42.5 192t42.5 192t114.5 123.5t158 42.5q85 0 157 -42.5t114.5 -123.5t42.5 -192t-42.5 -192t-114.5 -123.5t-157 -42.5q-86 0 -158 42.5zM479 104q51 31 81 93.5t30 152.5t-30 152.5t-81 93.5t-114 31t-114 -31t-81 -93.5t-30 -152.5
t30 -152.5t81 -93.5t114 -31t114 31zM239 866h250v-69h-250v69z" />
    <glyph glyph-name="omacron" unicode="&#x14d;" horiz-adv-x="577" 
d="M160.5 27.5q-55.5 35.5 -85 95.5t-29.5 129t29.5 129t85 95.5t128.5 35.5t128 -35.5t84.5 -95.5t29.5 -129t-29.5 -129t-84.5 -95.5t-128 -35.5t-128.5 35.5zM373.5 92q35.5 26 53.5 68.5t18 91.5t-18 91.5t-53.5 68.5t-84.5 26t-84.5 -26t-54 -68.5t-18.5 -91.5
t18.5 -91.5t54 -68.5t84.5 -26t84.5 26zM163 670h250v-69h-250v69z" />
    <glyph glyph-name="Obreve" unicode="&#x14e;" horiz-adv-x="729" 
d="M207 34.5q-72 42.5 -114.5 123.5t-42.5 192t42.5 192t114.5 123.5t158 42.5q85 0 157 -42.5t114.5 -123.5t42.5 -192t-42.5 -192t-114.5 -123.5t-157 -42.5q-86 0 -158 42.5zM479 104q51 31 81 93.5t30 152.5t-30 152.5t-81 93.5t-114 31t-114 -31t-81 -93.5t-30 -152.5
t30 -152.5t81 -93.5t114 -31t114 31zM288 818q-30 31 -30 78h64q0 -22 12 -35.5t33 -13.5q22 0 34 13.5t12 35.5h64q0 -48 -29.5 -78.5t-80.5 -30.5q-49 0 -79 31z" />
    <glyph glyph-name="obreve" unicode="&#x14f;" horiz-adv-x="577" 
d="M160.5 27.5q-55.5 35.5 -85 95.5t-29.5 129t29.5 129t85 95.5t128.5 35.5t128 -35.5t84.5 -95.5t29.5 -129t-29.5 -129t-84.5 -95.5t-128 -35.5t-128.5 35.5zM373.5 92q35.5 26 53.5 68.5t18 91.5t-18 91.5t-53.5 68.5t-84.5 26t-84.5 -26t-54 -68.5t-18.5 -91.5
t18.5 -91.5t54 -68.5t84.5 -26t84.5 26zM212 622q-30 31 -30 78h64q0 -22 12 -35.5t33 -13.5q22 0 34 13.5t12 35.5h64q0 -48 -29.5 -78.5t-80.5 -30.5q-49 0 -79 31z" />
    <glyph glyph-name="Ohungarumlaut" unicode="&#x150;" horiz-adv-x="729" 
d="M207 34.5q-72 42.5 -114.5 123.5t-42.5 192t42.5 192t114.5 123.5t158 42.5q85 0 157 -42.5t114.5 -123.5t42.5 -192t-42.5 -192t-114.5 -123.5t-157 -42.5q-86 0 -158 42.5zM479 104q51 31 81 93.5t30 152.5t-30 152.5t-81 93.5t-114 31t-114 -31t-81 -93.5t-30 -152.5
t30 -152.5t81 -93.5t114 -31t114 31zM315 899h117l-122 -143h-63zM483 899h118l-122 -143h-64z" />
    <glyph glyph-name="ohungarumlaut" unicode="&#x151;" horiz-adv-x="577" 
d="M160.5 27.5q-55.5 35.5 -85 95.5t-29.5 129t29.5 129t85 95.5t128.5 35.5t128 -35.5t84.5 -95.5t29.5 -129t-29.5 -129t-84.5 -95.5t-128 -35.5t-128.5 35.5zM373.5 92q35.5 26 53.5 68.5t18 91.5t-18 91.5t-53.5 68.5t-84.5 26t-84.5 -26t-54 -68.5t-18.5 -91.5
t18.5 -91.5t54 -68.5t84.5 -26t84.5 26zM219 703h117l-122 -143h-63zM387 703h118l-122 -143h-64z" />
    <glyph glyph-name="OE" unicode="&#x152;" horiz-adv-x="1063" 
d="M207 34.5q-72 42.5 -114.5 123.5t-42.5 192t42.5 192t114.5 123.5t158 42.5q66 0 125 -27.5t102 -78.5v98h407v-81h-320v-206h260v-80h-260v-252h330v-81h-417v98q-43 -51 -102 -78.5t-125 -27.5q-86 0 -158 42.5zM479 104q51 31 81 93.5t30 152.5t-30 152.5t-81 93.5
t-114 31t-114 -31t-81 -93.5t-30 -152.5t30 -152.5t81 -93.5t114 -31t114 31z" />
    <glyph glyph-name="oe" unicode="&#x153;" horiz-adv-x="946" 
d="M160.5 27.5q-55.5 35.5 -85 95.5t-29.5 129t29.5 129t85 95.5t128.5 35.5q64 0 114.5 -28.5t82.5 -78.5q29 50 77.5 78.5t111.5 28.5q69 0 120 -32t78 -86t27 -120v-35h-369q2 -81 41 -127t105 -46q52 0 85.5 23t58.5 72l70 -27q-36 -74 -87.5 -108t-128.5 -34
q-63 0 -112 28.5t-77 78.5q-32 -50 -82.5 -78.5t-114.5 -28.5q-73 0 -128.5 35.5zM373.5 92q35.5 26 53.5 68.5t18 91.5t-18.5 91.5t-54 68.5t-83.5 26q-49 0 -84.5 -26t-54 -68.5t-18.5 -91.5t18.5 -91.5t54 -68.5t84.5 -26t84.5 26zM816 310q-9 59 -45 93.5t-96 34.5
q-55 0 -91.5 -36t-48.5 -92h281z" />
    <glyph glyph-name="Racute" unicode="&#x154;" 
d="M87 700h235q97 0 150.5 -48t53.5 -136q0 -74 -38 -119.5t-108 -59.5l210 -337h-97l-209 332h-110v-332h-87v700zM319 413q59 0 89 25t30 78q0 103 -119 103h-145v-206h145zM285 899h117l-123 -146h-63z" />
    <glyph glyph-name="racute" unicode="&#x155;" horiz-adv-x="392" 
d="M75 504h83v-87q24 46 62 70.5t86 24.5q33 0 71 -15l-17 -77q-31 17 -65 17q-60 0 -98.5 -63t-38.5 -184v-190h-83v504zM247 703h117l-123 -146h-63z" />
    <glyph glyph-name="Rcommaaccent" unicode="&#x156;" 
d="M87 700h235q97 0 150.5 -48t53.5 -136q0 -74 -38 -119.5t-108 -59.5l210 -337h-97l-209 332h-110v-332h-87v700zM319 413q59 0 89 25t30 78q0 103 -119 103h-145v-206h145zM265 -52h109l-104 -172h-47z" />
    <glyph glyph-name="rcommaaccent" unicode="&#x157;" horiz-adv-x="392" 
d="M75 504h83v-87q24 46 62 70.5t86 24.5q33 0 71 -15l-17 -77q-31 17 -65 17q-60 0 -98.5 -63t-38.5 -184v-190h-83v504zM62 -52h109l-104 -172h-47z" />
    <glyph glyph-name="Rcaron" unicode="&#x158;" 
d="M87 700h235q97 0 150.5 -48t53.5 -136q0 -74 -38 -119.5t-108 -59.5l210 -337h-97l-209 332h-110v-332h-87v700zM319 413q59 0 89 25t30 78q0 103 -119 103h-145v-206h145zM93 907h85l70 -75l71 75h85l-143 -151h-26z" />
    <glyph glyph-name="rcaron" unicode="&#x159;" horiz-adv-x="392" 
d="M75 504h83v-87q24 46 62 70.5t86 24.5q33 0 71 -15l-17 -77q-31 17 -65 17q-60 0 -98.5 -63t-38.5 -184v-190h-83v504zM55 711h85l70 -75l71 75h85l-143 -151h-26z" />
    <glyph glyph-name="Sacute" unicode="&#x15a;" horiz-adv-x="514" 
d="M158.5 17.5q-48.5 25.5 -79.5 69.5t-40 96l72 45q37 -155 155 -155q51 0 83 30.5t32 88.5q0 38 -20 65t-50 45t-85 44q-68 33 -107.5 77.5t-39.5 113.5q0 49 23 88t63 61t90 22q69 0 112 -29.5t67 -84.5l-71 -45q-32 78 -108 78q-41 0 -66 -25t-25 -60t19 -60t47.5 -42
t77.5 -39q77 -35 119 -81.5t42 -123.5q0 -61 -26.5 -107t-73 -71.5t-104.5 -25.5t-106.5 25.5zM291 899h117l-123 -146h-63z" />
    <glyph glyph-name="sacute" unicode="&#x15b;" horiz-adv-x="435" 
d="M105 32q-48 40 -63 97l69 37q15 -48 43.5 -74t75.5 -26q37 0 59.5 19.5t22.5 56.5q0 33 -27 52t-84 40q-60 22 -92.5 55t-32.5 88q0 60 41.5 97.5t105.5 37.5q97 0 146 -79l-54 -48q-34 53 -93 53q-28 0 -47 -16.5t-19 -44.5t24.5 -46.5t87.5 -41.5q123 -45 123 -144
q0 -71 -44 -112t-117 -41q-77 0 -125 40zM259 703h117l-123 -146h-63z" />
    <glyph glyph-name="Scircumflex" unicode="&#x15c;" horiz-adv-x="514" 
d="M158.5 17.5q-48.5 25.5 -79.5 69.5t-40 96l72 45q37 -155 155 -155q51 0 83 30.5t32 88.5q0 38 -20 65t-50 45t-85 44q-68 33 -107.5 77.5t-39.5 113.5q0 49 23 88t63 61t90 22q69 0 112 -29.5t67 -84.5l-71 -45q-32 78 -108 78q-41 0 -66 -25t-25 -60t19 -60t47.5 -42
t77.5 -39q77 -35 119 -81.5t42 -123.5q0 -61 -26.5 -107t-73 -71.5t-104.5 -25.5t-106.5 25.5zM241 907h26l143 -151h-85l-71 75l-70 -75h-85z" />
    <glyph glyph-name="scircumflex" unicode="&#x15d;" horiz-adv-x="435" 
d="M105 32q-48 40 -63 97l69 37q15 -48 43.5 -74t75.5 -26q37 0 59.5 19.5t22.5 56.5q0 33 -27 52t-84 40q-60 22 -92.5 55t-32.5 88q0 60 41.5 97.5t105.5 37.5q97 0 146 -79l-54 -48q-34 53 -93 53q-28 0 -47 -16.5t-19 -44.5t24.5 -46.5t87.5 -41.5q123 -45 123 -144
q0 -71 -44 -112t-117 -41q-77 0 -125 40zM209 711h26l143 -151h-85l-71 75l-70 -75h-85z" />
    <glyph glyph-name="Scedilla" unicode="&#x15e;" horiz-adv-x="514" 
d="M158.5 17.5q-48.5 25.5 -79.5 69.5t-40 96l72 45q37 -155 155 -155q51 0 83 30.5t32 88.5q0 38 -20 65t-50 45t-85 44q-68 33 -107.5 77.5t-39.5 113.5q0 49 23 88t63 61t90 22q69 0 112 -29.5t67 -84.5l-71 -45q-32 78 -108 78q-41 0 -66 -25t-25 -60t19 -60t47.5 -42
t77.5 -39q77 -35 119 -81.5t42 -123.5q0 -61 -26.5 -107t-73 -71.5t-104.5 -25.5t-106.5 25.5zM120 -189l112 129h66l-81 -171z" />
    <glyph glyph-name="scedilla" unicode="&#x15f;" horiz-adv-x="435" 
d="M105 32q-48 40 -63 97l69 37q15 -48 43.5 -74t75.5 -26q37 0 59.5 19.5t22.5 56.5q0 33 -27 52t-84 40q-60 22 -92.5 55t-32.5 88q0 60 41.5 97.5t105.5 37.5q97 0 146 -79l-54 -48q-34 53 -93 53q-28 0 -47 -16.5t-19 -44.5t24.5 -46.5t87.5 -41.5q123 -45 123 -144
q0 -71 -44 -112t-117 -41q-77 0 -125 40zM84 -189l112 129h66l-81 -171z" />
    <glyph glyph-name="Scaron" unicode="&#x160;" horiz-adv-x="514" 
d="M158.5 17.5q-48.5 25.5 -79.5 69.5t-40 96l72 45q37 -155 155 -155q51 0 83 30.5t32 88.5q0 38 -20 65t-50 45t-85 44q-68 33 -107.5 77.5t-39.5 113.5q0 49 23 88t63 61t90 22q69 0 112 -29.5t67 -84.5l-71 -45q-32 78 -108 78q-41 0 -66 -25t-25 -60t19 -60t47.5 -42
t77.5 -39q77 -35 119 -81.5t42 -123.5q0 -61 -26.5 -107t-73 -71.5t-104.5 -25.5t-106.5 25.5zM99 907h85l70 -75l71 75h85l-143 -151h-26z" />
    <glyph glyph-name="scaron" unicode="&#x161;" horiz-adv-x="435" 
d="M105 32q-48 40 -63 97l69 37q15 -48 43.5 -74t75.5 -26q37 0 59.5 19.5t22.5 56.5q0 33 -27 52t-84 40q-60 22 -92.5 55t-32.5 88q0 60 41.5 97.5t105.5 37.5q97 0 146 -79l-54 -48q-34 53 -93 53q-28 0 -47 -16.5t-19 -44.5t24.5 -46.5t87.5 -41.5q123 -45 123 -144
q0 -71 -44 -112t-117 -41q-77 0 -125 40zM67 711h85l70 -75l71 75h85l-143 -151h-26z" />
    <glyph glyph-name="uni0162" unicode="&#x162;" horiz-adv-x="552" 
d="M233 619h-205v81h496v-81h-205v-619h-86v619zM132 -189l112 129h66l-81 -171z" />
    <glyph glyph-name="uni0163" unicode="&#x163;" horiz-adv-x="352" 
d="M135 32.5q-39 40.5 -39 121.5v276h-85v74h85v151l83 53v-204h135v-74h-135v-282q0 -82 70 -82q34 0 58 14l21 -70q-36 -18 -86 -18q-68 0 -107 40.5zM82 -189l112 129h66l-81 -171z" />
    <glyph glyph-name="Tcaron" unicode="&#x164;" horiz-adv-x="552" 
d="M233 619h-205v81h496v-81h-205v-619h-86v619zM120 907h85l70 -75l71 75h85l-143 -151h-26z" />
    <glyph glyph-name="tcaron" unicode="&#x165;" horiz-adv-x="352" 
d="M135 32.5q-39 40.5 -39 121.5v276h-85v74h85v151l83 53v-204h135v-74h-135v-282q0 -82 70 -82q34 0 58 14l21 -70q-36 -18 -86 -18q-68 0 -107 40.5zM288 714h98l-71 -172h-55z" />
    <glyph glyph-name="Tbar" unicode="&#x166;" horiz-adv-x="552" 
d="M233 619h-205v81h496v-81h-205v-619h-86v619zM81.5518 388h390.448v-76h-390.448v76z" />
    <glyph glyph-name="tbar" unicode="&#x167;" horiz-adv-x="352" 
d="M135 32.5q-39 40.5 -39 121.5v276h-85v74h85v151l83 53v-204h135v-74h-135v-282q0 -82 70 -82q34 0 58 14l21 -70q-36 -18 -86 -18q-68 0 -107 40.5zM17 313h282v-68h-282v68z" />
    <glyph glyph-name="Utilde" unicode="&#x168;" horiz-adv-x="646" 
d="M197 19.5q-56 27.5 -88.5 83t-32.5 135.5v462h87v-467q0 -72 41 -116t119 -44t119 44t41 116v467h87v-462q0 -80 -33 -135.5t-89 -83t-125 -27.5q-70 0 -126 27.5zM146 816q18 33 47 54t60 21q24 0 41 -6t37 -17q18 -10 29 -14t25 -4q33 0 62 41l52 -42
q-18 -33 -46.5 -54t-60.5 -21q-24 0 -40 6t-37 17q-16 9 -27.5 13.5t-26.5 4.5q-33 0 -63 -41z" />
    <glyph glyph-name="utilde" unicode="&#x169;" horiz-adv-x="555" 
d="M117 34q-42 42 -42 119v351h83v-333q0 -52 23.5 -78.5t68.5 -26.5q41 0 75 27t53.5 78t19.5 119v214h82v-504h-82v97q-27 -48 -71.5 -76.5t-96.5 -28.5q-71 0 -113 42zM101 620q18 33 47 54t60 21q24 0 41 -6t37 -17q18 -10 29 -14t25 -4q33 0 62 41l52 -42
q-18 -33 -46.5 -54t-60.5 -21q-24 0 -40 6t-37 17q-16 9 -27.5 13.5t-26.5 4.5q-33 0 -63 -41z" />
    <glyph glyph-name="Umacron" unicode="&#x16a;" horiz-adv-x="646" 
d="M197 19.5q-56 27.5 -88.5 83t-32.5 135.5v462h87v-467q0 -72 41 -116t119 -44t119 44t41 116v467h87v-462q0 -80 -33 -135.5t-89 -83t-125 -27.5q-70 0 -126 27.5zM197 866h250v-69h-250v69z" />
    <glyph glyph-name="umacron" unicode="&#x16b;" horiz-adv-x="555" 
d="M117 34q-42 42 -42 119v351h83v-333q0 -52 23.5 -78.5t68.5 -26.5q41 0 75 27t53.5 78t19.5 119v214h82v-504h-82v97q-27 -48 -71.5 -76.5t-96.5 -28.5q-71 0 -113 42zM152 670h250v-69h-250v69z" />
    <glyph glyph-name="Ubreve" unicode="&#x16c;" horiz-adv-x="646" 
d="M197 19.5q-56 27.5 -88.5 83t-32.5 135.5v462h87v-467q0 -72 41 -116t119 -44t119 44t41 116v467h87v-462q0 -80 -33 -135.5t-89 -83t-125 -27.5q-70 0 -126 27.5zM246 818q-30 31 -30 78h64q0 -22 12 -35.5t33 -13.5q22 0 34 13.5t12 35.5h64q0 -48 -29.5 -78.5
t-80.5 -30.5q-49 0 -79 31z" />
    <glyph glyph-name="ubreve" unicode="&#x16d;" horiz-adv-x="555" 
d="M117 34q-42 42 -42 119v351h83v-333q0 -52 23.5 -78.5t68.5 -26.5q41 0 75 27t53.5 78t19.5 119v214h82v-504h-82v97q-27 -48 -71.5 -76.5t-96.5 -28.5q-71 0 -113 42zM201 622q-30 31 -30 78h64q0 -22 12 -35.5t33 -13.5q22 0 34 13.5t12 35.5h64q0 -48 -29.5 -78.5
t-80.5 -30.5q-49 0 -79 31z" />
    <glyph glyph-name="Uring" unicode="&#x16e;" horiz-adv-x="646" 
d="M197 19.5q-56 27.5 -88.5 83t-32.5 135.5v462h87v-467q0 -72 41 -116t119 -44t119 44t41 116v467h87v-462q0 -80 -33 -135.5t-89 -83t-125 -27.5q-70 0 -126 27.5zM251.5 781q-28.5 28 -28.5 69q0 42 28.5 70.5t71.5 28.5t71.5 -28.5t28.5 -70.5q0 -41 -28.5 -69
t-71.5 -28t-71.5 28zM355 818q13 13 13 32q0 20 -13 33.5t-32 13.5t-32 -13.5t-13 -33.5q0 -19 12.5 -32t32.5 -13q19 0 32 13z" />
    <glyph glyph-name="uring" unicode="&#x16f;" horiz-adv-x="555" 
d="M117 34q-42 42 -42 119v351h83v-333q0 -52 23.5 -78.5t68.5 -26.5q41 0 75 27t53.5 78t19.5 119v214h82v-504h-82v97q-27 -48 -71.5 -76.5t-96.5 -28.5q-71 0 -113 42zM206.5 585q-28.5 28 -28.5 69q0 42 28.5 70.5t71.5 28.5t71.5 -28.5t28.5 -70.5q0 -41 -28.5 -69
t-71.5 -28t-71.5 28zM310.5 622q12.5 13 12.5 32q0 20 -13 33.5t-32 13.5t-32 -13.5t-13 -33.5q0 -19 13 -32t32 -13q20 0 32.5 13z" />
    <glyph glyph-name="Uhungarumlaut" unicode="&#x170;" horiz-adv-x="646" 
d="M197 19.5q-56 27.5 -88.5 83t-32.5 135.5v462h87v-467q0 -72 41 -116t119 -44t119 44t41 116v467h87v-462q0 -80 -33 -135.5t-89 -83t-125 -27.5q-70 0 -126 27.5zM273 899h117l-122 -143h-63zM441 899h118l-122 -143h-64z" />
    <glyph glyph-name="uhungarumlaut" unicode="&#x171;" horiz-adv-x="555" 
d="M117 34q-42 42 -42 119v351h83v-333q0 -52 23.5 -78.5t68.5 -26.5q41 0 75 27t53.5 78t19.5 119v214h82v-504h-82v97q-27 -48 -71.5 -76.5t-96.5 -28.5q-71 0 -113 42zM208 703h117l-122 -143h-63zM376 703h118l-122 -143h-64z" />
    <glyph glyph-name="Uogonek" unicode="&#x172;" horiz-adv-x="646" 
d="M197 19.5q-56 27.5 -88.5 83t-32.5 135.5v462h87v-467q0 -72 41 -116t119 -44t119 44t41 116v467h87v-462q0 -80 -33 -135.5t-89 -83t-125 -27.5q-70 0 -126 27.5zM294 -152q-23 22 -23 59q0 26 14 51t38 42h70q-29 -26 -43 -44.5t-14 -34.5q0 -15 8.5 -23t22.5 -8t28 9
l17 -59q-13 -8 -25.5 -11t-30.5 -3q-39 0 -62 22z" />
    <glyph glyph-name="uogonek" unicode="&#x173;" horiz-adv-x="555" 
d="M117 34q-42 42 -42 119v351h83v-333q0 -52 23.5 -78.5t68.5 -26.5q41 0 75 27t53.5 78t19.5 119v214h82v-504h-82v97q-27 -48 -71.5 -76.5t-96.5 -28.5q-71 0 -113 42zM381 -152q-23 22 -23 59q0 26 14 51t38 42h70q-29 -26 -43 -44.5t-14 -34.5q0 -15 8.5 -23t22.5 -8
t28 9l17 -59q-13 -8 -25.5 -11t-30.5 -3q-39 0 -62 22z" />
    <glyph glyph-name="Wcircumflex" unicode="&#x174;" horiz-adv-x="874" 
d="M11 700h92l144 -570l152 496h76l151 -496l145 570h91l-189 -700h-88l-149 488l-147 -488h-89zM423 907h26l143 -151h-85l-71 75l-70 -75h-85z" />
    <glyph glyph-name="wcircumflex" unicode="&#x175;" horiz-adv-x="691" 
d="M13 504h85l108 -393l100 393h79l99 -393l109 393h85l-155 -504h-78l-100 384l-99 -384h-79zM331 711h26l143 -151h-85l-71 75l-70 -75h-85z" />
    <glyph glyph-name="Ycircumflex" unicode="&#x176;" horiz-adv-x="525" 
d="M219 302l-208 398h98l154 -312l154 312h97l-208 -398v-302h-87v302zM249 907h26l143 -151h-85l-71 75l-70 -75h-85z" />
    <glyph glyph-name="ycircumflex" unicode="&#x177;" horiz-adv-x="458" 
d="M192 12l-182 492h85l139 -378l130 378h84l-253 -708h-81zM215 711h26l143 -151h-85l-71 75l-70 -75h-85z" />
    <glyph glyph-name="Ydieresis" unicode="&#x178;" horiz-adv-x="525" 
d="M219 302l-208 398h98l154 -312l154 312h97l-208 -398v-302h-87v302zM135.5 797q-15.5 16 -15.5 40t16 40.5t40 16.5t40 -16.5t16 -40.5t-16 -40t-40 -16q-25 0 -40.5 16zM307 797q-16 16 -16 40t16 40.5t39 16.5q25 0 41 -16.5t16 -40.5t-16 -40t-41 -16q-23 0 -39 16z
" />
    <glyph glyph-name="Zacute" unicode="&#x179;" horiz-adv-x="544" 
d="M41 41l336 578h-323v81h440v-41l-332 -578h341v-81h-462v41zM310 899h117l-123 -146h-63z" />
    <glyph glyph-name="zacute" unicode="&#x17a;" horiz-adv-x="436" 
d="M34 36l244 394h-231v74h337v-39l-242 -391h254v-74h-362v36zM252 703h117l-123 -146h-63z" />
    <glyph glyph-name="Zdotaccent" unicode="&#x17b;" horiz-adv-x="544" 
d="M41 41l336 578h-323v81h440v-41l-332 -578h341v-81h-462v41zM231 802.5q-17 17.5 -17 42.5q0 26 17 43t43 17t43.5 -17t17.5 -43t-17.5 -43t-43.5 -17t-43 17.5z" />
    <glyph glyph-name="zdotaccent" unicode="&#x17c;" horiz-adv-x="436" 
d="M34 36l244 394h-231v74h337v-39l-242 -391h254v-74h-362v36zM173.5 606.5q-17.5 17.5 -17.5 42.5q0 26 17.5 43t42.5 17q26 0 43.5 -17t17.5 -43t-17.5 -43t-43.5 -17q-25 0 -42.5 17.5z" />
    <glyph glyph-name="Zcaron" unicode="&#x17d;" horiz-adv-x="544" 
d="M41 41l336 578h-323v81h440v-41l-332 -578h341v-81h-462v41zM118 907h85l70 -75l71 75h85l-143 -151h-26z" />
    <glyph glyph-name="zcaron" unicode="&#x17e;" horiz-adv-x="436" 
d="M34 36l244 394h-231v74h337v-39l-242 -391h254v-74h-362v36zM60 711h85l70 -75l71 75h85l-143 -151h-26z" />
    <glyph glyph-name="florin" unicode="&#x192;" horiz-adv-x="474" 
d="M-45 -207.5q-20 4.5 -32 10.5l32 71q24 -12 52 -12q41 0 64 22t32 68l93 478h-87l15 74h87l6 30q17 91 66 132.5t127 41.5q21 0 40 -4.5t30 -10.5l-31 -71q-13 6 -24.5 9t-27.5 3q-78 0 -97 -90l-7 -40h117l-14 -74h-118l-91 -468q-18 -92 -65.5 -133t-124.5 -41
q-22 0 -42 4.5z" />
    <glyph glyph-name="uni01B5" unicode="&#x1b5;" horiz-adv-x="544" 
d="M503 81v-81h-462v41l158 272h-107v74h150l135 232h-323v81h440v-41l-156 -272h114v-74h-157l-133 -232h341z" />
    <glyph glyph-name="uni01B6" unicode="&#x1b6;" horiz-adv-x="436" 
d="M34 36l120 194h-93v68h135l82 132h-231v74h337v-39l-104 -167h83v-68h-124l-97 -156h254v-74h-362v36z" />
    <glyph glyph-name="Aringacute" unicode="&#x1fa;" horiz-adv-x="600" 
d="M259 700h82l247 -700h-91l-64 188h-266l-64 -188h-92zM407 269l-107 314l-107 -314h214zM228.5 781q-28.5 28 -28.5 69q0 42 28.5 70.5t71.5 28.5t71.5 -28.5t28.5 -70.5q0 -41 -28.5 -69t-71.5 -28t-71.5 28zM332 818q13 13 13 32q0 20 -13 33.5t-32 13.5t-32 -13.5
t-13 -33.5q0 -19 12.5 -32t32.5 -13q19 0 32 13zM336 1119h117l-123 -146h-63z" />
    <glyph glyph-name="aringacute" unicode="&#x1fb;" horiz-adv-x="505" 
d="M92 30.5q-44 38.5 -44 114.5q0 80 59.5 122.5t163.5 42.5h88v22q0 55 -29.5 80.5t-77.5 25.5q-83 0 -110 -82l-74 17q10 63 61.5 101t122.5 38q85 0 137 -49.5t52 -139.5v-323h-65l-15 73q-52 -81 -157 -81q-68 0 -112 38.5zM285 82.5q32 16.5 53 52t21 88.5v16h-85
q-70 0 -105 -24t-35 -69q0 -38 22.5 -59t62.5 -21q34 0 66 16.5zM180.5 585q-28.5 28 -28.5 69q0 42 28.5 70.5t71.5 28.5t71.5 -28.5t28.5 -70.5q0 -41 -28.5 -69t-71.5 -28t-71.5 28zM284.5 622q12.5 13 12.5 32q0 20 -13 33.5t-32 13.5t-32 -13.5t-13 -33.5q0 -19 13 -32
t32 -13q20 0 32.5 13zM288 938h117l-123 -146h-63z" />
    <glyph glyph-name="AEacute" unicode="&#x1fc;" horiz-adv-x="836" 
d="M318 700h454v-81h-321v-206h261v-80h-261v-252h331v-81h-417v188h-181l-81 -188h-92zM365 269v314h-12l-135 -314h147zM597 899h117l-123 -146h-63z" />
    <glyph glyph-name="aeacute" unicode="&#x1fd;" horiz-adv-x="860" 
d="M92 30.5q-44 38.5 -44 114.5q0 80 60 122.5t165 42.5h86v22q0 55 -29 80.5t-78 25.5q-42 0 -70 -21.5t-40 -60.5l-74 17q10 63 61 101t123 38q55 0 98.5 -22t65.5 -63q30 40 74 62.5t98 22.5q69 0 120.5 -32t78.5 -86t27 -120v-35h-369q1 -76 39.5 -124.5t106.5 -48.5
q51 0 85 23.5t58 71.5l71 -27q-36 -74 -88 -108t-129 -34q-68 0 -119 32.5t-77 87.5q-28 -62 -76.5 -91t-111.5 -29q-68 0 -112 38.5zM729 310q-9 59 -45 93.5t-96 34.5q-55 0 -92 -36t-48 -92h281zM283.5 82.5q32.5 16.5 54 52t21.5 88.5v16h-85q-70 0 -105 -24t-35 -69
q0 -38 22 -59t61 -21q34 0 66.5 16.5zM457 703h117l-123 -146h-63z" />
    <glyph glyph-name="Scommaaccent" unicode="&#x218;" horiz-adv-x="514" 
d="M158.5 17.5q-48.5 25.5 -79.5 69.5t-40 96l72 45q37 -155 155 -155q51 0 83 30.5t32 88.5q0 38 -20 65t-50 45t-85 44q-68 33 -107.5 77.5t-39.5 113.5q0 49 23 88t63 61t90 22q69 0 112 -29.5t67 -84.5l-71 -45q-32 78 -108 78q-41 0 -66 -25t-25 -60t19 -60t47.5 -42
t77.5 -39q77 -35 119 -81.5t42 -123.5q0 -61 -26.5 -107t-73 -71.5t-104.5 -25.5t-106.5 25.5zM210 -52h109l-104 -172h-47z" />
    <glyph glyph-name="scommaaccent" unicode="&#x219;" horiz-adv-x="435" 
d="M105 32q-48 40 -63 97l69 37q15 -48 43.5 -74t75.5 -26q37 0 59.5 19.5t22.5 56.5q0 33 -27 52t-84 40q-60 22 -92.5 55t-32.5 88q0 60 41.5 97.5t105.5 37.5q97 0 146 -79l-54 -48q-34 53 -93 53q-28 0 -47 -16.5t-19 -44.5t24.5 -46.5t87.5 -41.5q123 -45 123 -144
q0 -71 -44 -112t-117 -41q-77 0 -125 40zM174 -52h109l-104 -172h-47z" />
    <glyph glyph-name="uni021A" unicode="&#x21a;" horiz-adv-x="552" 
d="M233 619h-205v81h496v-81h-205v-619h-86v619zM222 -52h109l-104 -172h-47z" />
    <glyph glyph-name="uni021B" unicode="&#x21b;" horiz-adv-x="352" 
d="M135 32.5q-39 40.5 -39 121.5v276h-85v74h85v151l83 53v-204h135v-74h-135v-282q0 -82 70 -82q34 0 58 14l21 -70q-36 -18 -86 -18q-68 0 -107 40.5zM172 -52h109l-104 -172h-47z" />
    <glyph glyph-name="uni0237" unicode="&#x237;" horiz-adv-x="233" 
d="M-15 -137q47 13 68.5 37.5t21.5 76.5v527h83v-528q0 -83 -38.5 -128t-114.5 -60z" />
    <glyph glyph-name="circumflex" unicode="&#x2c6;" horiz-adv-x="389" 
d="M181 711h26l143 -151h-85l-71 75l-70 -75h-85z" />
    <glyph glyph-name="caron" unicode="&#x2c7;" horiz-adv-x="389" 
d="M39 711h85l70 -75l71 75h85l-143 -151h-26z" />
    <glyph glyph-name="uni02C9" unicode="&#x2c9;" horiz-adv-x="250" 
d="M0 670h250v-69h-250v69z" />
    <glyph glyph-name="breve" unicode="&#x2d8;" horiz-adv-x="267" 
d="M54 622q-30 31 -30 78h64q0 -22 12 -35.5t33 -13.5q22 0 34 13.5t12 35.5h64q0 -48 -29.5 -78.5t-80.5 -30.5q-49 0 -79 31z" />
    <glyph glyph-name="dotaccent" unicode="&#x2d9;" horiz-adv-x="262" 
d="M88.5 606.5q-17.5 17.5 -17.5 42.5q0 26 17.5 43t42.5 17q26 0 43.5 -17t17.5 -43t-17.5 -43t-43.5 -17q-25 0 -42.5 17.5z" />
    <glyph glyph-name="ring" unicode="&#x2da;" horiz-adv-x="233" 
d="M45.5 585q-28.5 28 -28.5 69q0 42 28.5 70.5t71.5 28.5t71.5 -28.5t28.5 -70.5q0 -41 -28.5 -69t-71.5 -28t-71.5 28zM149.5 622q12.5 13 12.5 32q0 20 -13 33.5t-32 13.5t-32 -13.5t-13 -33.5q0 -19 13 -32t32 -13q20 0 32.5 13z" />
    <glyph glyph-name="ogonek" unicode="&#x2db;" horiz-adv-x="215" 
d="M54 -152q-23 22 -23 59q0 26 14 51t38 42h70q-29 -26 -43 -44.5t-14 -34.5q0 -15 8.5 -23t22.5 -8t28 9l17 -59q-13 -8 -25.5 -11t-30.5 -3q-39 0 -62 22z" />
    <glyph glyph-name="tilde" unicode="&#x2dc;" horiz-adv-x="389" 
d="M18 620q18 33 47 54t60 21q24 0 41 -6t37 -17q18 -10 29 -14t25 -4q33 0 62 41l52 -42q-18 -33 -46.5 -54t-60.5 -21q-24 0 -40 6t-37 17q-16 9 -27.5 13.5t-26.5 4.5q-33 0 -63 -41z" />
    <glyph glyph-name="hungarumlaut" unicode="&#x2dd;" horiz-adv-x="394" 
d="M89 703h117l-122 -143h-63zM257 703h118l-122 -143h-64z" />
    <glyph glyph-name="gravecomb" unicode="&#x300;" horiz-adv-x="0" 
d="M-187 703h118l69 -146h-63z" />
    <glyph glyph-name="acutecomb" unicode="&#x301;" horiz-adv-x="0" 
d="M-117 703h117l-123 -146h-63z" />
    <glyph glyph-name="uni0302" unicode="&#x302;" horiz-adv-x="0" 
d="M-169 711h26l143 -151h-85l-71 75l-70 -75h-85z" />
    <glyph glyph-name="tildecomb" unicode="&#x303;" horiz-adv-x="0" 
d="M-353 620q18 33 47 54t60 21q24 0 41 -6t37 -17q18 -10 29 -14t25 -4q33 0 62 41l52 -42q-18 -33 -46.5 -54t-60.5 -21q-24 0 -40 6t-37 17q-16 9 -27.5 13.5t-26.5 4.5q-33 0 -63 -41z" />
    <glyph glyph-name="uni0304" unicode="&#x304;" horiz-adv-x="0" 
d="M-250 670h250v-69h-250v69z" />
    <glyph glyph-name="uni0306" unicode="&#x306;" horiz-adv-x="0" 
d="M-189 622q-30 31 -30 78h64q0 -22 12 -35.5t33 -13.5q22 0 34 13.5t12 35.5h64q0 -48 -29.5 -78.5t-80.5 -30.5q-49 0 -79 31z" />
    <glyph glyph-name="uni0307" unicode="&#x307;" horiz-adv-x="0" 
d="M-103.5 606.5q-17.5 17.5 -17.5 42.5q0 26 17.5 43t42.5 17q26 0 43.5 -17t17.5 -43t-17.5 -43t-43.5 -17q-25 0 -42.5 17.5z" />
    <glyph glyph-name="uni0308" unicode="&#x308;" horiz-adv-x="0" 
d="M-267.5 601q-15.5 16 -15.5 40t16 40.5t40 16.5t40 -16.5t16 -40.5t-16 -40t-40 -16q-25 0 -40.5 16zM-96 601q-16 16 -16 40t16 40.5t39 16.5q25 0 41 -16.5t16 -40.5t-16 -40t-41 -16q-23 0 -39 16z" />
    <glyph glyph-name="uni030A" unicode="&#x30a;" horiz-adv-x="0" 
d="M-171.5 585q-28.5 28 -28.5 69q0 42 28.5 70.5t71.5 28.5t71.5 -28.5t28.5 -70.5q0 -41 -28.5 -69t-71.5 -28t-71.5 28zM-67.5 622q12.5 13 12.5 32q0 20 -13 33.5t-32 13.5t-32 -13.5t-13 -33.5q0 -19 13 -32t32 -13q20 0 32.5 13z" />
    <glyph glyph-name="uni030B" unicode="&#x30b;" horiz-adv-x="0" 
d="M-286 703h117l-122 -143h-63zM-118 703h118l-122 -143h-64z" />
    <glyph glyph-name="uni030C" unicode="&#x30c;" horiz-adv-x="0" 
d="M-311 711h85l70 -75l71 75h85l-143 -151h-26z" />
    <glyph glyph-name="uni0312" unicode="&#x312;" horiz-adv-x="0" 
d="M-57 738h57l-42 -152h-102z" />
    <glyph glyph-name="uni0326" unicode="&#x326;" horiz-adv-x="0" 
d="M-109 -52h109l-104 -172h-47z" />
    <glyph glyph-name="uni0327" unicode="&#x327;" horiz-adv-x="0" 
d="M-178 -189l112 129h66l-81 -171z" />
    <glyph glyph-name="uni0328" unicode="&#x328;" horiz-adv-x="0" 
d="M-118 -152q-23 22 -23 59q0 26 14 51t38 42h70q-29 -26 -43 -44.5t-14 -34.5q0 -15 8.5 -23t22.5 -8t28 9l17 -59q-13 -8 -25.5 -11t-30.5 -3q-39 0 -62 22z" />
    <glyph glyph-name="uni0335" unicode="&#x335;" horiz-adv-x="0" 
d="M-282 384h282v-68h-282v68z" />
    <glyph glyph-name="uni0336" unicode="&#x336;" horiz-adv-x="0" 
d="M-640 387h640v-74h-640v74z" />
    <glyph glyph-name="uni0337" unicode="&#x337;" horiz-adv-x="0" 
d="M-289 326l253 140l36 -63l-254 -140z" />
    <glyph glyph-name="uni0338" unicode="&#x338;" horiz-adv-x="0" 
d="M-490 0l431 548l59 -44l-431 -548z" />
    <glyph glyph-name="uni037E" unicode="&#x37e;" horiz-adv-x="241" 
d="M95.5 375.5q-17.5 17.5 -17.5 43.5q0 27 17.5 44.5t43.5 17.5q27 0 44.5 -17.5t17.5 -44.5q0 -26 -17.5 -43.5t-44.5 -17.5q-26 0 -43.5 17.5zM83 104h117l-111 -200h-61z" />
    <glyph glyph-name="tonos" unicode="&#x384;" horiz-adv-x="281" 
d="M105 703h116l-97 -143h-64z" />
    <glyph glyph-name="dieresistonos" unicode="&#x385;" horiz-adv-x="365" 
d="M162 703h93l-86 -143h-51zM32.5 598q-13.5 13 -13.5 32q0 20 13.5 33.5t32.5 13.5q21 0 34 -13.5t13 -33.5q0 -19 -13 -32t-34 -13q-19 0 -32.5 13zM266.5 598q-13.5 13 -13.5 32t13.5 33t32.5 14q20 0 33.5 -13.5t13.5 -33.5q0 -19 -13.5 -32t-33.5 -13q-19 0 -32.5 13z
" />
    <glyph glyph-name="Alphatonos" unicode="&#x386;" horiz-adv-x="615" 
d="M274 700h82l247 -700h-91l-64 188h-266l-64 -188h-92zM422 269l-107 314l-107 -314h214zM45 700h116l-97 -143h-64z" />
    <glyph glyph-name="anoteleia" unicode="&#x387;" horiz-adv-x="243" 
d="M77.5 306.5q-17.5 17.5 -17.5 43.5q0 27 17.5 44.5t43.5 17.5q27 0 44.5 -17.5t17.5 -44.5q0 -26 -17.5 -43.5t-44.5 -17.5q-26 0 -43.5 17.5z" />
    <glyph glyph-name="Epsilontonos" unicode="&#x388;" horiz-adv-x="681" 
d="M210 700h407v-81h-320v-206h260v-80h-260v-252h330v-81h-417v700zM45 700h116l-97 -143h-64z" />
    <glyph glyph-name="Etatonos" unicode="&#x389;" horiz-adv-x="801" 
d="M210 700h87v-286h331v286h87v-700h-87v333h-331v-333h-87v700zM45 700h116l-97 -143h-64z" />
    <glyph glyph-name="Iotatonos" unicode="&#x38a;" horiz-adv-x="383" 
d="M210 700h87v-700h-87v700zM45 700h116l-97 -143h-64z" />
    <glyph glyph-name="Omicrontonos" unicode="&#x38c;" horiz-adv-x="793" 
d="M271 34.5q-72 42.5 -114.5 123.5t-42.5 192t42.5 192t114.5 123.5t158 42.5q85 0 157 -42.5t114.5 -123.5t42.5 -192t-42.5 -192t-114.5 -123.5t-157 -42.5q-86 0 -158 42.5zM543 104q51 31 81 93.5t30 152.5t-30 152.5t-81 93.5t-114 31t-114 -31t-81 -93.5t-30 -152.5
t30 -152.5t81 -93.5t114 -31t114 31zM45 700h116l-97 -143h-64z" />
    <glyph glyph-name="Upsilontonos" unicode="&#x38e;" horiz-adv-x="711" 
d="M405 302l-208 398h98l154 -312l154 312h97l-208 -398v-302h-87v302zM45 700h116l-97 -143h-64z" />
    <glyph glyph-name="Omegatonos" unicode="&#x38f;" horiz-adv-x="761" 
d="M119 78h154q-72 68 -116.5 145t-44.5 175q0 89 37.5 159.5t107.5 110.5t164 40q93 0 163 -40t107.5 -110.5t37.5 -159.5q0 -98 -44.5 -175t-116.5 -145h154v-78h-253v78q87 73 129 147.5t42 168.5q0 70 -27.5 123t-77.5 81.5t-114 28.5q-65 0 -114.5 -28.5t-77 -81.5
t-27.5 -123q0 -94 42 -168.5t128 -147.5v-78h-253v78zM45 700h116l-97 -143h-64z" />
    <glyph glyph-name="iotadieresistonos" unicode="&#x390;" horiz-adv-x="233" 
d="M75 504h83v-504h-83v504zM95 703h93l-86 -143h-51zM-34.5 598q-13.5 13 -13.5 32q0 20 13.5 33.5t32.5 13.5q21 0 34 -13.5t13 -33.5q0 -19 -13 -32t-34 -13q-19 0 -32.5 13zM199.5 598q-13.5 13 -13.5 32t13.5 33t32.5 14q20 0 33.5 -13.5t13.5 -33.5q0 -19 -13.5 -32
t-33.5 -13q-19 0 -32.5 13z" />
    <glyph glyph-name="Alpha" unicode="&#x391;" horiz-adv-x="600" 
d="M259 700h82l247 -700h-91l-64 188h-266l-64 -188h-92zM407 269l-107 314l-107 -314h214z" />
    <glyph glyph-name="Beta" unicode="&#x392;" horiz-adv-x="609" 
d="M87 700h235q92 0 144 -47.5t52 -134.5q0 -50 -22.5 -84t-58.5 -51q54 -21 85.5 -65t31.5 -113q0 -95 -59 -150t-161 -55h-247v700zM320 412q112 0 112 103q0 104 -113 104h-145v-207h146zM322 81q72 0 108 30t36 95t-36 95t-108 30h-148v-250h148z" />
    <glyph glyph-name="Gamma" unicode="&#x393;" horiz-adv-x="529" 
d="M87 700h414v-81h-327v-619h-87v700z" />
    <glyph glyph-name="uni0394" unicode="&#x394;" horiz-adv-x="600" 
d="M588 0h-577l248 700h82zM470 81l-170 502l-170 -502h340z" />
    <glyph glyph-name="Epsilon" unicode="&#x395;" horiz-adv-x="558" 
d="M87 700h407v-81h-320v-206h260v-80h-260v-252h330v-81h-417v700z" />
    <glyph glyph-name="Zeta" unicode="&#x396;" horiz-adv-x="544" 
d="M41 41l336 578h-323v81h440v-41l-332 -578h341v-81h-462v41z" />
    <glyph glyph-name="Eta" unicode="&#x397;" horiz-adv-x="678" 
d="M87 700h87v-286h331v286h87v-700h-87v333h-331v-333h-87v700z" />
    <glyph glyph-name="Theta" unicode="&#x398;" horiz-adv-x="729" 
d="M207 34.5q-72 42.5 -114.5 123.5t-42.5 192t42.5 192t114.5 123.5t158 42.5q85 0 157 -42.5t114.5 -123.5t42.5 -192t-42.5 -192t-114.5 -123.5t-157 -42.5q-86 0 -158 42.5zM479 104q51 31 81 93.5t30 152.5t-30 152.5t-81 93.5t-114 31t-114 -31t-81 -93.5t-30 -152.5
t30 -152.5t81 -93.5t114 -31t114 31zM240 385h250v-70h-250v70z" />
    <glyph glyph-name="Iota" unicode="&#x399;" horiz-adv-x="260" 
d="M87 700h87v-700h-87v700z" />
    <glyph glyph-name="Kappa" unicode="&#x39a;" horiz-adv-x="582" 
d="M87 700h87v-286l262 286h108l-286 -314l310 -386h-109l-285 359v-359h-87v700z" />
    <glyph glyph-name="Lambda" unicode="&#x39b;" horiz-adv-x="600" 
d="M259 700h82l247 -700h-91l-197 583l-197 -583h-92z" />
    <glyph glyph-name="Mu" unicode="&#x39c;" horiz-adv-x="766" 
d="M87 700h103l194 -498l194 498h102v-700h-86v527l-181 -463h-59l-180 463v-527h-87v700z" />
    <glyph glyph-name="Nu" unicode="&#x39d;" horiz-adv-x="674" 
d="M87 700h97l318 -552v552h86v-700h-97l-317 550v-550h-87v700z" />
    <glyph glyph-name="Xi" unicode="&#x39e;" horiz-adv-x="546" 
d="M61 700h425v-81h-425v81zM112 413h322v-80h-322v80zM54 81h438v-81h-438v81z" />
    <glyph glyph-name="Omicron" unicode="&#x39f;" horiz-adv-x="729" 
d="M207 34.5q-72 42.5 -114.5 123.5t-42.5 192t42.5 192t114.5 123.5t158 42.5q85 0 157 -42.5t114.5 -123.5t42.5 -192t-42.5 -192t-114.5 -123.5t-157 -42.5q-86 0 -158 42.5zM479 104q51 31 81 93.5t30 152.5t-30 152.5t-81 93.5t-114 31t-114 -31t-81 -93.5t-30 -152.5
t30 -152.5t81 -93.5t114 -31t114 31z" />
    <glyph glyph-name="Pi" unicode="&#x3a0;" horiz-adv-x="661" 
d="M87 700h488v-700h-87v618h-314v-618h-87v700z" />
    <glyph glyph-name="Rho" unicode="&#x3a1;" horiz-adv-x="581" 
d="M87 700h246q99 0 153.5 -53.5t54.5 -145.5q0 -93 -54.5 -146.5t-153.5 -53.5h-159v-301h-87v700zM332 382q61 0 90 31.5t29 87.5q0 55 -29 86.5t-90 31.5h-158v-237h158z" />
    <glyph glyph-name="Sigma" unicode="&#x3a3;" horiz-adv-x="539" 
d="M55 41l206 309l-206 309v41h422v-81h-296l169 -258v-22l-169 -258h304v-81h-430v41z" />
    <glyph glyph-name="Tau" unicode="&#x3a4;" horiz-adv-x="552" 
d="M233 619h-205v81h496v-81h-205v-619h-86v619z" />
    <glyph glyph-name="Upsilon" unicode="&#x3a5;" horiz-adv-x="525" 
d="M219 302l-208 398h98l154 -312l154 312h97l-208 -398v-302h-87v302z" />
    <glyph glyph-name="Phi" unicode="&#x3a6;" horiz-adv-x="761" 
d="M337 73q-81 0 -146.5 34t-103 97t-37.5 146t37.5 146t103 97t146.5 34v73h87v-73q81 0 146.5 -34t103 -97t37.5 -146t-37.5 -146t-103 -97t-146.5 -34v-73h-87v73zM337 547q-88 0 -142.5 -52t-54.5 -145t54.5 -144.5t142.5 -51.5v393zM567.5 205.5q54.5 51.5 54.5 144.5
t-54.5 145t-143.5 52v-393q89 0 143.5 51.5z" />
    <glyph glyph-name="Chi" unicode="&#x3a7;" horiz-adv-x="572" 
d="M238 383l-183 317h95l136 -236l135 236h96l-184 -317l224 -383h-96l-175 300l-175 -300h-96z" />
    <glyph glyph-name="Psi" unicode="&#x3a8;" horiz-adv-x="736" 
d="M325 186q-79 0 -135 33t-85 91.5t-29 134.5v255h87v-255q0 -81 42.5 -129t115.5 -49h4v433h87v-433h3q73 1 115.5 49t42.5 129v255h87v-255q0 -116 -65 -187t-183 -72v-186h-87v186z" />
    <glyph glyph-name="uni03A9" unicode="&#x3a9;" horiz-adv-x="681" 
d="M39 78h154q-72 68 -116.5 145t-44.5 175q0 89 37.5 159.5t107.5 110.5t164 40q93 0 163 -40t107.5 -110.5t37.5 -159.5q0 -98 -44.5 -175t-116.5 -145h154v-78h-253v78q87 73 129 147.5t42 168.5q0 70 -27.5 123t-77.5 81.5t-114 28.5q-65 0 -114.5 -28.5t-77 -81.5
t-27.5 -123q0 -94 42 -168.5t128 -147.5v-78h-253v78z" />
    <glyph glyph-name="Iotadieresis" unicode="&#x3aa;" horiz-adv-x="260" 
d="M87 700h87v-700h-87v700zM2.5 797q-15.5 16 -15.5 40t16 40.5t40 16.5t40 -16.5t16 -40.5t-16 -40t-40 -16q-25 0 -40.5 16zM174 797q-16 16 -16 40t16 40.5t39 16.5q25 0 41 -16.5t16 -40.5t-16 -40t-41 -16q-23 0 -39 16z" />
    <glyph glyph-name="Upsilondieresis" unicode="&#x3ab;" horiz-adv-x="525" 
d="M219 302l-208 398h98l154 -312l154 312h97l-208 -398v-302h-87v302zM135.5 797q-15.5 16 -15.5 40t16 40.5t40 16.5t40 -16.5t16 -40.5t-16 -40t-40 -16q-25 0 -40.5 16zM307 797q-16 16 -16 40t16 40.5t39 16.5q25 0 41 -16.5t16 -40.5t-16 -40t-41 -16q-23 0 -39 16z
" />
    <glyph glyph-name="alphatonos" unicode="&#x3ac;" horiz-adv-x="577" 
d="M148 25.5q-50 33.5 -76 92.5t-26 134t26 134t76 92.5t121 33.5q48 0 87 -19t64 -52v63h82v-504h-82v66q-19 -30 -61 -52t-90 -22q-71 0 -121 33.5zM388 117q39 51 39 135q0 83 -39 134.5t-108 51.5t-108.5 -51.5t-39.5 -134.5t39.5 -134.5t108.5 -51.5t108 51zM293 703
h116l-97 -143h-64z" />
    <glyph glyph-name="epsilontonos" unicode="&#x3ad;" horiz-adv-x="431" 
d="M130 11.5q-40 19.5 -63 53.5t-23 78q0 47 24.5 77.5t63.5 46.5q-33 16 -50.5 45t-17.5 66q0 59 42.5 96.5t113.5 37.5q64 0 105 -31.5t51 -86.5l-71 -17q-17 65 -84 65q-36 0 -58.5 -19t-22.5 -51q0 -35 24 -55t65 -20h26v-64h-26q-48 0 -75.5 -22t-27.5 -64
q0 -37 26.5 -59.5t66.5 -22.5q80 0 99 82l75 -12q-9 -65 -55 -104t-119 -39q-49 0 -89 19.5zM227 703h116l-97 -143h-64z" />
    <glyph glyph-name="etatonos" unicode="&#x3ae;" horiz-adv-x="555" 
d="M398 333q0 52 -23.5 78.5t-69.5 26.5q-41 0 -74.5 -27t-53 -77.5t-19.5 -118.5v-215h-83v504h83v-97q27 48 71.5 76.5t95.5 28.5q71 0 113 -42t42 -119v-555h-82v537zM296 703h116l-97 -143h-64z" />
    <glyph glyph-name="iotatonos" unicode="&#x3af;" horiz-adv-x="233" 
d="M75 504h83v-504h-83v504zM125 703h116l-97 -143h-64z" />
    <glyph glyph-name="upsilondieresistonos" unicode="&#x3b0;" horiz-adv-x="553" 
d="M128 48q-54 56 -54 164v292h82v-292q0 -76 33 -111t88 -35q54 0 87 35t33 111v292h82v-292q0 -108 -54 -164t-148 -56q-95 0 -149 56zM256 703h93l-86 -143h-51zM126.5 598q-13.5 13 -13.5 32q0 20 13.5 33.5t32.5 13.5q21 0 34 -13.5t13 -33.5q0 -19 -13 -32t-34 -13
q-19 0 -32.5 13zM360.5 598q-13.5 13 -13.5 32t13.5 33t32.5 14q20 0 33.5 -13.5t13.5 -33.5q0 -19 -13.5 -32t-33.5 -13q-19 0 -32.5 13z" />
    <glyph glyph-name="alpha" unicode="&#x3b1;" horiz-adv-x="577" 
d="M148 25.5q-50 33.5 -76 92.5t-26 134t26 134t76 92.5t121 33.5q48 0 87 -19t64 -52v63h82v-504h-82v66q-19 -30 -61 -52t-90 -22q-71 0 -121 33.5zM388 117q39 51 39 135q0 83 -39 134.5t-108 51.5t-108.5 -51.5t-39.5 -134.5t39.5 -134.5t108.5 -51.5t108 51z" />
    <glyph glyph-name="beta" unicode="&#x3b2;" horiz-adv-x="546" 
d="M75 499q0 66 26 113t70.5 71.5t99.5 24.5q84 0 134.5 -49t50.5 -127q0 -51 -28 -90.5t-67 -50.5q57 -15 98 -63t41 -124q0 -65 -26.5 -113t-73 -73.5t-106.5 -25.5q-44 0 -81.5 17.5t-54.5 44.5v-258h-83v703zM385 103.5q33 37.5 33 99.5q0 70 -43 106t-113 36h-32v74h32
q53 0 83.5 29.5t30.5 80.5q0 48 -29.5 76.5t-75.5 28.5q-52 0 -82.5 -31t-30.5 -96v-298q0 -69 34.5 -106t94.5 -37q65 0 98 37.5z" />
    <glyph glyph-name="gamma" unicode="&#x3b3;" horiz-adv-x="461" 
d="M189 9l-174 495h85l131 -389l131 389h84l-175 -495v-213h-82v213z" />
    <glyph glyph-name="delta" unicode="&#x3b4;" horiz-adv-x="577" 
d="M160.5 27.5q-55.5 35.5 -85 95.5t-29.5 129q0 66 27.5 122.5t77 92t113.5 40.5l-158 121v72h369v-76h-243l179 -139q62 -49 91 -106.5t29 -126.5t-29.5 -129t-84.5 -95.5t-128 -35.5t-128.5 35.5zM373.5 92q35.5 26 53.5 68.5t18 91.5t-18 91.5t-53.5 68.5t-84.5 26
t-84.5 -26t-54 -68.5t-18.5 -91.5t18.5 -91.5t54 -68.5t84.5 -26t84.5 26z" />
    <glyph glyph-name="epsilon" unicode="&#x3b5;" horiz-adv-x="431" 
d="M130 11.5q-40 19.5 -63 53.5t-23 78q0 47 24.5 77.5t63.5 46.5q-33 16 -50.5 45t-17.5 66q0 59 42.5 96.5t113.5 37.5q64 0 105 -31.5t51 -86.5l-71 -17q-17 65 -84 65q-36 0 -58.5 -19t-22.5 -51q0 -35 24 -55t65 -20h26v-64h-26q-48 0 -75.5 -22t-27.5 -64
q0 -37 26.5 -59.5t66.5 -22.5q80 0 99 82l75 -12q-9 -65 -55 -104t-119 -39q-49 0 -89 19.5z" />
    <glyph glyph-name="zeta" unicode="&#x3b6;" horiz-adv-x="470" 
d="M193.5 -191.5q-42.5 20.5 -68.5 58.5l52 59q47 -65 110 -65q38 0 62.5 20t24.5 58q0 35 -24 56t-75 21h-45q-84 0 -138 47.5t-54 135.5q0 56 25.5 105t78.5 106l201 216h-280v74h388v-66l-246 -267q-44 -48 -63.5 -85t-19.5 -79q0 -56 33 -85t91 -29h42q79 0 125 -40.5
t46 -107.5q0 -43 -20.5 -77.5t-59.5 -55t-92 -20.5q-51 0 -93.5 20.5z" />
    <glyph glyph-name="eta" unicode="&#x3b7;" horiz-adv-x="555" 
d="M398 333q0 52 -23.5 78.5t-69.5 26.5q-41 0 -74.5 -27t-53 -77.5t-19.5 -118.5v-215h-83v504h83v-97q27 48 71.5 76.5t95.5 28.5q71 0 113 -42t42 -119v-555h-82v537z" />
    <glyph glyph-name="theta" unicode="&#x3b8;" horiz-adv-x="618" 
d="M449 664.5q59 -43.5 91 -124.5t32 -190t-32 -190t-91 -124.5t-140 -43.5t-140 43.5t-91 124.5t-32 190t32 190t91 124.5t140 43.5t140 -43.5zM185 571q-46 -63 -51 -184h351q-6 121 -52 184t-124 63t-124 -63zM433 129q46 63 52 184h-351q5 -121 51 -184t124 -63t124 63z
" />
    <glyph glyph-name="iota" unicode="&#x3b9;" horiz-adv-x="233" 
d="M75 504h83v-504h-83v504z" />
    <glyph glyph-name="kappa" unicode="&#x3ba;" horiz-adv-x="482" 
d="M75 504h83v-215l195 215h103l-213 -231l229 -273h-103l-211 256v-256h-83v504z" />
    <glyph glyph-name="lambda" unicode="&#x3bb;" horiz-adv-x="458" 
d="M192 494l-27 75q-13 37 -30.5 51.5t-45.5 14.5q-17 0 -30 -6l-18 69q30 10 56 10q97 0 135 -106l216 -602h-84l-130 378l-139 -378h-85z" />
    <glyph glyph-name="uni03BC" unicode="&#x3bc;" horiz-adv-x="555" 
d="M75 504h83v-333q0 -52 23.5 -78.5t68.5 -26.5q41 0 75 27t53.5 78t19.5 119v214h82v-504h-82v97q-25 -49 -64.5 -77t-88.5 -28q-29 0 -52 10t-35 27v-233h-83v708z" />
    <glyph glyph-name="nu" unicode="&#x3bd;" horiz-adv-x="453" 
d="M15 504h85l127 -398l126 398h85l-170 -504h-83z" />
    <glyph glyph-name="xi" unicode="&#x3be;" horiz-adv-x="472" 
d="M114 -127l51 52q29 -36 56.5 -50t58.5 -14q39 0 63.5 19.5t24.5 58.5q0 36 -24 56.5t-75 20.5h-27q-54 0 -99 23.5t-71 67.5t-26 104q0 66 33 108.5t82 62.5q-43 21 -68.5 59t-25.5 90q0 47 24.5 87.5t69.5 65t105 24.5q76 0 129 -40.5t66 -117.5l-79 -18
q-10 49 -39.5 75.5t-76.5 26.5q-51 0 -83 -29.5t-32 -78.5q0 -48 33.5 -77.5t90.5 -29.5h69v-72h-75q-59 0 -99 -34t-40 -98q0 -63 37.5 -94.5t93.5 -31.5h25q78 0 122.5 -38t44.5 -108q0 -44 -21.5 -79.5t-61 -55.5t-90.5 -20q-101 0 -166 85z" />
    <glyph glyph-name="omicron" unicode="&#x3bf;" horiz-adv-x="577" 
d="M160.5 27.5q-55.5 35.5 -85 95.5t-29.5 129t29.5 129t85 95.5t128.5 35.5t128 -35.5t84.5 -95.5t29.5 -129t-29.5 -129t-84.5 -95.5t-128 -35.5t-128.5 35.5zM373.5 92q35.5 26 53.5 68.5t18 91.5t-18 91.5t-53.5 68.5t-84.5 26t-84.5 -26t-54 -68.5t-18.5 -91.5
t18.5 -91.5t54 -68.5t84.5 -26t84.5 26z" />
    <glyph glyph-name="pi" unicode="&#x3c0;" horiz-adv-x="567" 
d="M111 431h-87v73h519v-73h-87v-431h-82v431h-181v-431h-82v431z" />
    <glyph glyph-name="rho" unicode="&#x3c1;" horiz-adv-x="577" 
d="M75 259q0 113 60.5 183t169.5 70q72 0 123 -33.5t77 -92.5t26 -134t-26 -134t-77 -92.5t-123 -33.5q-43 0 -84 19.5t-63 51.5v-267h-83v463zM407 117.5q38 51.5 38 134.5q0 84 -38 135t-106 51t-105.5 -51t-37.5 -135q0 -83 37.5 -134.5t105.5 -51.5t106 51.5z" />
    <glyph glyph-name="uni03C2" unicode="&#x3c2;" horiz-adv-x="528" 
d="M144 -165l45 67q44 -41 100 -41q42 0 66 18t24 52q0 75 -83 75h-16q-66 0 -119.5 31t-84 87t-30.5 128q0 70 26.5 129t78.5 95t126 36q158 0 211 -141l-74 -29q-21 48 -54 72t-83 24q-69 0 -107 -51t-38 -131q0 -57 23 -96.5t61 -59.5t83 -20h20q64 0 104.5 -37.5
t40.5 -106.5q0 -65 -48 -106.5t-127 -41.5q-90 0 -145 47z" />
    <glyph glyph-name="sigma" unicode="&#x3c3;" horiz-adv-x="580" 
d="M570 430h-104q32 -35 48.5 -81.5t16.5 -98.5q0 -68 -29.5 -127.5t-84.5 -95t-128 -35.5t-128.5 35.5t-85 95.5t-29.5 129t29.5 129t85 95.5t128.5 35.5q34 0 64 -8h217v-74zM373.5 92q35.5 26 53.5 68.5t18 91.5t-18 91.5t-53.5 68.5t-84.5 26t-84.5 -26t-54 -68.5
t-18.5 -91.5t18.5 -91.5t54 -68.5t84.5 -26t84.5 26z" />
    <glyph glyph-name="tau" unicode="&#x3c4;" horiz-adv-x="384" 
d="M151 430h-140v74h362v-74h-140v-430h-82v430z" />
    <glyph glyph-name="upsilon" unicode="&#x3c5;" horiz-adv-x="553" 
d="M128 48q-54 56 -54 164v292h82v-292q0 -76 33 -111t88 -35q54 0 87 35t33 111v292h82v-292q0 -108 -54 -164t-148 -56q-95 0 -149 56z" />
    <glyph glyph-name="phi" unicode="&#x3c6;" horiz-adv-x="686" 
d="M302 -8q-76 0 -134.5 34.5t-90 94t-31.5 131.5q0 71 31 129t89 93t136 38v105h82v-105q78 -3 136 -38t89 -93t31 -129q0 -72 -31.5 -131.5t-90 -94t-134.5 -34.5v-196h-82v196zM302 66v372h-5q-75 0 -120 -51.5t-45 -134.5t45 -134.5t120 -51.5h5zM389 66q75 0 120 51.5
t45 134.5t-45 134.5t-120 51.5h-5v-372h5z" />
    <glyph glyph-name="chi" unicode="&#x3c7;" horiz-adv-x="445" 
d="M178 273l-143 231h89l98 -160l99 160h89l-143 -231l169 -273h-86l-128 202l-127 -202h-86z" />
    <glyph glyph-name="psi" unicode="&#x3c8;" horiz-adv-x="714" 
d="M316 -8q-75 0 -129.5 31.5t-83 88t-28.5 130.5v262h83v-264q0 -78 43.5 -126t114.5 -48v551h82v-551q71 0 115 48t44 126v264h82v-262q0 -74 -28.5 -130.5t-83 -88t-129.5 -31.5v-196h-82v196z" />
    <glyph glyph-name="omega" unicode="&#x3c9;" horiz-adv-x="743" 
d="M132.5 16q-41.5 24 -67 74t-25.5 125q0 83 27 152t79 145l69 -48q-45 -64 -67 -123t-22 -126q0 -76 30.5 -112.5t75.5 -36.5q48 0 73 35.5t25 92.5v180h82v-180q0 -57 25 -92.5t73 -35.5q45 0 75.5 36.5t30.5 112.5q0 67 -22 126t-67 123l69 48q52 -76 79 -145t27 -152
q0 -75 -25.5 -125t-67 -74t-89.5 -24q-109 0 -149 101q-40 -101 -149 -101q-48 0 -89.5 24z" />
    <glyph glyph-name="iotadieresis" unicode="&#x3ca;" horiz-adv-x="233" 
d="M75 504h83v-504h-83v504zM-10.5 601q-15.5 16 -15.5 40t16 40.5t40 16.5t40 -16.5t16 -40.5t-16 -40t-40 -16q-25 0 -40.5 16zM161 601q-16 16 -16 40t16 40.5t39 16.5q25 0 41 -16.5t16 -40.5t-16 -40t-41 -16q-23 0 -39 16z" />
    <glyph glyph-name="upsilondieresis" unicode="&#x3cb;" horiz-adv-x="553" 
d="M128 48q-54 56 -54 164v292h82v-292q0 -76 33 -111t88 -35q54 0 87 35t33 111v292h82v-292q0 -108 -54 -164t-148 -56q-95 0 -149 56zM150.5 601q-15.5 16 -15.5 40t16 40.5t40 16.5t40 -16.5t16 -40.5t-16 -40t-40 -16q-25 0 -40.5 16zM322 601q-16 16 -16 40t16 40.5
t39 16.5q25 0 41 -16.5t16 -40.5t-16 -40t-41 -16q-23 0 -39 16z" />
    <glyph glyph-name="omicrontonos" unicode="&#x3cc;" horiz-adv-x="577" 
d="M160.5 27.5q-55.5 35.5 -85 95.5t-29.5 129t29.5 129t85 95.5t128.5 35.5t128 -35.5t84.5 -95.5t29.5 -129t-29.5 -129t-84.5 -95.5t-128 -35.5t-128.5 35.5zM373.5 92q35.5 26 53.5 68.5t18 91.5t-18 91.5t-53.5 68.5t-84.5 26t-84.5 -26t-54 -68.5t-18.5 -91.5
t18.5 -91.5t54 -68.5t84.5 -26t84.5 26zM298 703h116l-97 -143h-64z" />
    <glyph glyph-name="upsilontonos" unicode="&#x3cd;" horiz-adv-x="553" 
d="M128 48q-54 56 -54 164v292h82v-292q0 -76 33 -111t88 -35q54 0 87 35t33 111v292h82v-292q0 -108 -54 -164t-148 -56q-95 0 -149 56zM286 703h116l-97 -143h-64z" />
    <glyph glyph-name="omegatonos" unicode="&#x3ce;" horiz-adv-x="743" 
d="M132.5 16q-41.5 24 -67 74t-25.5 125q0 83 27 152t79 145l69 -48q-45 -64 -67 -123t-22 -126q0 -76 30.5 -112.5t75.5 -36.5q48 0 73 35.5t25 92.5v180h82v-180q0 -57 25 -92.5t73 -35.5q45 0 75.5 36.5t30.5 112.5q0 67 -22 126t-67 123l69 48q52 -76 79 -145t27 -152
q0 -75 -25.5 -125t-67 -74t-89.5 -24q-109 0 -149 101q-40 -101 -149 -101q-48 0 -89.5 24zM380 703h116l-97 -143h-64z" />
    <glyph glyph-name="uni0400" unicode="&#x400;" horiz-adv-x="558" 
d="M87 700h407v-81h-320v-206h260v-80h-260v-252h330v-81h-417v700zM144 899h118l69 -146h-63z" />
    <glyph glyph-name="uni0401" unicode="&#x401;" horiz-adv-x="558" 
d="M87 700h407v-81h-320v-206h260v-80h-260v-252h330v-81h-417v700zM169.5 797q-15.5 16 -15.5 40t16 40.5t40 16.5t40 -16.5t16 -40.5t-16 -40t-40 -16q-25 0 -40.5 16zM341 797q-16 16 -16 40t16 40.5t39 16.5q25 0 41 -16.5t16 -40.5t-16 -40t-41 -16q-23 0 -39 16z" />
    <glyph glyph-name="uni0402" unicode="&#x402;" horiz-adv-x="724" 
d="M477 67q47 13 68.5 37.5t21.5 76.5v150q0 52 -24 79.5t-71 27.5q-41 0 -76 -26.5t-56 -77.5t-21 -120v-214h-87v619h-204v81h495v-81h-204v-216q25 52 72 80.5t101 28.5q74 0 115.5 -41.5t41.5 -119.5v-171q0 -83 -38 -128t-114 -60z" />
    <glyph glyph-name="uni0403" unicode="&#x403;" horiz-adv-x="529" 
d="M87 700h414v-81h-327v-619h-87v700zM330 899h117l-123 -146h-63z" />
    <glyph glyph-name="uni0404" unicode="&#x404;" horiz-adv-x="667" 
d="M194 32.5q-67 40.5 -105.5 121t-38.5 196.5t38.5 196.5t105.5 121t152 40.5q98 0 172 -56t102 -148l-81 -23q-21 65 -71.5 105.5t-121.5 40.5q-89 0 -142.5 -62t-62.5 -175h332v-80h-332q9 -113 62.5 -175t142.5 -62q71 0 121.5 40.5t71.5 105.5l81 -23
q-28 -92 -102 -148t-172 -56q-85 0 -152 40.5z" />
    <glyph glyph-name="uni0405" unicode="&#x405;" horiz-adv-x="514" 
d="M158.5 17.5q-48.5 25.5 -79.5 69.5t-40 96l72 45q37 -155 155 -155q51 0 83 30.5t32 88.5q0 38 -20 65t-50 45t-85 44q-68 33 -107.5 77.5t-39.5 113.5q0 49 23 88t63 61t90 22q69 0 112 -29.5t67 -84.5l-71 -45q-32 78 -108 78q-41 0 -66 -25t-25 -60t19 -60t47.5 -42
t77.5 -39q77 -35 119 -81.5t42 -123.5q0 -61 -26.5 -107t-73 -71.5t-104.5 -25.5t-106.5 25.5z" />
    <glyph glyph-name="uni0406" unicode="&#x406;" horiz-adv-x="260" 
d="M87 700h87v-700h-87v700z" />
    <glyph glyph-name="uni0407" unicode="&#x407;" horiz-adv-x="260" 
d="M87 700h87v-700h-87v700zM2.5 797q-15.5 16 -15.5 40t16 40.5t40 16.5t40 -16.5t16 -40.5t-16 -40t-40 -16q-25 0 -40.5 16zM174 797q-16 16 -16 40t16 40.5t39 16.5q25 0 41 -16.5t16 -40.5t-16 -40t-41 -16q-23 0 -39 16z" />
    <glyph glyph-name="uni0408" unicode="&#x408;" horiz-adv-x="513" 
d="M90.5 42.5q-52.5 50.5 -62.5 129.5l88 19q8 -57 37 -87.5t79 -30.5q54 0 86.5 33t32.5 103v491h86v-482q0 -112 -57 -169t-148 -57q-89 0 -141.5 50.5z" />
    <glyph glyph-name="uni0409" unicode="&#x409;" horiz-adv-x="939" 
d="M39 82q52 0 77 21t29 83l36 514h325v-288h158q102 0 161 -55t59 -151t-59 -151t-161 -55h-245v618h-160l-31 -439q-6 -90 -51.5 -134.5t-137.5 -44.5v82zM651 81q72 0 108 30t36 95t-36 95t-108 30h-145v-250h145z" />
    <glyph glyph-name="uni040A" unicode="&#x40a;" horiz-adv-x="942" 
d="M87 700h87v-288h254v288h87v-288h152q102 0 161 -55t59 -151t-59 -151t-161 -55h-239v331h-254v-331h-87v700zM654 81q73 0 108.5 29.5t35.5 95.5t-35.5 95.5t-108.5 29.5h-139v-250h139z" />
    <glyph glyph-name="uni040B" unicode="&#x40b;" horiz-adv-x="724" 
d="M232 619h-204v81h495v-81h-204v-216q25 52 72 80.5t101 28.5q74 0 115.5 -41.5t41.5 -119.5v-351h-82v331q0 52 -24 79.5t-71 27.5q-41 0 -76 -26.5t-56 -77.5t-21 -120v-214h-87v619z" />
    <glyph glyph-name="uni040C" unicode="&#x40c;" horiz-adv-x="582" 
d="M87 700h87v-286l262 286h108l-286 -314l310 -386h-109l-285 359v-359h-87v700zM321 899h117l-123 -146h-63z" />
    <glyph glyph-name="uni040D" unicode="&#x40d;" horiz-adv-x="674" 
d="M87 700h87v-552l317 552h97v-700h-86v550l-318 -550h-97v700zM185 899h118l69 -146h-63z" />
    <glyph glyph-name="uni040E" unicode="&#x40e;" horiz-adv-x="521" 
d="M218 195l-207 505h91l161 -395l159 395h88l-286 -700h-84zM184 818q-30 31 -30 78h64q0 -22 12 -35.5t33 -13.5q22 0 34 13.5t12 35.5h64q0 -48 -29.5 -78.5t-80.5 -30.5q-49 0 -79 31z" />
    <glyph glyph-name="uni040F" unicode="&#x40f;" horiz-adv-x="663" 
d="M289 0h-202v700h87v-618h316v618h87v-700h-202v-124h-86v124z" />
    <glyph glyph-name="uni0410" unicode="&#x410;" horiz-adv-x="600" 
d="M259 700h82l247 -700h-91l-64 188h-266l-64 -188h-92zM407 269l-107 314l-107 -314h214z" />
    <glyph glyph-name="uni0411" unicode="&#x411;" horiz-adv-x="609" 
d="M87 700h401v-81h-314v-207h160q102 0 161 -55t59 -151t-59 -151t-161 -55h-247v700zM322 81q72 0 108 30t36 95t-36 95t-108 30h-148v-250h148z" />
    <glyph glyph-name="uni0412" unicode="&#x412;" horiz-adv-x="609" 
d="M87 700h235q92 0 144 -47.5t52 -134.5q0 -50 -22.5 -84t-58.5 -51q54 -21 85.5 -65t31.5 -113q0 -95 -59 -150t-161 -55h-247v700zM320 412q112 0 112 103q0 104 -113 104h-145v-207h146zM322 81q72 0 108 30t36 95t-36 95t-108 30h-148v-250h148z" />
    <glyph glyph-name="uni0413" unicode="&#x413;" horiz-adv-x="529" 
d="M87 700h414v-81h-327v-619h-87v700z" />
    <glyph glyph-name="uni0414" unicode="&#x414;" horiz-adv-x="662" 
d="M36 82h54l101 618h374v-618h61l-12 -206h-80v124h-406v-124h-79zM478 82v537h-213l-86 -537h299z" />
    <glyph glyph-name="uni0415" unicode="&#x415;" horiz-adv-x="558" 
d="M87 700h407v-81h-320v-206h260v-80h-260v-252h330v-81h-417v700z" />
    <glyph glyph-name="uni0416" unicode="&#x416;" horiz-adv-x="903" 
d="M323 386l-287 314h109l263 -286v286h87v-286l263 286h109l-287 -314l309 -386h-108l-286 359v-359h-87v359l-286 -359h-108z" />
    <glyph glyph-name="uni0417" unicode="&#x417;" horiz-adv-x="541" 
d="M126 39q-62 47 -80 133l80 26q12 -65 50 -97.5t96 -32.5q59 0 98.5 38t39.5 97q0 70 -47.5 103t-111.5 33h-27v69h26q61 0 96.5 29.5t35.5 88.5q0 48 -31.5 78t-85.5 30q-48 0 -79 -27.5t-40 -76.5l-76 15q12 76 65.5 119.5t128.5 43.5q96 0 147.5 -49.5t51.5 -128.5
q0 -55 -23.5 -90.5t-65.5 -60.5q55 -23 88 -67t33 -106q0 -60 -27.5 -109t-78 -77t-116.5 -28q-85 0 -147 47z" />
    <glyph glyph-name="uni0418" unicode="&#x418;" horiz-adv-x="674" 
d="M87 700h87v-552l317 552h97v-700h-86v550l-318 -550h-97v700z" />
    <glyph glyph-name="uni0419" unicode="&#x419;" horiz-adv-x="674" 
d="M87 700h87v-552l317 552h97v-700h-86v550l-318 -550h-97v700zM261 818q-30 31 -30 78h64q0 -22 12 -35.5t33 -13.5q22 0 34 13.5t12 35.5h64q0 -48 -29.5 -78.5t-80.5 -30.5q-49 0 -79 31z" />
    <glyph glyph-name="uni041A" unicode="&#x41a;" horiz-adv-x="582" 
d="M87 700h87v-286l262 286h108l-286 -314l310 -386h-109l-285 359v-359h-87v700z" />
    <glyph glyph-name="uni041B" unicode="&#x41b;" horiz-adv-x="658" 
d="M39 82q51 0 76.5 21t29.5 83l38 514h389v-700h-87v618h-224l-32 -439q-7 -91 -52.5 -135t-137.5 -44v82z" />
    <glyph glyph-name="uni041C" unicode="&#x41c;" horiz-adv-x="766" 
d="M87 700h103l194 -498l194 498h102v-700h-86v527l-181 -463h-59l-180 463v-527h-87v700z" />
    <glyph glyph-name="uni041D" unicode="&#x41d;" horiz-adv-x="678" 
d="M87 700h87v-286h331v286h87v-700h-87v333h-331v-333h-87v700z" />
    <glyph glyph-name="uni041E" unicode="&#x41e;" horiz-adv-x="729" 
d="M207 34.5q-72 42.5 -114.5 123.5t-42.5 192t42.5 192t114.5 123.5t158 42.5q85 0 157 -42.5t114.5 -123.5t42.5 -192t-42.5 -192t-114.5 -123.5t-157 -42.5q-86 0 -158 42.5zM479 104q51 31 81 93.5t30 152.5t-30 152.5t-81 93.5t-114 31t-114 -31t-81 -93.5t-30 -152.5
t30 -152.5t81 -93.5t114 -31t114 31z" />
    <glyph glyph-name="uni041F" unicode="&#x41f;" horiz-adv-x="661" 
d="M87 700h488v-700h-87v618h-314v-618h-87v700z" />
    <glyph glyph-name="uni0420" unicode="&#x420;" horiz-adv-x="581" 
d="M87 700h246q99 0 153.5 -53.5t54.5 -145.5q0 -93 -54.5 -146.5t-153.5 -53.5h-159v-301h-87v700zM332 382q61 0 90 31.5t29 87.5q0 55 -29 86.5t-90 31.5h-158v-237h158z" />
    <glyph glyph-name="uni0421" unicode="&#x421;" horiz-adv-x="686" 
d="M210 32.5q-72 40.5 -116 121.5t-44 196t44 196t116 121.5t156 40.5q104 0 175 -54t98 -150l-82 -22q-21 69 -68.5 107t-122.5 38q-65 0 -116.5 -32t-80.5 -94t-29 -151t29 -151t80.5 -94t116.5 -32q75 0 122.5 38t68.5 107l82 -22q-27 -96 -98 -150t-175 -54
q-84 0 -156 40.5z" />
    <glyph glyph-name="uni0422" unicode="&#x422;" horiz-adv-x="552" 
d="M233 619h-205v81h496v-81h-205v-619h-86v619z" />
    <glyph glyph-name="uni0423" unicode="&#x423;" horiz-adv-x="521" 
d="M218 195l-207 505h91l161 -395l159 395h88l-286 -700h-84z" />
    <glyph glyph-name="uni0424" unicode="&#x424;" horiz-adv-x="767" 
d="M341 72h-8q-82 0 -146.5 35.5t-100.5 99t-36 143.5t36 143.5t100.5 99t146.5 35.5h8v72h85v-72h10q82 0 146 -35.5t99.5 -99t35.5 -143.5t-36 -143.5t-100.5 -99t-146.5 -35.5h-8v-72h-85v72zM341 146v408h-10q-59 0 -103.5 -26.5t-68 -73t-23.5 -104.5t23.5 -104.5
t68 -73t103.5 -26.5h10zM436 146q59 0 103.5 26.5t68 73t23.5 104.5t-23.5 104.5t-68 73t-103.5 26.5h-10v-408h10z" />
    <glyph glyph-name="uni0425" unicode="&#x425;" horiz-adv-x="572" 
d="M238 383l-183 317h95l136 -236l135 236h96l-184 -317l224 -383h-96l-175 300l-175 -300h-96z" />
    <glyph glyph-name="uni0426" unicode="&#x426;" horiz-adv-x="678" 
d="M549 0h-462v700h87v-618h314v618h87v-618h67l-14 -206h-79v124z" />
    <glyph glyph-name="uni0427" unicode="&#x427;" horiz-adv-x="633" 
d="M460 325q-38 -27 -85.5 -40.5t-97.5 -13.5q-94 0 -147.5 55.5t-53.5 169.5v204h87v-200q0 -74 35 -110t97 -36q96 0 165 69v277h87v-700h-87v325z" />
    <glyph glyph-name="uni0428" unicode="&#x428;" horiz-adv-x="954" 
d="M87 700h87v-618h260v618h87v-618h260v618h87v-700h-781v700z" />
    <glyph glyph-name="uni0429" unicode="&#x429;" horiz-adv-x="971" 
d="M839 0h-752v700h87v-618h260v618h87v-618h260v618h87v-618h67l-16 -206h-80v124z" />
    <glyph glyph-name="uni042A" unicode="&#x42a;" horiz-adv-x="672" 
d="M150 619h-126v81h213v-288h160q102 0 161 -55t59 -151t-59 -151t-161 -55h-247v619zM385 81q72 0 108 30t36 95t-36 95t-108 30h-148v-250h148z" />
    <glyph glyph-name="uni042B" unicode="&#x42b;" horiz-adv-x="869" 
d="M87 700h87v-288h160q102 0 161 -55t59 -151t-59 -151t-161 -55h-247v700zM322 81q72 0 108 30t36 95t-36 95t-108 30h-148v-250h148zM696 700h87v-700h-87v700z" />
    <glyph glyph-name="uni042C" unicode="&#x42c;" horiz-adv-x="609" 
d="M87 700h87v-288h160q102 0 161 -55t59 -151t-59 -151t-161 -55h-247v700zM322 81q72 0 108 30t36 95t-36 95t-108 30h-148v-250h148z" />
    <glyph glyph-name="uni042D" unicode="&#x42d;" horiz-adv-x="667" 
d="M149 48q-74 56 -102 148l81 23q21 -65 71.5 -105.5t121.5 -40.5q89 0 142.5 62t62.5 175h-332v80h332q-9 113 -62.5 175t-142.5 62q-71 0 -121.5 -40.5t-71.5 -105.5l-81 23q28 92 102 148t172 56q85 0 152 -40.5t105.5 -121t38.5 -196.5t-38.5 -196.5t-105.5 -121
t-152 -40.5q-98 0 -172 56z" />
    <glyph glyph-name="uni042E" unicode="&#x42e;" horiz-adv-x="1008" 
d="M494.5 30q-68.5 38 -112.5 110t-52 170h-156v-310h-87v700h87v-310h156q8 98 52 170t112.5 110t148.5 38q86 0 158 -42.5t114.5 -123.5t42.5 -192t-42.5 -192t-114.5 -123.5t-158 -42.5q-80 0 -148.5 38zM757 104q51 31 81 93.5t30 152.5t-30 152.5t-81 93.5t-114 31
t-114 -31t-81 -93.5t-30 -152.5t30 -152.5t81 -93.5t114 -31t114 31z" />
    <glyph glyph-name="uni042F" unicode="&#x42f;" horiz-adv-x="619" 
d="M240 337q-70 14 -108 59.5t-38 119.5q0 88 53.5 136t151.5 48h234v-700h-86v332h-111l-209 -332h-97zM447 413v206h-146q-119 0 -119 -103q0 -53 30 -78t89 -25h146z" />
    <glyph glyph-name="uni0430" unicode="&#x430;" horiz-adv-x="505" 
d="M92 30.5q-44 38.5 -44 114.5q0 80 59.5 122.5t163.5 42.5h88v22q0 55 -29.5 80.5t-77.5 25.5q-83 0 -110 -82l-74 17q10 63 61.5 101t122.5 38q85 0 137 -49.5t52 -139.5v-323h-65l-15 73q-52 -81 -157 -81q-68 0 -112 38.5zM285 82.5q32 16.5 53 52t21 88.5v16h-85
q-70 0 -105 -24t-35 -69q0 -38 22.5 -59t62.5 -21q34 0 66 16.5z" />
    <glyph glyph-name="uni0431" unicode="&#x431;" horiz-adv-x="579" 
d="M111 75q-65 83 -65 235q0 208 67.5 299t190.5 91h37q36 0 53 10t26 37h58q-3 -62 -35.5 -91.5t-88.5 -29.5h-45q-80 0 -123 -50t-50 -137q28 32 71.5 52.5t101.5 20.5q68 0 119 -34.5t78 -94t27 -131.5q0 -73 -30 -132t-85.5 -93.5t-128.5 -34.5q-113 0 -178 83z
M374.5 92q35.5 26 54 68.5t18.5 91.5t-18.5 91.5t-54 68.5t-84.5 26t-84.5 -26t-54 -68.5t-18.5 -91.5t18.5 -91.5t54 -68.5t84.5 -26t84.5 26z" />
    <glyph glyph-name="uni0432" unicode="&#x432;" horiz-adv-x="491" 
d="M75 504h191q68 0 109 -33.5t41 -95.5q0 -32 -15.5 -58.5t-38.5 -40.5q35 -18 56.5 -49.5t21.5 -74.5q0 -70 -44.5 -111t-120.5 -41h-200v504zM263 305q72 0 72 64q0 63 -72 63h-105v-127h105zM262 74q95 0 95 78q0 39 -24 59t-71 20h-104v-157h104z" />
    <glyph glyph-name="uni0433" unicode="&#x433;" horiz-adv-x="420" 
d="M75 504h320v-74h-237v-430h-83v504z" />
    <glyph glyph-name="uni0434" unicode="&#x434;" horiz-adv-x="547" 
d="M29 74h36l68 430h343v-430h35l-11 -188h-77v114h-304v-114h-77zM394 74v356h-191l-53 -356h244z" />
    <glyph glyph-name="uni0435" unicode="&#x435;" horiz-adv-x="547" 
d="M153 27q-52 35 -79.5 94.5t-27.5 130.5t27.5 130.5t79.5 94.5t123 35q69 0 120 -32t78 -86t27 -120v-35h-369q1 -76 39.5 -124.5t106.5 -48.5q52 0 85 23t59 75l70 -30q-36 -74 -87.5 -108t-128.5 -34q-71 0 -123 35zM417 310q-9 59 -45 93.5t-96 34.5q-55 0 -92 -36
t-48 -92h281z" />
    <glyph glyph-name="uni0436" unicode="&#x436;" horiz-adv-x="731" 
d="M239 273l-213 231h103l196 -215v215h82v-215l195 215h103l-213 -231l229 -273h-103l-211 256v-256h-82v256l-212 -256h-103z" />
    <glyph glyph-name="uni0437" unicode="&#x437;" horiz-adv-x="422" 
d="M93 32.5q-48 40.5 -55 106.5l78 9q5 -37 30.5 -60t66.5 -23q37 0 60 23t23 59q0 40 -28.5 62.5t-76.5 22.5h-20v64h18q42 0 67 18.5t25 54.5q0 33 -20.5 53t-54.5 20q-31 0 -53 -17.5t-30 -48.5l-72 19q11 53 51.5 85t102.5 32q70 0 111 -35t41 -92q0 -79 -61 -117
q39 -15 60.5 -46t21.5 -76q0 -69 -46.5 -111.5t-118.5 -42.5t-120 40.5z" />
    <glyph glyph-name="uni0438" unicode="&#x438;" horiz-adv-x="557" 
d="M75 504h83v-375l235 375h89v-504h-82v375l-236 -375h-89v504z" />
    <glyph glyph-name="uni0439" unicode="&#x439;" horiz-adv-x="557" 
d="M75 504h83v-375l235 375h89v-504h-82v375l-236 -375h-89v504zM195 622q-30 31 -30 78h64q0 -22 12 -35.5t33 -13.5q22 0 34 13.5t12 35.5h64q0 -48 -29.5 -78.5t-80.5 -30.5q-49 0 -79 31z" />
    <glyph glyph-name="uni043A" unicode="&#x43a;" horiz-adv-x="482" 
d="M75 504h83v-215l195 215h103l-213 -231l229 -273h-103l-211 256v-256h-83v504z" />
    <glyph glyph-name="uni043B" unicode="&#x43b;" horiz-adv-x="568" 
d="M27 74q50 0 70.5 19.5t25.5 65.5l34 345h336v-504h-82v430h-177l-31 -295q-9 -75 -50.5 -105t-125.5 -30v74z" />
    <glyph glyph-name="uni043C" unicode="&#x43c;" horiz-adv-x="615" 
d="M75 504h99l134 -335l134 335h98v-504h-82v356l-121 -310h-58l-121 310v-356h-83v504z" />
    <glyph glyph-name="uni043D" unicode="&#x43d;" horiz-adv-x="535" 
d="M75 504h83v-199h220v199h82v-504h-82v231h-220v-231h-83v504z" />
    <glyph glyph-name="uni043E" unicode="&#x43e;" horiz-adv-x="577" 
d="M160.5 27.5q-55.5 35.5 -85 95.5t-29.5 129t29.5 129t85 95.5t128.5 35.5t128 -35.5t84.5 -95.5t29.5 -129t-29.5 -129t-84.5 -95.5t-128 -35.5t-128.5 35.5zM373.5 92q35.5 26 53.5 68.5t18 91.5t-18 91.5t-53.5 68.5t-84.5 26t-84.5 -26t-54 -68.5t-18.5 -91.5
t18.5 -91.5t54 -68.5t84.5 -26t84.5 26z" />
    <glyph glyph-name="uni043F" unicode="&#x43f;" horiz-adv-x="535" 
d="M75 504h385v-504h-82v430h-220v-430h-83v504z" />
    <glyph glyph-name="uni0440" unicode="&#x440;" horiz-adv-x="577" 
d="M75 504h83v-65q18 29 58.5 51t88.5 22q72 0 123 -33.5t77 -92.5t26 -134t-26 -134t-77 -92.5t-123 -33.5q-43 0 -84 19.5t-63 51.5v-267h-83v708zM405.5 117.5q39.5 51.5 39.5 134.5t-39.5 134.5t-108.5 51.5t-108 -51.5t-39 -134.5t39.5 -134.5t107.5 -51.5
q69 0 108.5 51.5z" />
    <glyph glyph-name="uni0441" unicode="&#x441;" horiz-adv-x="528" 
d="M151 28q-52 36 -78.5 95t-26.5 129t26.5 129t78.5 95t126 36q158 0 211 -141l-74 -29q-39 96 -137 96q-71 0 -108 -52t-37 -134q0 -81 37 -133.5t108 -52.5q50 0 83 24t54 72l74 -29q-27 -70 -80.5 -105.5t-130.5 -35.5q-74 0 -126 36z" />
    <glyph glyph-name="uni0442" unicode="&#x442;" horiz-adv-x="422" 
d="M170 430h-140v74h362v-74h-140v-430h-82v430z" />
    <glyph glyph-name="uni0443" unicode="&#x443;" horiz-adv-x="458" 
d="M192 12l-182 492h85l139 -378l130 378h84l-253 -708h-81z" />
    <glyph glyph-name="uni0444" unicode="&#x444;" horiz-adv-x="694" 
d="M306 -8q-79 0 -138 35t-90.5 94.5t-31.5 130.5t31.5 130.5t90.5 94.5t138 35v196h82v-196q79 0 138 -35t90.5 -94.5t31.5 -130.5t-31.5 -130.5t-90.5 -94.5t-138 -35v-196h-82v196zM306 66v372h-6q-78 0 -123 -52t-45 -134t45 -134t123 -52h6zM395 66q77 0 122 52.5
t45 133.5t-45 133.5t-122 52.5h-7v-372h7z" />
    <glyph glyph-name="uni0445" unicode="&#x445;" horiz-adv-x="445" 
d="M178 273l-143 231h89l98 -160l99 160h89l-143 -231l169 -273h-86l-128 202l-127 -202h-86z" />
    <glyph glyph-name="uni0446" unicode="&#x446;" horiz-adv-x="532" 
d="M407 0h-332v504h83v-430h220v430h82v-430h36l-12 -188h-77v114z" />
    <glyph glyph-name="uni0447" unicode="&#x447;" horiz-adv-x="533" 
d="M376 227q-35 -38 -75 -55.5t-88 -17.5q-66 0 -106 39t-40 106v205h83v-186q0 -45 22.5 -67.5t61.5 -22.5q81 0 142 100v176h82v-504h-82v227z" />
    <glyph glyph-name="uni0448" unicode="&#x448;" horiz-adv-x="795" 
d="M75 504h83v-430h199v430h82v-430h199v430h82v-504h-645v504z" />
    <glyph glyph-name="uni0449" unicode="&#x449;" horiz-adv-x="791" 
d="M667 0h-592v504h83v-430h199v430h82v-430h199v430h82v-430h35l-11 -188h-77v114z" />
    <glyph glyph-name="uni044A" unicode="&#x44a;" horiz-adv-x="521" 
d="M120 430h-98v74h180v-192h103q81 0 125.5 -42t44.5 -114t-44.5 -114t-125.5 -42h-185v430zM279 74q57 0 82.5 19.5t25.5 62.5t-26 62.5t-82 19.5h-77v-164h77z" />
    <glyph glyph-name="uni044B" unicode="&#x44b;" horiz-adv-x="709" 
d="M75 504h83v-192h102q81 0 125.5 -42t44.5 -114t-44.5 -114t-125.5 -42h-185v504zM235 74q57 0 82.5 19.5t25.5 62.5t-26 62.5t-82 19.5h-77v-164h77zM551 504h83v-504h-83v504z" />
    <glyph glyph-name="uni044C" unicode="&#x44c;" horiz-adv-x="476" 
d="M75 504h83v-192h102q81 0 125.5 -42t44.5 -114t-44.5 -114t-125.5 -42h-185v504zM235 74q57 0 82.5 19.5t25.5 62.5t-26 62.5t-82 19.5h-77v-164h77z" />
    <glyph glyph-name="uni044D" unicode="&#x44d;" horiz-adv-x="525" 
d="M40 126l72 34q42 -94 141 -94q61 0 96 41.5t42 109.5h-233v71h233q-7 67 -42 108.5t-96 41.5q-99 0 -141 -94l-72 34q66 134 210 134q74 0 126 -36t77.5 -95t25.5 -129t-25.5 -129t-77.5 -95t-126 -36q-144 0 -210 134z" />
    <glyph glyph-name="uni044E" unicode="&#x44e;" horiz-adv-x="778" 
d="M370 22q-52 30 -83 81t-38 112h-91v-215h-83v504h83v-215h91q7 61 38 112t83 81t119 30q73 0 128.5 -35.5t85 -95.5t29.5 -129t-29.5 -129t-85 -95.5t-128.5 -35.5q-67 0 -119 30zM573.5 92q35.5 26 53.5 68.5t18 91.5t-18 91.5t-53.5 68.5t-84.5 26t-84.5 -26
t-53.5 -68.5t-18 -91.5t18 -91.5t53.5 -68.5t84.5 -26t84.5 26z" />
    <glyph glyph-name="uni044F" unicode="&#x44f;" horiz-adv-x="470" 
d="M156 229q-46 14 -73.5 49t-27.5 86q0 63 45.5 101.5t116.5 38.5h178v-504h-82v223h-76l-122 -223h-90zM313 297v133h-100q-37 0 -57 -16.5t-20 -49.5q0 -34 20 -50.5t57 -16.5h100z" />
    <glyph glyph-name="uni0450" unicode="&#x450;" horiz-adv-x="547" 
d="M153 27q-52 35 -79.5 94.5t-27.5 130.5t27.5 130.5t79.5 94.5t123 35q69 0 120 -32t78 -86t27 -120v-35h-369q1 -76 39.5 -124.5t106.5 -48.5q52 0 85 23t59 75l70 -30q-36 -74 -87.5 -108t-128.5 -34q-71 0 -123 35zM417 310q-9 59 -45 93.5t-96 34.5q-55 0 -92 -36
t-48 -92h281zM123 703h118l69 -146h-63z" />
    <glyph glyph-name="uni0451" unicode="&#x451;" horiz-adv-x="547" 
d="M153 27q-52 35 -79.5 94.5t-27.5 130.5t27.5 130.5t79.5 94.5t123 35q69 0 120 -32t78 -86t27 -120v-35h-369q1 -76 39.5 -124.5t106.5 -48.5q52 0 85 23t59 75l70 -30q-36 -74 -87.5 -108t-128.5 -34q-71 0 -123 35zM417 310q-9 59 -45 93.5t-96 34.5q-55 0 -92 -36
t-48 -92h281zM149.5 601q-15.5 16 -15.5 40t16 40.5t40 16.5t40 -16.5t16 -40.5t-16 -40t-40 -16q-25 0 -40.5 16zM321 601q-16 16 -16 40t16 40.5t39 16.5q25 0 41 -16.5t16 -40.5t-16 -40t-41 -16q-23 0 -39 16z" />
    <glyph glyph-name="uni0452" unicode="&#x452;" horiz-adv-x="568" 
d="M321 -137q47 13 68.5 37.5t21.5 76.5v354q0 52 -24 79.5t-71 27.5q-41 0 -76.5 -26.5t-56.5 -77.5t-21 -120v-214h-82v572h-72v68h72v68h82v-68h128v-68h-128v-169q25 52 72 80.5t102 28.5q74 0 115.5 -41.5t41.5 -119.5v-375q0 -83 -38 -128t-115 -60z" />
    <glyph glyph-name="uni0453" unicode="&#x453;" horiz-adv-x="420" 
d="M75 504h320v-74h-237v-430h-83v504zM259 703h117l-123 -146h-63z" />
    <glyph glyph-name="uni0454" unicode="&#x454;" horiz-adv-x="525" 
d="M149.5 28q-51.5 36 -77.5 95t-26 129t26 129t77.5 95t125.5 36q72 0 125 -34t85 -100l-72 -34q-42 94 -141 94q-61 0 -96 -41.5t-41 -108.5h233v-71h-233q6 -68 40.5 -109.5t96.5 -41.5q99 0 141 94l72 -34q-32 -66 -85 -100t-125 -34q-74 0 -125.5 36z" />
    <glyph glyph-name="uni0455" unicode="&#x455;" horiz-adv-x="435" 
d="M105 32q-48 40 -63 97l69 37q15 -48 43.5 -74t75.5 -26q37 0 59.5 19.5t22.5 56.5q0 33 -27 52t-84 40q-60 22 -92.5 55t-32.5 88q0 60 41.5 97.5t105.5 37.5q97 0 146 -79l-54 -48q-34 53 -93 53q-28 0 -47 -16.5t-19 -44.5t24.5 -46.5t87.5 -41.5q123 -45 123 -144
q0 -71 -44 -112t-117 -41q-77 0 -125 40z" />
    <glyph glyph-name="uni0456" unicode="&#x456;" horiz-adv-x="233" 
d="M73.5 606.5q-17.5 17.5 -17.5 42.5q0 26 17.5 43t42.5 17q26 0 43.5 -17t17.5 -43t-17.5 -43t-43.5 -17q-25 0 -42.5 17.5zM75 504h83v-504h-83v504z" />
    <glyph glyph-name="uni0457" unicode="&#x457;" horiz-adv-x="233" 
d="M75 504h83v-504h-83v504zM-10.5 601q-15.5 16 -15.5 40t16 40.5t40 16.5t40 -16.5t16 -40.5t-16 -40t-40 -16q-25 0 -40.5 16zM161 601q-16 16 -16 40t16 40.5t39 16.5q25 0 41 -16.5t16 -40.5t-16 -40t-41 -16q-23 0 -39 16z" />
    <glyph glyph-name="uni0458" unicode="&#x458;" horiz-adv-x="233" 
d="M73.5 606.5q-17.5 17.5 -17.5 42.5q0 26 17.5 43t42.5 17q26 0 43.5 -17t17.5 -43t-17.5 -43t-43.5 -17q-25 0 -42.5 17.5zM-15 -137q47 13 68.5 37.5t21.5 76.5v527h83v-528q0 -83 -38.5 -128t-114.5 -60z" />
    <glyph glyph-name="uni0459" unicode="&#x459;" horiz-adv-x="768" 
d="M27 74q50 0 70.5 19.5t25.5 65.5l34 345h292v-192h103q81 0 125.5 -42t44.5 -114t-44.5 -114t-125.5 -42h-185v430h-133l-31 -295q-9 -75 -50.5 -105t-125.5 -30v74zM527 74q57 0 82.5 19.5t25.5 62.5t-26 62.5t-82 19.5h-78v-164h78z" />
    <glyph glyph-name="uni045A" unicode="&#x45a;" horiz-adv-x="786" 
d="M75 504h83v-192h223v192h83v-192h106q81 0 125.5 -42t44.5 -114t-44.5 -114t-125.5 -42h-189v238h-223v-238h-83v504zM544 74q57 0 82.5 19.5t25.5 62.5t-26 62.5t-82 19.5h-80v-164h80z" />
    <glyph glyph-name="uni045B" unicode="&#x45b;" horiz-adv-x="563" 
d="M75 708h83v-305q25 52 72 80.5t101 28.5q74 0 115.5 -41.5t41.5 -119.5v-351h-82v331q0 52 -24 79.5t-71 27.5q-41 0 -76 -26.5t-56 -77.5t-21 -120v-214h-83v708zM8 640h282v-68h-282v68z" />
    <glyph glyph-name="uni045C" unicode="&#x45c;" horiz-adv-x="482" 
d="M75 504h83v-215l195 215h103l-213 -231l229 -273h-103l-211 256v-256h-83v504zM271 703h117l-123 -146h-63z" />
    <glyph glyph-name="uni045D" unicode="&#x45d;" horiz-adv-x="557" 
d="M75 504h83v-375l235 375h89v-504h-82v375l-236 -375h-89v504zM119 703h118l69 -146h-63z" />
    <glyph glyph-name="uni045E" unicode="&#x45e;" horiz-adv-x="458" 
d="M192 12l-182 492h85l139 -378l130 378h84l-253 -708h-81zM152 622q-30 31 -30 78h64q0 -22 12 -35.5t33 -13.5q22 0 34 13.5t12 35.5h64q0 -48 -29.5 -78.5t-80.5 -30.5q-49 0 -79 31z" />
    <glyph glyph-name="uni045F" unicode="&#x45f;" horiz-adv-x="535" 
d="M226 0h-151v504h83v-430h220v430h82v-504h-151v-114h-83v114z" />
    <glyph glyph-name="uni0462" unicode="&#x462;" horiz-adv-x="657" 
d="M543 357q59 -55 59 -151t-59 -151t-161 -55h-247v514h-126v81h126v105h87v-105h148v-81h-148v-102h160q102 0 161 -55zM478 111q36 30 36 95t-36 95t-108 30h-148v-250h148q72 0 108 30z" />
    <glyph glyph-name="uni0463" unicode="&#x463;" horiz-adv-x="541" 
d="M450.5 270q44.5 -42 44.5 -114t-44.5 -114t-125.5 -42h-185v471h-125v72h125v157h82v-157h136v-72h-136v-159h103q81 0 125.5 -42zM381.5 93.5q25.5 19.5 25.5 62.5t-25.5 62.5t-81.5 19.5h-78v-164h78q56 0 81.5 19.5z" />
    <glyph glyph-name="uni0472" unicode="&#x472;" horiz-adv-x="729" 
d="M522 665.5q72 -42.5 114.5 -123.5t42.5 -192t-42.5 -192t-114.5 -123.5t-157 -42.5q-86 0 -158 42.5t-114.5 123.5t-42.5 192t42.5 192t114.5 123.5t158 42.5q85 0 157 -42.5zM212.5 565q-62.5 -62 -71.5 -179h448q-6 78 -37.5 132.5t-80 81.5t-106.5 27
q-90 0 -152.5 -62zM471.5 100q48.5 27 80 81.5t37.5 132.5h-448q9 -117 71.5 -179t152.5 -62q58 0 106.5 27z" />
    <glyph glyph-name="uni0473" unicode="&#x473;" horiz-adv-x="577" 
d="M417 476.5q55 -35.5 84.5 -95.5t29.5 -129t-29.5 -129t-84.5 -95.5t-128 -35.5t-128.5 35.5t-85 95.5t-29.5 129t29.5 129t85 95.5t128.5 35.5t128 -35.5zM185 395.5q-40 -42.5 -50 -107.5h307q-10 65 -49.5 107.5t-103.5 42.5t-104 -42.5zM392.5 108.5
q39.5 42.5 49.5 107.5h-307q10 -65 50 -107.5t104 -42.5t103.5 42.5z" />
    <glyph glyph-name="uni0474" unicode="&#x474;" horiz-adv-x="628" 
d="M478.5 630.5q20.5 34.5 56 53.5t93.5 19v-83q-31 0 -48 -7.5t-28.5 -25.5t-24.5 -56l-184 -531h-90l-242 700h93l194 -577l139 411q21 62 41.5 96.5z" />
    <glyph glyph-name="uni0475" unicode="&#x475;" horiz-adv-x="498" 
d="M15 504h85l127 -398l88 276q16 50 37 78t53.5 40t83.5 12v-74q-33 0 -51.5 -8t-28.5 -23.5t-19 -43.5l-122 -363h-83z" />
    <glyph glyph-name="uni0490" unicode="&#x490;" horiz-adv-x="529" 
d="M501 770v-151h-327v-619h-87v700h327v70h87z" />
    <glyph glyph-name="uni0491" unicode="&#x491;" horiz-adv-x="420" 
d="M395 577v-147h-237v-430h-83v504h237v73h83z" />
    <glyph glyph-name="Wgrave" unicode="&#x1e80;" horiz-adv-x="874" 
d="M11 700h92l144 -570l152 496h76l151 -496l145 570h91l-189 -700h-88l-149 488l-147 -488h-89zM284 899h118l69 -146h-63z" />
    <glyph glyph-name="wgrave" unicode="&#x1e81;" horiz-adv-x="691" 
d="M13 504h85l108 -393l100 393h79l99 -393l109 393h85l-155 -504h-78l-100 384l-99 -384h-79zM192 703h118l69 -146h-63z" />
    <glyph glyph-name="Wacute" unicode="&#x1e82;" horiz-adv-x="874" 
d="M11 700h92l144 -570l152 496h76l151 -496l145 570h91l-189 -700h-88l-149 488l-147 -488h-89zM473 899h117l-123 -146h-63z" />
    <glyph glyph-name="wacute" unicode="&#x1e83;" horiz-adv-x="691" 
d="M13 504h85l108 -393l100 393h79l99 -393l109 393h85l-155 -504h-78l-100 384l-99 -384h-79zM381 703h117l-123 -146h-63z" />
    <glyph glyph-name="Wdieresis" unicode="&#x1e84;" horiz-adv-x="874" 
d="M11 700h92l144 -570l152 496h76l151 -496l145 570h91l-189 -700h-88l-149 488l-147 -488h-89zM309.5 797q-15.5 16 -15.5 40t16 40.5t40 16.5t40 -16.5t16 -40.5t-16 -40t-40 -16q-25 0 -40.5 16zM481 797q-16 16 -16 40t16 40.5t39 16.5q25 0 41 -16.5t16 -40.5t-16 -40
t-41 -16q-23 0 -39 16z" />
    <glyph glyph-name="wdieresis" unicode="&#x1e85;" horiz-adv-x="691" 
d="M13 504h85l108 -393l100 393h79l99 -393l109 393h85l-155 -504h-78l-100 384l-99 -384h-79zM218.5 601q-15.5 16 -15.5 40t16 40.5t40 16.5t40 -16.5t16 -40.5t-16 -40t-40 -16q-25 0 -40.5 16zM390 601q-16 16 -16 40t16 40.5t39 16.5q25 0 41 -16.5t16 -40.5t-16 -40
t-41 -16q-23 0 -39 16z" />
    <glyph glyph-name="uni1E9E" unicode="&#x1e9e;" horiz-adv-x="635" 
d="M251 10v81q58 -21 103 -21q68 0 103 36t35 104q0 75 -46.5 109t-122.5 34h-25v34l129 232h-141q-53 0 -82.5 -34.5t-29.5 -104.5v-480h-87v484q0 104 55.5 160t143.5 56h245v-46l-135 -247q49 -4 91 -27t67.5 -65.5t25.5 -100.5q0 -68 -27.5 -118.5t-77.5 -77t-115 -26.5
q-49 0 -109 18z" />
    <glyph glyph-name="Ygrave" unicode="&#x1ef2;" horiz-adv-x="525" 
d="M219 302l-208 398h98l154 -312l154 312h97l-208 -398v-302h-87v302zM110 899h118l69 -146h-63z" />
    <glyph glyph-name="ygrave" unicode="&#x1ef3;" horiz-adv-x="458" 
d="M192 12l-182 492h85l139 -378l130 378h84l-253 -708h-81zM76 703h118l69 -146h-63z" />
    <glyph glyph-name="endash" unicode="&#x2013;" horiz-adv-x="560" 
d="M68 353h424v-72h-424v72z" />
    <glyph glyph-name="emdash" unicode="&#x2014;" horiz-adv-x="759" 
d="M68 353h623v-72h-623v72z" />
    <glyph glyph-name="quoteleft" unicode="&#x2018;" horiz-adv-x="267" 
d="M171 708h61l-67 -203h-117z" />
    <glyph glyph-name="quoteright" unicode="&#x2019;" horiz-adv-x="266" 
d="M101 708h117l-123 -203h-60z" />
    <glyph glyph-name="quotesinglbase" unicode="&#x201a;" horiz-adv-x="266" 
d="M101 104h117l-123 -203h-60z" />
    <glyph glyph-name="quotedblleft" unicode="&#x201c;" horiz-adv-x="434" 
d="M333 505h-117l123 203h60zM165 505h-117l123 203h60z" />
    <glyph glyph-name="quotedblright" unicode="&#x201d;" horiz-adv-x="434" 
d="M101 708h117l-123 -203h-60zM269 708h117l-123 -203h-60z" />
    <glyph glyph-name="quotedblbase" unicode="&#x201e;" horiz-adv-x="419" 
d="M94 104h117l-123 -203h-60zM262 104h117l-123 -203h-60z" />
    <glyph glyph-name="dagger" unicode="&#x2020;" horiz-adv-x="427" 
d="M174 431h-140v73h140v246h80v-246h139v-73h-139v-481h-80v481z" />
    <glyph glyph-name="daggerdbl" unicode="&#x2021;" horiz-adv-x="427" 
d="M174 196h-140v73h140v162h-140v73h140v246h80v-246h139v-73h-139v-162h139v-73h-139v-246h-80v246z" />
    <glyph glyph-name="bullet" unicode="&#x2022;" horiz-adv-x="338" 
d="M111 272q-24 24 -24 58t24 58t58 24t58 -24t24 -58t-24 -58t-58 -24t-58 24z" />
    <glyph glyph-name="ellipsis" unicode="&#x2026;" horiz-adv-x="746" 
d="M77.5 14.5q-17.5 17.5 -17.5 43.5q0 27 17.5 44.5t44.5 17.5q26 0 44 -17.5t18 -44.5q0 -26 -18 -43.5t-44 -17.5q-27 0 -44.5 17.5zM328.5 14.5q-17.5 17.5 -17.5 43.5q0 27 17.5 44.5t44.5 17.5q26 0 44 -17.5t18 -44.5q0 -26 -18 -43.5t-44 -17.5q-27 0 -44.5 17.5z
M580.5 14.5q-17.5 17.5 -17.5 43.5q0 27 17.5 44.5t44.5 17.5q26 0 43.5 -17.5t17.5 -44.5q0 -26 -17.5 -43.5t-43.5 -17.5q-27 0 -44.5 17.5z" />
    <glyph glyph-name="perthousand" unicode="&#x2030;" horiz-adv-x="1210" 
d="M126 13l541 716l52 -41l-541 -717zM137.5 409.5q-36.5 21.5 -57 58t-20.5 80.5t20.5 80.5t57 58t81.5 21.5t81.5 -21.5t57 -58t20.5 -80.5t-20.5 -80.5t-57 -58t-81.5 -21.5t-81.5 21.5zM284.5 481q24.5 26 24.5 67t-24.5 67t-65.5 26t-65.5 -26t-24.5 -67t24.5 -67
t65.5 -26t65.5 26zM543.5 13.5q-36.5 21.5 -57 58t-20.5 80.5t20.5 80.5t57 58t81.5 21.5t81.5 -21.5t57 -58t20.5 -80.5t-20.5 -80.5t-57 -58t-81.5 -21.5t-81.5 21.5zM909.5 13.5q-36.5 21.5 -57 58t-20.5 80.5t20.5 80.5t57 58t81.5 21.5t81.5 -21.5t57 -58t20.5 -80.5
t-20.5 -80.5t-57 -58t-81.5 -21.5t-81.5 21.5zM690.5 85q24.5 26 24.5 67t-24.5 67t-65.5 26t-65.5 -26t-24.5 -67t24.5 -67t65.5 -26t65.5 26zM1056.5 85q24.5 26 24.5 67t-24.5 67t-65.5 26t-65 -26t-24 -67t24 -67t65 -26t65.5 26z" />
    <glyph glyph-name="guilsinglleft" unicode="&#x2039;" horiz-adv-x="383" 
d="M48 283v55l278 202v-88l-194 -142l194 -142v-88z" />
    <glyph glyph-name="guilsinglright" unicode="&#x203a;" horiz-adv-x="383" 
d="M57 168l194 142l-194 142v88l278 -202v-55l-278 -203v88z" />
    <glyph glyph-name="fraction" unicode="&#x2044;" horiz-adv-x="611" 
d="M9 13l541 716l52 -41l-541 -717z" />
    <glyph glyph-name="uni2048" unicode="&#x2048;" horiz-adv-x="683" 
d="M478 700h110l-24 -497h-62zM487 15q-18 18 -18 45q0 28 18 46.5t46 18.5q27 0 45.5 -18.5t18.5 -46.5q0 -27 -18.5 -45t-45.5 -18q-28 0 -46 18zM136 234.5q-37 32.5 -37 90.5q0 48 27.5 79.5t84.5 59.5q46 22 67.5 36t30 27.5t8.5 33.5q0 36 -23.5 55t-64.5 19
q-80 0 -104 -91l-78 14q12 68 60 109t126 41q74 0 119.5 -40.5t45.5 -105.5q0 -49 -28.5 -79.5t-99.5 -64.5q-58 -29 -77 -48t-19 -47q0 -24 14.5 -38t37.5 -14q27 0 44.5 14t27.5 45l62 -23q-15 -52 -48.5 -78.5t-83.5 -26.5q-55 0 -92 32.5zM183 15q-18 18 -18 45
q0 28 18 46.5t46 18.5t46 -18.5t18 -46.5q0 -27 -18 -45t-46 -18t-46 18z" />
    <glyph glyph-name="uni2049" unicode="&#x2049;" horiz-adv-x="680" 
d="M206 700h-110l24 -497h62zM197 15q18 18 18 45q0 28 -18 46.5t-46 18.5q-27 0 -45.5 -18.5t-18.5 -46.5q0 -27 18.5 -45t45.5 -18q28 0 46 18zM371 234.5q-37 32.5 -37 90.5q0 48 27.5 79.5t84.5 59.5q46 22 67.5 36t30 27.5t8.5 33.5q0 36 -23.5 55t-64.5 19
q-80 0 -104 -91l-78 14q12 68 60 109t126 41q74 0 119.5 -40.5t45.5 -105.5q0 -49 -28.5 -79.5t-99.5 -64.5q-58 -29 -77 -48t-19 -47q0 -24 14.5 -38t37.5 -14q27 0 44.5 14t27.5 45l62 -23q-15 -52 -48.5 -78.5t-83.5 -26.5q-55 0 -92 32.5zM418 15q-18 18 -18 45
q0 28 18 46.5t46 18.5t46 -18.5t18 -46.5q0 -27 -18 -45t-46 -18t-46 18z" />
    <glyph glyph-name="uni2070" unicode="&#x2070;" horiz-adv-x="389" 
d="M83 350.5q-40 54.5 -40 149.5t40 149.5t112 54.5q71 0 111 -54.5t40 -149.5t-40 -149.5t-111 -54.5q-72 0 -112 54.5zM256.5 392q23.5 37 23.5 108t-23.5 108t-61.5 37q-39 0 -62.5 -37t-23.5 -108t23.5 -108t62.5 -37q38 0 61.5 37z" />
    <glyph glyph-name="uni2074" unicode="&#x2074;" horiz-adv-x="337" 
d="M200 377h-170v26l162 297h70v-263h49v-60h-49v-77h-62v77zM200 437v171l-90 -171h90z" />
    <glyph glyph-name="uni2075" unicode="&#x2075;" horiz-adv-x="331" 
d="M79.5 326.5q-35.5 30.5 -42.5 82.5l61 9q7 -29 23 -46t44 -17q33 0 51 20.5t18 57.5q0 38 -18 58t-51 20q-41 0 -72 -38l-47 10l21 217h209v-59h-156l-12 -100q12 10 31 17t38 7q58 0 90.5 -36t32.5 -96q0 -63 -36.5 -100t-98.5 -37q-50 0 -85.5 30.5z" />
    <glyph glyph-name="uni2076" unicode="&#x2076;" horiz-adv-x="354" 
d="M79.5 333q-36.5 37 -36.5 95q0 41 22 82l110 194h69l-90 -153q9 8 34 8q54 0 88.5 -35t34.5 -96q0 -57 -37 -94.5t-97 -37.5q-61 0 -97.5 37zM225.5 375.5q18.5 20.5 18.5 52.5q0 33 -18 52.5t-49 19.5t-49 -19.5t-18 -52.5q0 -32 18.5 -52.5t48.5 -20.5t48.5 20.5z" />
    <glyph glyph-name="uni2077" unicode="&#x2077;" horiz-adv-x="291" 
d="M190 641h-159v59h239v-26l-154 -374h-67z" />
    <glyph glyph-name="uni2078" unicode="&#x2078;" horiz-adv-x="345" 
d="M79.5 330q-36.5 34 -36.5 91q0 35 17.5 59t43.5 35q-21 12 -34 33.5t-13 48.5q0 46 32 76.5t83 30.5q52 0 83.5 -30.5t31.5 -76.5q0 -27 -12.5 -48.5t-33.5 -33.5q26 -11 43 -35t17 -59q0 -57 -36 -91t-93 -34q-56 0 -92.5 34zM212 556q15 15 15 40q0 26 -15 41.5
t-40 15.5t-40 -15.5t-15 -41.5q0 -25 15 -40t40 -15t40 15zM218 373q17 18 17 48q0 29 -17 46t-46 17t-45.5 -17t-16.5 -46q0 -30 16.5 -48t45.5 -18t46 18z" />
    <glyph glyph-name="uni2079" unicode="&#x2079;" horiz-adv-x="354" 
d="M200 449q-9 -8 -34 -8q-55 0 -89 35t-34 96q0 57 37 94.5t97 37.5t97 -37t37 -95q0 -43 -23 -82l-110 -194h-69zM225.5 519.5q18.5 19.5 18.5 52.5q0 32 -18.5 52.5t-48.5 20.5q-31 0 -49 -20.5t-18 -52.5q0 -33 18 -52.5t49 -19.5q30 0 48.5 19.5z" />
    <glyph glyph-name="uni2080" unicode="&#x2080;" horiz-adv-x="389" 
d="M83 -153.5q-40 54.5 -40 149.5t40 149.5t112 54.5q71 0 111 -54.5t40 -149.5t-40 -149.5t-111 -54.5q-72 0 -112 54.5zM256.5 -112q23.5 37 23.5 108t-23.5 108t-61.5 37q-39 0 -62.5 -37t-23.5 -108t23.5 -108t62.5 -37q38 0 61.5 37z" />
    <glyph glyph-name="uni2081" unicode="&#x2081;" horiz-adv-x="229" 
d="M112 106l-85 -40v69l125 61h23v-400h-63v310z" />
    <glyph glyph-name="uni2082" unicode="&#x2082;" horiz-adv-x="324" 
d="M33 -180l146 181q20 24 28 43t8 40q0 26 -14 40.5t-40 14.5q-24 0 -39.5 -18t-20.5 -50l-62 17q5 49 38.5 80.5t83.5 31.5q55 0 88 -32t33 -83q0 -53 -39 -103l-102 -125h150v-61h-258v24z" />
    <glyph glyph-name="uni2083" unicode="&#x2083;" horiz-adv-x="327" 
d="M75.5 -175.5q-36.5 32.5 -40.5 87.5l62 9q5 -32 23 -51t47 -19q32 0 48 20.5t16 55.5q0 34 -16 53t-48 19q-20 0 -35 -10l-31 40l82 108h-127v59h221v-23l-97 -128l13 1q46 0 75.5 -32.5t29.5 -87.5q0 -58 -33 -96t-97 -38q-56 0 -92.5 32.5z" />
    <glyph glyph-name="uni2084" unicode="&#x2084;" horiz-adv-x="337" 
d="M200 -127h-170v26l162 297h70v-263h49v-60h-49v-77h-62v77zM200 -67v171l-90 -171h90z" />
    <glyph glyph-name="uni2085" unicode="&#x2085;" horiz-adv-x="331" 
d="M79.5 -177.5q-35.5 30.5 -42.5 82.5l61 9q7 -29 23 -46t44 -17q33 0 51 20.5t18 57.5q0 38 -18 58t-51 20q-41 0 -72 -38l-47 10l21 217h209v-59h-156l-12 -100q12 10 31 17t38 7q58 0 90.5 -36t32.5 -96q0 -63 -36.5 -100t-98.5 -37q-50 0 -85.5 30.5z" />
    <glyph glyph-name="uni2086" unicode="&#x2086;" horiz-adv-x="354" 
d="M79.5 -171q-36.5 37 -36.5 95q0 41 22 82l110 194h69l-90 -153q9 8 34 8q54 0 88.5 -35t34.5 -96q0 -57 -37 -94.5t-97 -37.5q-61 0 -97.5 37zM225.5 -128.5q18.5 20.5 18.5 52.5q0 33 -18 52.5t-49 19.5t-49 -19.5t-18 -52.5q0 -32 18.5 -52.5t48.5 -20.5t48.5 20.5z
" />
    <glyph glyph-name="uni2087" unicode="&#x2087;" horiz-adv-x="291" 
d="M190 137h-159v59h239v-26l-154 -374h-67z" />
    <glyph glyph-name="uni2088" unicode="&#x2088;" horiz-adv-x="345" 
d="M79.5 -174q-36.5 34 -36.5 91q0 35 17.5 59t43.5 35q-21 12 -34 33.5t-13 48.5q0 46 32 76.5t83 30.5q52 0 83.5 -30.5t31.5 -76.5q0 -27 -12.5 -48.5t-33.5 -33.5q26 -11 43 -35t17 -59q0 -57 -36 -91t-93 -34q-56 0 -92.5 34zM212 52q15 15 15 40q0 26 -15 41.5
t-40 15.5t-40 -15.5t-15 -41.5q0 -25 15 -40t40 -15t40 15zM218 -131q17 18 17 48q0 29 -17 46t-46 17t-45.5 -17t-16.5 -46q0 -30 16.5 -48t45.5 -18t46 18z" />
    <glyph glyph-name="uni2089" unicode="&#x2089;" horiz-adv-x="354" 
d="M200 -55q-9 -8 -34 -8q-55 0 -89 35t-34 96q0 57 37 94.5t97 37.5t97 -37t37 -95q0 -43 -23 -82l-110 -194h-69zM225.5 15.5q18.5 19.5 18.5 52.5q0 32 -18.5 52.5t-48.5 20.5q-31 0 -49 -20.5t-18 -52.5q0 -33 18 -52.5t49 -19.5q30 0 48.5 19.5z" />
    <glyph glyph-name="franc" unicode="&#x20a3;" horiz-adv-x="538" 
d="M176 619v-215h268v-81h-268v-126h139v-81h-139v-116h-87v116h-53v81h53v503h415v-81h-328z" />
    <glyph glyph-name="uni20A8" unicode="&#x20a8;" horiz-adv-x="1000" 
d="M488.5 386.5q-37.5 -37.5 -98.5 -49.5l210 -337h-97l-209 332h-110v-332h-87v483h-63v66h63v151h235q87 0 139.5 -39t62.5 -112h64v-66h-64q-8 -59 -45.5 -96.5zM184 549h260q-16 70 -115 70h-145v-70zM956 145q0 -71 -44 -112t-117 -41q-77 0 -125 40t-63 97l69 37
q15 -48 43.5 -74t75.5 -26q37 0 59.5 19.5t22.5 56.5q0 33 -27 52t-84 40q-60 22 -92.5 55t-32.5 88q0 60 41.5 97.5t105.5 37.5q97 0 146 -79l-54 -48q-34 53 -93 53q-28 0 -47 -16.5t-19 -44.5t24.5 -46.5t87.5 -41.5q123 -45 123 -144zM329 413q99 0 115 70h-260v-70h145
z" />
    <glyph glyph-name="dong" unicode="&#x20ab;" horiz-adv-x="480" 
d="M444 596h-45v-414h-78v43q-16 -21 -44 -35.5t-60 -14.5q-78 0 -122 53t-44 140q0 85 44 138.5t121 53.5q34 0 60.5 -12.5t44.5 -35.5v84h-94v58h94v46h78v-46h45v-58zM300 277.5q26 33.5 26 90.5q0 56 -26 89.5t-71 33.5q-46 0 -72 -33.5t-26 -89.5q0 -57 26 -90.5
t72 -33.5q45 0 71 33.5zM444 66h-398v58h398v-58z" />
    <glyph glyph-name="Euro" unicode="&#x20ac;" horiz-adv-x="623" 
d="M208.5 58q-68.5 66 -87.5 180h-88l36 73h46v78h-82l36 73h52q19 114 87.5 180t174.5 66q69 0 118 -29.5t81 -86.5l-72 -41q-20 39 -53 60.5t-74 21.5q-70 0 -115.5 -44t-61.5 -127h243l-36 -73h-215v-78h251l-36 -73h-207q16 -83 61.5 -126.5t115.5 -43.5q41 0 74.5 21
t52.5 60l72 -41q-32 -57 -81 -86.5t-118 -29.5q-106 0 -174.5 66z" />
    <glyph glyph-name="uni20AD" unicode="&#x20ad;" horiz-adv-x="568" 
d="M168 349h-8v-349h-87v349h-53v72h53v279h87v-279h6l256 279h108l-254 -279h255v-72h-257l280 -349h-109z" />
    <glyph glyph-name="uni20B1" unicode="&#x20b1;" horiz-adv-x="653" 
d="M619 520h-67q1 -6 1 -19t-1 -19h67v-58h-78q-20 -59 -70 -91t-126 -32h-159v-301h-87v424h-65v58h65v38h-65v57h65v123h246q76 0 126.5 -32t69.5 -91h78v-57zM186 577h256q-29 42 -98 42h-158v-42zM462 520h-276v-38h276q1 6 1 19t-1 19zM442 424h-256v-42h158
q69 0 98 42z" />
    <glyph glyph-name="uni20B4" unicode="&#x20b4;" horiz-adv-x="518" 
d="M473 447v-73h-434v73h255q57 39 57 95q0 35 -25 60t-66 25q-76 0 -109 -78l-70 45q24 55 67 84.5t112 29.5q50 0 90 -20.5t63 -57.5t23 -84q0 -59 -37 -99h74zM39 326h434v-73h-250q-57 -39 -57 -95q0 -35 25.5 -60t66.5 -25q76 0 108 78l71 -45q-24 -55 -67 -84.5
t-112 -29.5q-50 0 -90 20.5t-63 57.5t-23 84q0 57 37 99h-80v73z" />
    <glyph glyph-name="uni20B8" unicode="&#x20b8;" horiz-adv-x="511" 
d="M28 675h455v-81h-455v81zM212 423h-184v81h455v-81h-184v-423h-87v423z" />
    <glyph glyph-name="uni20BA" unicode="&#x20ba;" horiz-adv-x="635" 
d="M597 260v-60q0 -93 -54.5 -146.5t-153.5 -53.5h-206v262l-163 -41v73l163 41v63l-163 -41v73l163 41v229h87v-207l174 43v-72l-174 -44v-63l174 43v-73l-174 -43v-203h118q60 0 89.5 31.5t29.5 87.5v60h90z" />
    <glyph glyph-name="uni20BD" unicode="&#x20bd;" horiz-adv-x="606" 
d="M199 301v-92h207v-81h-207v-128h-87v128h-78v81h78v92h-78v81h78v318h246q99 0 153.5 -53.5t54.5 -145.5q0 -93 -54.5 -146.5t-153.5 -53.5h-159zM199 382h158q61 0 90 31.5t29 87.5q0 55 -29 86.5t-90 31.5h-158v-237z" />
    <glyph glyph-name="uni20BF" unicode="&#x20bf;" horiz-adv-x="609" 
d="M506.5 67q-47.5 -53 -131.5 -64v-73h-73v70h-49v-70h-72v70h-94v700h94v70h72v-70h49v70h73v-75q68 -12 105.5 -57.5t37.5 -119.5q0 -50 -22.5 -84t-58.5 -51q54 -21 85.5 -65t31.5 -113q0 -85 -47.5 -138zM174 412h146q112 0 112 103q0 104 -113 104h-145v-207zM430 111
q36 30 36 95t-36 95t-108 30h-148v-250h148q72 0 108 30z" />
    <glyph glyph-name="uni2113" unicode="&#x2113;" horiz-adv-x="432" 
d="M407 129q-21 -68 -58 -102.5t-103 -34.5q-72 0 -108.5 38.5t-36.5 113.5v150q-47 -30 -48 -31l-40 63q38 22 88 57v192q0 57 30.5 95t92.5 38q60 0 86.5 -34.5t26.5 -83.5q0 -60 -35.5 -119t-93.5 -102l-20 -15v-218q0 -35 17 -52.5t46 -17.5q32 0 52 20t34 70zM188 582
v-130q31 30 48 66t17 71q0 44 -32 44q-33 0 -33 -51z" />
    <glyph glyph-name="uni2116" unicode="&#x2116;" horiz-adv-x="1239" 
d="M87 700h97l318 -552v552h86v-700h-97l-317 550v-550h-87v700zM739 73h424v-73h-424v73zM822.5 223.5q-55.5 35.5 -85 95.5t-29.5 129t29.5 129t85 95.5t128.5 35.5t128 -35.5t84.5 -95.5t29.5 -129t-29.5 -129t-84.5 -95.5t-128 -35.5t-128.5 35.5zM1035.5 288
q35.5 26 53.5 68.5t18 91.5t-18 91.5t-53.5 68.5t-84.5 26t-84.5 -26t-54 -68.5t-18.5 -91.5t18.5 -91.5t54 -68.5t84.5 -26t84.5 26z" />
    <glyph glyph-name="uni2117" unicode="&#x2117;" horiz-adv-x="878" 
d="M245.5 11q-86.5 51 -136 140t-49.5 199t49.5 199t136 140t193.5 51t193.5 -51t136 -140t49.5 -199t-49.5 -199t-136 -140t-193.5 -51t-193.5 51zM595.5 77q68.5 41 106.5 112.5t38 160.5t-38 160.5t-106.5 112.5t-156.5 41t-156.5 -41t-106.5 -112.5t-38 -160.5
t38 -160.5t106.5 -112.5t156.5 -41t156.5 41zM309 563h152q64 0 100 -33t36 -89q0 -122 -136 -122h-78v-182h-74v426zM458 382q33 0 49.5 15.5t16.5 43.5t-16.5 43.5t-49.5 15.5h-75v-118h75z" />
    <glyph glyph-name="uni2120" unicode="&#x2120;" horiz-adv-x="814" 
d="M81 322.5q-37 30.5 -46 78.5l51 30q17 -81 85 -81q28 0 46 16t18 44q0 30 -20 48.5t-67 36.5q-89 34 -89 111q0 44 30.5 73t79.5 29q43 0 67.5 -17t41.5 -53l-49 -30q-17 43 -59 43q-22 0 -36 -12.5t-14 -32.5q0 -18 10 -30t24.5 -19.5t51.5 -23.5q44 -20 68.5 -48
t24.5 -72q0 -53 -38 -87t-92 -34q-51 0 -88 30.5zM374 700h67l111 -266l111 266h67v-400h-65v262l-93 -225h-40l-93 225v-262h-65v400z" />
    <glyph glyph-name="trademark" unicode="&#x2122;" horiz-adv-x="824" 
d="M138 641h-110v59h286v-59h-111v-341h-65v341zM385 700h66l111 -266l112 266h66v-400h-64v262l-94 -225h-39l-94 225v-262h-64v400z" />
    <glyph glyph-name="uni2126" unicode="&#x2126;" horiz-adv-x="681" 
d="M39 78h154q-72 68 -116.5 145t-44.5 175q0 89 37.5 159.5t107.5 110.5t164 40q93 0 163 -40t107.5 -110.5t37.5 -159.5q0 -98 -44.5 -175t-116.5 -145h154v-78h-253v78q87 73 129 147.5t42 168.5q0 70 -27.5 123t-77.5 81.5t-114 28.5q-65 0 -114.5 -28.5t-77 -81.5
t-27.5 -123q0 -94 42 -168.5t128 -147.5v-78h-253v78z" />
    <glyph glyph-name="estimated" unicode="&#x212e;" horiz-adv-x="762" 
d="M157 153q33 -51 94 -82t130 -31q86 0 156.5 39.5t102.5 109.5h56q-43 -88 -128.5 -142t-186.5 -54q-104 0 -184 48t-123.5 129.5t-43.5 179.5q0 99 43.5 181t123.5 129.5t184 47.5q101 0 181 -45.5t125 -127t45 -185.5h-575v-197zM253.5 634q-59.5 -29 -96.5 -78v-159
h453v156q-32 46 -93.5 78t-135.5 32q-68 0 -127.5 -29z" />
    <glyph glyph-name="uni2153" unicode="&#x2153;" horiz-adv-x="815" 
d="M112 610l-85 -40v69l125 61h23v-400h-63v310zM91 13l541 716l52 -41l-541 -717zM563.5 24.5q-36.5 32.5 -40.5 87.5l62 9q5 -32 23 -51t47 -19q32 0 48 20.5t16 55.5q0 34 -16 53t-48 19q-20 0 -35 -10l-31 40l82 108h-127v59h221v-23l-97 -128l13 1q46 0 75.5 -32.5
t29.5 -87.5q0 -58 -33 -96t-97 -38q-56 0 -92.5 32.5z" />
    <glyph glyph-name="uni2154" unicode="&#x2154;" horiz-adv-x="906" 
d="M33 324l146 181q20 24 28 43t8 40q0 26 -14 40.5t-40 14.5q-24 0 -39.5 -18t-20.5 -50l-62 17q5 49 38.5 80.5t83.5 31.5q55 0 88 -32t33 -83q0 -53 -39 -103l-102 -125h150v-61h-258v24zM182 13l541 716l52 -41l-541 -717zM654.5 24.5q-36.5 32.5 -40.5 87.5l62 9
q5 -32 23 -51t47 -19q32 0 48 20.5t16 55.5q0 34 -16 53t-48 19q-20 0 -35 -10l-31 40l82 108h-127v59h221v-23l-97 -128l13 1q46 0 75.5 -32.5t29.5 -87.5q0 -58 -33 -96t-97 -38q-56 0 -92.5 32.5z" />
    <glyph glyph-name="oneeighth" unicode="&#x215b;" horiz-adv-x="809" 
d="M112 610l-85 -40v69l125 61h23v-400h-63v310zM91 13l541 716l52 -41l-541 -717zM543.5 26q-36.5 34 -36.5 91q0 35 17.5 59t43.5 35q-21 12 -34 33.5t-13 48.5q0 46 32 76.5t83 30.5q52 0 83.5 -30.5t31.5 -76.5q0 -27 -12.5 -48.5t-33.5 -33.5q26 -11 43 -35t17 -59
q0 -57 -36 -91t-93 -34q-56 0 -92.5 34zM676 252q15 15 15 40q0 26 -15 41.5t-40 15.5t-40 -15.5t-15 -41.5q0 -25 15 -40t40 -15t40 15zM682 69q17 18 17 48q0 29 -17 46t-46 17t-45.5 -17t-16.5 -46q0 -30 16.5 -48t45.5 -18t46 18z" />
    <glyph glyph-name="threeeighths" unicode="&#x215c;" horiz-adv-x="858" 
d="M75.5 328.5q-36.5 32.5 -40.5 87.5l62 9q5 -32 23 -51t47 -19q32 0 48 20.5t16 55.5q0 34 -16 53t-48 19q-20 0 -35 -10l-31 40l82 108h-127v59h221v-23l-97 -128l13 1q46 0 75.5 -32.5t29.5 -87.5q0 -58 -33 -96t-97 -38q-56 0 -92.5 32.5zM141 13l541 716l52 -41
l-541 -717zM592.5 26q-36.5 34 -36.5 91q0 35 17.5 59t43.5 35q-21 12 -34 33.5t-13 48.5q0 46 32 76.5t83 30.5q52 0 83.5 -30.5t31.5 -76.5q0 -27 -12.5 -48.5t-33.5 -33.5q26 -11 43 -35t17 -59q0 -57 -36 -91t-93 -34q-56 0 -92.5 34zM725 252q15 15 15 40
q0 26 -15 41.5t-40 15.5t-40 -15.5t-15 -41.5q0 -25 15 -40t40 -15t40 15zM731 69q17 18 17 48q0 29 -17 46t-46 17t-45.5 -17t-16.5 -46q0 -30 16.5 -48t45.5 -18t46 18z" />
    <glyph glyph-name="fiveeighths" unicode="&#x215d;" horiz-adv-x="858" 
d="M79.5 326.5q-35.5 30.5 -42.5 82.5l61 9q7 -29 23 -46t44 -17q33 0 51 20.5t18 57.5q0 38 -18 58t-51 20q-41 0 -72 -38l-47 10l21 217h209v-59h-156l-12 -100q12 10 31 17t38 7q58 0 90.5 -36t32.5 -96q0 -63 -36.5 -100t-98.5 -37q-50 0 -85.5 30.5zM141 13l541 716
l52 -41l-541 -717zM592.5 26q-36.5 34 -36.5 91q0 35 17.5 59t43.5 35q-21 12 -34 33.5t-13 48.5q0 46 32 76.5t83 30.5q52 0 83.5 -30.5t31.5 -76.5q0 -27 -12.5 -48.5t-33.5 -33.5q26 -11 43 -35t17 -59q0 -57 -36 -91t-93 -34q-56 0 -92.5 34zM725 252q15 15 15 40
q0 26 -15 41.5t-40 15.5t-40 -15.5t-15 -41.5q0 -25 15 -40t40 -15t40 15zM731 69q17 18 17 48q0 29 -17 46t-46 17t-45.5 -17t-16.5 -46q0 -30 16.5 -48t45.5 -18t46 18z" />
    <glyph glyph-name="seveneighths" unicode="&#x215e;" horiz-adv-x="768" 
d="M190 641h-159v59h239v-26l-154 -374h-67zM51 13l541 716l52 -41l-541 -717zM502.5 26q-36.5 34 -36.5 91q0 35 17.5 59t43.5 35q-21 12 -34 33.5t-13 48.5q0 46 32 76.5t83 30.5q52 0 83.5 -30.5t31.5 -76.5q0 -27 -12.5 -48.5t-33.5 -33.5q26 -11 43 -35t17 -59
q0 -57 -36 -91t-93 -34q-56 0 -92.5 34zM635 252q15 15 15 40q0 26 -15 41.5t-40 15.5t-40 -15.5t-15 -41.5q0 -25 15 -40t40 -15t40 15zM641 69q17 18 17 48q0 29 -17 46t-46 17t-45.5 -17t-16.5 -46q0 -30 16.5 -48t45.5 -18t46 18z" />
    <glyph glyph-name="arrowleft" unicode="&#x2190;" horiz-adv-x="649" 
d="M48 350l236 235l50 -52l-143 -146h406v-74h-406l143 -146l-50 -52z" />
    <glyph glyph-name="arrowup" unicode="&#x2191;" horiz-adv-x="637" 
d="M281 482l-145 -143l-52 51l234 235l235 -235l-52 -51l-146 143v-407h-74v407z" />
    <glyph glyph-name="arrowright" unicode="&#x2192;" horiz-adv-x="649" 
d="M311 167l143 146h-406v74h406l-143 146l51 52l235 -235l-235 -235z" />
    <glyph glyph-name="arrowdown" unicode="&#x2193;" horiz-adv-x="637" 
d="M84 310l52 51l145 -143v407h74v-407l146 143l52 -51l-235 -235z" />
    <glyph glyph-name="arrowboth" unicode="&#x2194;" horiz-adv-x="786" 
d="M48 350l236 235l50 -52l-143 -146h406v-74h-406l143 -146l-50 -52zM448 167l143 146h-406v74h406l-143 146l51 52l235 -235l-235 -235z" />
    <glyph glyph-name="arrowupdn" unicode="&#x2195;" horiz-adv-x="616" 
d="M271 554l-145 -143l-52 51l234 235l235 -235l-52 -51l-146 143v-407h-74v407zM74 239l52 51l145 -143v407h74v-407l146 143l52 -51l-235 -235z" />
    <glyph glyph-name="uni2196" unicode="&#x2196;" horiz-adv-x="639" 
d="M187 429v-204h-75v333h331v-76h-203l286 -286l-53 -54z" />
    <glyph glyph-name="uni2197" unicode="&#x2197;" horiz-adv-x="639" 
d="M113 196l287 286h-204v76h332v-333h-76v204l-285 -287z" />
    <glyph glyph-name="uni2198" unicode="&#x2198;" horiz-adv-x="639" 
d="M196 219h204l-287 285l54 54l285 -287v204h76v-333h-332v77z" />
    <glyph glyph-name="uni2199" unicode="&#x2199;" horiz-adv-x="639" 
d="M111 475h75v-204l286 287l54 -54l-287 -285h204v-77h-332v333z" />
    <glyph glyph-name="partialdiff" unicode="&#x2202;" horiz-adv-x="587" 
d="M144.5 19q-46.5 27 -72.5 75.5t-26 112.5q0 83 36 153t101 111t149 41q35 0 69.5 -12.5t52.5 -33.5q-9 79 -47 123.5t-99 44.5q-82 0 -124 -84l-81 22q24 60 79 98t127 38q115 0 173.5 -89t58.5 -260q0 -102 -31 -185t-96 -132.5t-163 -49.5q-60 0 -106.5 27zM357.5 97.5
q43.5 31.5 67.5 83t24 111.5q0 70 -33 108t-94 38q-56 0 -98.5 -32.5t-65.5 -85t-23 -109.5q0 -63 32.5 -104t89.5 -41t100.5 31.5z" />
    <glyph glyph-name="uni2206" unicode="&#x2206;" horiz-adv-x="581" 
d="M11 21l240 679h78l240 -679v-21h-558v21zM466 74l-176 514l-176 -514h352z" />
    <glyph glyph-name="product" unicode="&#x220f;" horiz-adv-x="544" 
d="M87 700h371v-700h-82v627h-207v-627h-82v700z" />
    <glyph glyph-name="summation" unicode="&#x2211;" horiz-adv-x="534" 
d="M55 28l206 322l-206 322v28h425v-73h-306l169 -267v-20l-169 -267h306v-73h-425v28z" />
    <glyph glyph-name="minus" unicode="&#x2212;" horiz-adv-x="568" 
d="M68 353h432v-73h-432v73z" />
    <glyph glyph-name="uni2215" unicode="&#x2215;" horiz-adv-x="531" 
d="M442 750h83l-436 -800h-83z" />
    <glyph glyph-name="uni2219" unicode="&#x2219;" horiz-adv-x="360" 
d="M114 236.5q-27 27.5 -27 66.5t27 66.5t66 27.5q38 0 65.5 -27.5t27.5 -66.5t-27.5 -66.5t-65.5 -27.5q-39 0 -66 27.5z" />
    <glyph glyph-name="radical" unicode="&#x221a;" horiz-adv-x="528" 
d="M138 315h-101v74h150l85 -263l174 582h76l-216 -708h-65z" />
    <glyph glyph-name="infinity" unicode="&#x221e;" horiz-adv-x="874" 
d="M104.5 220.5q-49.5 52.5 -49.5 138.5t49.5 138.5t134.5 52.5q116 0 198 -121q82 121 198 121q85 0 134.5 -52.5t49.5 -138.5t-49.5 -138.5t-134.5 -52.5q-116 0 -198 121q-82 -121 -198 -121q-85 0 -134.5 52.5zM330.5 270q37.5 30 67.5 89q-30 59 -67.5 89t-77.5 30
q-53 0 -85 -31.5t-32 -87.5t32 -87.5t85 -31.5q40 0 77.5 30zM706 271.5q32 31.5 32 87.5t-32 87.5t-85 31.5q-40 0 -77.5 -30t-67.5 -89q30 -59 67.5 -89t77.5 -30q53 0 85 31.5z" />
    <glyph glyph-name="integral" unicode="&#x222b;" horiz-adv-x="474" 
d="M-44 -207.5q-21 4.5 -33 10.5l32 71q24 -12 52 -12q41 0 64 22t32 68l114 582q18 93 65.5 133.5t125.5 40.5q22 0 41.5 -4.5t30.5 -10.5l-31 -71q-13 6 -24.5 9t-27.5 3q-78 0 -97 -90l-113 -582q-18 -94 -64 -134t-124 -40q-22 0 -43 4.5z" />
    <glyph glyph-name="approxequal" unicode="&#x2248;" horiz-adv-x="552" 
d="M324 167q-21 7 -50 22q-25 13 -44.5 20t-43.5 7q-26 0 -49.5 -12.5t-40.5 -34.5l-48 48q23 38 58 63.5t73 25.5q27 0 48 -7t50 -22q26 -14 45.5 -20.5t43.5 -6.5q51 0 90 47l48 -48q-23 -38 -58 -63.5t-74 -25.5q-27 0 -48 7zM324 370q-21 7 -50 22q-25 13 -44.5 20
t-43.5 7q-26 0 -49.5 -12.5t-40.5 -34.5l-48 48q23 38 58 63.5t73 25.5q27 0 48 -7t50 -22q26 -14 45.5 -20.5t43.5 -6.5q51 0 90 47l48 -48q-23 -38 -58 -63.5t-74 -25.5q-27 0 -48 7z" />
    <glyph glyph-name="notequal" unicode="&#x2260;" horiz-adv-x="540" 
d="M117 120l42 72h-91v73h132l56 98h-188v73h230l62 108l63 -36l-42 -72h91v-73h-132l-56 -98h188v-73h-230l-62 -108z" />
    <glyph glyph-name="lessequal" unicode="&#x2264;" horiz-adv-x="567" 
d="M107 360v84l353 188v-85l-273 -145l273 -145v-85zM68 73h431v-73h-431v73z" />
    <glyph glyph-name="greaterequal" unicode="&#x2265;" horiz-adv-x="567" 
d="M108 257l273 145l-273 145v85l353 -188v-84l-353 -188v85zM68 73h431v-73h-431v73z" />
    <glyph glyph-name="lozenge" unicode="&#x25ca;" horiz-adv-x="575" 
d="M66 350l181 350h81l181 -350l-181 -350h-81zM425 350l-138 272l-137 -272l137 -272z" />
    <glyph glyph-name="uniF8FF" unicode="&#xf8ff;" horiz-adv-x="792" 
d="M106.5 6.5q-6.5 6.5 -6.5 15.5v595q0 7 4.5 13.5t11.5 8.5l270 78l10 2l10 -2l270 -78q7 -2 11.5 -8.5t4.5 -13.5v-595q0 -9 -6.5 -15.5t-15.5 -6.5l-7 1l-267 77l-267 -77l-7 -1q-9 0 -15.5 6.5zM374 669l-230 -67q4 -62 35 -114t82.5 -84.5t112.5 -37.5v303z
M530.5 403.5q51.5 32.5 82.5 84.5t35 114l-230 67v-303q61 5 112.5 37.5zM374 118v204q-73 6 -134 43.5t-97 97.5v-412zM649 463q-37 -60 -97.5 -97.5t-133.5 -43.5v-204l231 -67v412z" />
    <glyph glyph-name="NULL" horiz-adv-x="251" 
 />
    <glyph glyph-name="Gcommaaccent.ss02" horiz-adv-x="706" 
d="M207.5 33q-71.5 41 -114.5 121.5t-43 195.5t44 195.5t116 121.5t156 41q106 0 178 -56.5t98 -153.5l-82 -22q-25 72 -74 111.5t-120 39.5q-66 0 -117 -31.5t-80 -94t-29 -151.5q0 -90 29 -152t79.5 -93.5t116.5 -31.5q91 0 139.5 53.5t51.5 149.5h-152v77h237v-353h-74
l-9 97q-26 -47 -77.5 -76t-118.5 -29q-83 0 -154.5 41zM309 -243q23 15 38.5 38.5t17.5 47.5q-24 7 -36 22t-12 34q0 23 15.5 39t40.5 16t41.5 -17.5t16.5 -45.5q0 -44 -30 -83t-77 -70z" />
    <glyph glyph-name="Kcommaaccent.ss02" horiz-adv-x="582" 
d="M87 700h87v-286l262 286h108l-286 -314l310 -386h-109l-285 359v-359h-87v700zM248 -243q23 15 38.5 38.5t17.5 47.5q-24 7 -36 22t-12 34q0 23 15.5 39t40.5 16t41.5 -17.5t16.5 -45.5q0 -44 -30 -83t-77 -70z" />
    <glyph glyph-name="Lcaron.ss02" horiz-adv-x="530" 
d="M87 700h87v-619h317v-81h-404v700zM366 553q23 15 38.5 38.5t17.5 47.5q-24 7 -36 22t-12 34q0 23 15.5 39t40.5 16t41.5 -17.5t16.5 -45.5q0 -44 -30 -83t-77 -70z" />
    <glyph glyph-name="Lcommaaccent.ss02" horiz-adv-x="530" 
d="M87 700h87v-619h317v-81h-404v700zM226 -243q23 15 38.5 38.5t17.5 47.5q-24 7 -36 22t-12 34q0 23 15.5 39t40.5 16t41.5 -17.5t16.5 -45.5q0 -44 -30 -83t-77 -70z" />
    <glyph glyph-name="Ncommaaccent.ss02" horiz-adv-x="674" 
d="M87 700h97l318 -552v552h86v-700h-97l-317 550v-550h-87v700zM276 -243q23 15 38.5 38.5t17.5 47.5q-24 7 -36 22t-12 34q0 23 15.5 39t40.5 16t41.5 -17.5t16.5 -45.5q0 -44 -30 -83t-77 -70z" />
    <glyph glyph-name="Rcommaaccent.ss02" 
d="M87 700h235q97 0 150.5 -48t53.5 -136q0 -74 -38 -119.5t-108 -59.5l210 -337h-97l-209 332h-110v-332h-87v700zM319 413q59 0 89 25t30 78q0 103 -119 103h-145v-206h145zM257 -243q23 15 38.5 38.5t17.5 47.5q-24 7 -36 22t-12 34q0 23 15.5 39t40.5 16t41.5 -17.5
t16.5 -45.5q0 -44 -30 -83t-77 -70z" />
    <glyph glyph-name="Scommaaccent.ss02" horiz-adv-x="514" 
d="M158.5 17.5q-48.5 25.5 -79.5 69.5t-40 96l72 45q37 -155 155 -155q51 0 83 30.5t32 88.5q0 38 -20 65t-50 45t-85 44q-68 33 -107.5 77.5t-39.5 113.5q0 49 23 88t63 61t90 22q69 0 112 -29.5t67 -84.5l-71 -45q-32 78 -108 78q-41 0 -66 -25t-25 -60t19 -60t47.5 -42
t77.5 -39q77 -35 119 -81.5t42 -123.5q0 -61 -26.5 -107t-73 -71.5t-104.5 -25.5t-106.5 25.5zM202 -243q23 15 38.5 38.5t17.5 47.5q-24 7 -36 22t-12 34q0 23 15.5 39t40.5 16t41.5 -17.5t16.5 -45.5q0 -44 -30 -83t-77 -70z" />
    <glyph glyph-name="uni021A.ss02" horiz-adv-x="552" 
d="M233 619h-205v81h496v-81h-205v-619h-86v619zM214 -243q23 15 38.5 38.5t17.5 47.5q-24 7 -36 22t-12 34q0 23 15.5 39t40.5 16t41.5 -17.5t16.5 -45.5q0 -44 -30 -83t-77 -70z" />
    <glyph glyph-name="i.loclTRK" horiz-adv-x="233" 
d="M75 504h83v-504h-83v504zM73.5 606.5q-17.5 17.5 -17.5 42.5q0 26 17.5 43t42.5 17q26 0 43.5 -17t17.5 -43t-17.5 -43t-43.5 -17q-25 0 -42.5 17.5z" />
    <glyph glyph-name="a.ss01" horiz-adv-x="577" 
d="M148 25.5q-50 33.5 -76 92.5t-26 134t26 134t76 92.5t121 33.5q48 0 87 -19t64 -52v63h82v-504h-82v66q-19 -30 -61 -52t-90 -22q-71 0 -121 33.5zM388 117q39 51 39 135q0 83 -39 134.5t-108 51.5t-108.5 -51.5t-39.5 -134.5t39.5 -134.5t108.5 -51.5t108 51z" />
    <glyph glyph-name="aacute.ss01" horiz-adv-x="577" 
d="M148 25.5q-50 33.5 -76 92.5t-26 134t26 134t76 92.5t121 33.5q48 0 87 -19t64 -52v63h82v-504h-82v66q-19 -30 -61 -52t-90 -22q-71 0 -121 33.5zM388 117q39 51 39 135q0 83 -39 134.5t-108 51.5t-108.5 -51.5t-39.5 -134.5t39.5 -134.5t108.5 -51.5t108 51zM315 703
h117l-123 -146h-63z" />
    <glyph glyph-name="abreve.ss01" horiz-adv-x="577" 
d="M148 25.5q-50 33.5 -76 92.5t-26 134t26 134t76 92.5t121 33.5q48 0 87 -19t64 -52v63h82v-504h-82v66q-19 -30 -61 -52t-90 -22q-71 0 -121 33.5zM388 117q39 51 39 135q0 83 -39 134.5t-108 51.5t-108.5 -51.5t-39.5 -134.5t39.5 -134.5t108.5 -51.5t108 51zM202 622
q-30 31 -30 78h64q0 -22 12 -35.5t33 -13.5q22 0 34 13.5t12 35.5h64q0 -48 -29.5 -78.5t-80.5 -30.5q-49 0 -79 31z" />
    <glyph glyph-name="acircumflex.ss01" horiz-adv-x="577" 
d="M148 25.5q-50 33.5 -76 92.5t-26 134t26 134t76 92.5t121 33.5q48 0 87 -19t64 -52v63h82v-504h-82v66q-19 -30 -61 -52t-90 -22q-71 0 -121 33.5zM388 117q39 51 39 135q0 83 -39 134.5t-108 51.5t-108.5 -51.5t-39.5 -134.5t39.5 -134.5t108.5 -51.5t108 51zM265 711
h26l143 -151h-85l-71 75l-70 -75h-85z" />
    <glyph glyph-name="adieresis.ss01" horiz-adv-x="577" 
d="M148 25.5q-50 33.5 -76 92.5t-26 134t26 134t76 92.5t121 33.5q48 0 87 -19t64 -52v63h82v-504h-82v66q-19 -30 -61 -52t-90 -22q-71 0 -121 33.5zM388 117q39 51 39 135q0 83 -39 134.5t-108 51.5t-108.5 -51.5t-39.5 -134.5t39.5 -134.5t108.5 -51.5t108 51zM152.5 601
q-15.5 16 -15.5 40t16 40.5t40 16.5t40 -16.5t16 -40.5t-16 -40t-40 -16q-25 0 -40.5 16zM324 601q-16 16 -16 40t16 40.5t39 16.5q25 0 41 -16.5t16 -40.5t-16 -40t-41 -16q-23 0 -39 16z" />
    <glyph glyph-name="agrave.ss01" horiz-adv-x="577" 
d="M148 25.5q-50 33.5 -76 92.5t-26 134t26 134t76 92.5t121 33.5q48 0 87 -19t64 -52v63h82v-504h-82v66q-19 -30 -61 -52t-90 -22q-71 0 -121 33.5zM388 117q39 51 39 135q0 83 -39 134.5t-108 51.5t-108.5 -51.5t-39.5 -134.5t39.5 -134.5t108.5 -51.5t108 51zM126 703
h118l69 -146h-63z" />
    <glyph glyph-name="amacron.ss01" horiz-adv-x="577" 
d="M148 25.5q-50 33.5 -76 92.5t-26 134t26 134t76 92.5t121 33.5q48 0 87 -19t64 -52v63h82v-504h-82v66q-19 -30 -61 -52t-90 -22q-71 0 -121 33.5zM388 117q39 51 39 135q0 83 -39 134.5t-108 51.5t-108.5 -51.5t-39.5 -134.5t39.5 -134.5t108.5 -51.5t108 51zM153 670
h250v-69h-250v69z" />
    <glyph glyph-name="aogonek.ss01" horiz-adv-x="577" 
d="M148 25.5q-50 33.5 -76 92.5t-26 134t26 134t76 92.5t121 33.5q48 0 87 -19t64 -52v63h82v-504h-82v66q-19 -30 -61 -52t-90 -22q-71 0 -121 33.5zM388 117q39 51 39 135q0 83 -39 134.5t-108 51.5t-108.5 -51.5t-39.5 -134.5t39.5 -134.5t108.5 -51.5t108 51zM403 -152
q-23 22 -23 59q0 26 14 51t38 42h70q-29 -26 -43 -44.5t-14 -34.5q0 -15 8.5 -23t22.5 -8t28 9l17 -59q-13 -8 -25.5 -11t-30.5 -3q-39 0 -62 22z" />
    <glyph glyph-name="aring.ss01" horiz-adv-x="577" 
d="M148 25.5q-50 33.5 -76 92.5t-26 134t26 134t76 92.5t121 33.5q48 0 87 -19t64 -52v63h82v-504h-82v66q-19 -30 -61 -52t-90 -22q-71 0 -121 33.5zM388 117q39 51 39 135q0 83 -39 134.5t-108 51.5t-108.5 -51.5t-39.5 -134.5t39.5 -134.5t108.5 -51.5t108 51zM207.5 585
q-28.5 28 -28.5 69q0 42 28.5 70.5t71.5 28.5t71.5 -28.5t28.5 -70.5q0 -41 -28.5 -69t-71.5 -28t-71.5 28zM311.5 622q12.5 13 12.5 32q0 20 -13 33.5t-32 13.5t-32 -13.5t-13 -33.5q0 -19 13 -32t32 -13q20 0 32.5 13z" />
    <glyph glyph-name="aringacute.ss01" horiz-adv-x="577" 
d="M148 25.5q-50 33.5 -76 92.5t-26 134t26 134t76 92.5t121 33.5q48 0 87 -19t64 -52v63h82v-504h-82v66q-19 -30 -61 -52t-90 -22q-71 0 -121 33.5zM388 117q39 51 39 135q0 83 -39 134.5t-108 51.5t-108.5 -51.5t-39.5 -134.5t39.5 -134.5t108.5 -51.5t108 51zM207.5 585
q-28.5 28 -28.5 69q0 42 28.5 70.5t71.5 28.5t71.5 -28.5t28.5 -70.5q0 -41 -28.5 -69t-71.5 -28t-71.5 28zM311.5 622q12.5 13 12.5 32q0 20 -13 33.5t-32 13.5t-32 -13.5t-13 -33.5q0 -19 13 -32t32 -13q20 0 32.5 13zM315 938h117l-123 -146h-63z" />
    <glyph glyph-name="atilde.ss01" horiz-adv-x="577" 
d="M148 25.5q-50 33.5 -76 92.5t-26 134t26 134t76 92.5t121 33.5q48 0 87 -19t64 -52v63h82v-504h-82v66q-19 -30 -61 -52t-90 -22q-71 0 -121 33.5zM388 117q39 51 39 135q0 83 -39 134.5t-108 51.5t-108.5 -51.5t-39.5 -134.5t39.5 -134.5t108.5 -51.5t108 51zM102 620
q18 33 47 54t60 21q24 0 41 -6t37 -17q18 -10 29 -14t25 -4q33 0 62 41l52 -42q-18 -33 -46.5 -54t-60.5 -21q-24 0 -40 6t-37 17q-16 9 -27.5 13.5t-26.5 4.5q-33 0 -63 -41z" />
    <glyph glyph-name="ae.ss01" horiz-adv-x="916" 
d="M148 25.5q-50 33.5 -76 92.5t-26 134t26 134t76 92.5t121 33.5q48 0 87 -19t64 -52v63h82v-56q25 31 64 47.5t85 16.5q66 0 116 -32t76.5 -86.5t26.5 -119.5v-35h-368q0 -79 38.5 -126t106.5 -47q52 0 85 23t59 75l70 -30q-36 -74 -87 -108t-123 -34q-45 0 -84 16t-65 48
v-56h-82v66q-19 -30 -61 -52t-90 -22q-71 0 -121 33.5zM388 117q39 51 39 135q0 83 -39 134.5t-108 51.5t-108.5 -51.5t-39.5 -134.5t39.5 -134.5t108.5 -51.5t108 51zM786 310q-9 59 -45 93.5t-96 34.5q-55 0 -92 -36t-48 -92h281z" />
    <glyph glyph-name="aeacute.ss01" horiz-adv-x="916" 
d="M148 25.5q-50 33.5 -76 92.5t-26 134t26 134t76 92.5t121 33.5q48 0 87 -19t64 -52v63h82v-56q25 31 64 47.5t85 16.5q66 0 116 -32t76.5 -86.5t26.5 -119.5v-35h-368q0 -79 38.5 -126t106.5 -47q52 0 85 23t59 75l70 -30q-36 -74 -87 -108t-123 -34q-45 0 -84 16t-65 48
v-56h-82v66q-19 -30 -61 -52t-90 -22q-71 0 -121 33.5zM388 117q39 51 39 135q0 83 -39 134.5t-108 51.5t-108.5 -51.5t-39.5 -134.5t39.5 -134.5t108.5 -51.5t108 51zM786 310q-9 59 -45 93.5t-96 34.5q-55 0 -92 -36t-48 -92h281zM497 703h117l-123 -146h-63z" />
    <glyph glyph-name="dcaron.ss02" horiz-adv-x="699" 
d="M148 25.5q-50 33.5 -76 92.5t-26 134t26 134t76 92.5t121 33.5q48 0 87 -19t64 -52v267h82v-708h-82v66q-19 -30 -61 -52t-90 -22q-71 0 -121 33.5zM388 117q39 51 39 135q0 83 -39 134.5t-108 51.5t-108.5 -51.5t-39.5 -134.5t39.5 -134.5t108.5 -51.5t108 51zM577 553
q23 15 38.5 38.5t17.5 47.5q-24 7 -36 22t-12 34q0 23 15.5 39t40.5 16t41.5 -17.5t16.5 -45.5q0 -44 -30 -83t-77 -70z" />
    <glyph glyph-name="gcommaaccent.ss02" horiz-adv-x="490" 
d="M95.5 -168q-58.5 44 -58.5 122q0 33 13.5 60t35.5 44q-36 31 -36 81q0 32 17 56.5t45 38.5q-37 45 -37 109q0 50 23.5 88.5t63.5 59.5t89 21q47 0 90 -23l90 51l36 -62l-71 -38q30 -43 30 -97q0 -51 -23 -89.5t-63 -59t-89 -20.5q-48 0 -88 20q-35 -17 -35 -50
q0 -23 16 -34t41 -11h121q73 0 116.5 -34.5t43.5 -102.5q0 -88 -60 -131t-154 -43q-98 0 -156.5 44zM319 270.5q27 26.5 27 72.5t-27 72.5t-68 26.5t-68.5 -26.5t-27.5 -72.5t27.5 -72.5t68.5 -26.5t68 26.5zM349.5 -114.5q34.5 25.5 34.5 68.5q0 40 -23.5 57.5t-68.5 17.5
h-91q-28 0 -52 3q-32 -29 -32 -76q0 -46 34.5 -71t100.5 -25q63 0 97.5 25.5zM210.5 579.5q-16.5 17.5 -16.5 44.5q0 44 29.5 83t77.5 71l15 -19q-23 -15 -38.5 -38.5t-17.5 -47.5q24 -7 36 -22t12 -34q0 -23 -15.5 -39t-40.5 -16t-41.5 17.5z" />
    <glyph glyph-name="kcommaaccent.ss02" horiz-adv-x="482" 
d="M75 708h83v-419l195 215h103l-213 -231l229 -273h-103l-211 256v-256h-83v708zM193 -243q23 15 38.5 38.5t17.5 47.5q-24 7 -36 22t-12 34q0 23 15.5 39t40.5 16t41.5 -17.5t16.5 -45.5q0 -44 -30 -83t-77 -70z" />
    <glyph glyph-name="lcaron.ss02" horiz-adv-x="342" 
d="M75 708h83v-708h-83v708zM220 553q23 15 38.5 38.5t17.5 47.5q-24 7 -36 22t-12 34q0 23 15.5 39t40.5 16t41.5 -17.5t16.5 -45.5q0 -44 -30 -83t-77 -70z" />
    <glyph glyph-name="lcommaaccent.ss02" horiz-adv-x="233" 
d="M75 708h83v-708h-83v708zM54 -243q23 15 38.5 38.5t17.5 47.5q-24 7 -36 22t-12 34q0 23 15.5 39t40.5 16t41.5 -17.5t16.5 -45.5q0 -44 -30 -83t-77 -70z" />
    <glyph glyph-name="ncommaaccent.ss02" horiz-adv-x="555" 
d="M75 504h83v-97q27 48 71.5 76.5t95.5 28.5q71 0 113 -42t42 -119v-351h-82v333q0 52 -23.5 78.5t-69.5 26.5q-41 0 -74.5 -27t-53 -77.5t-19.5 -118.5v-215h-83v504zM216 -243q23 15 38.5 38.5t17.5 47.5q-24 7 -36 22t-12 34q0 23 15.5 39t40.5 16t41.5 -17.5
t16.5 -45.5q0 -44 -30 -83t-77 -70z" />
    <glyph glyph-name="rcommaaccent.ss02" horiz-adv-x="392" 
d="M75 504h83v-87q24 46 62 70.5t86 24.5q33 0 71 -15l-17 -77q-31 17 -65 17q-60 0 -98.5 -63t-38.5 -184v-190h-83v504zM54 -243q23 15 38.5 38.5t17.5 47.5q-24 7 -36 22t-12 34q0 23 15.5 39t40.5 16t41.5 -17.5t16.5 -45.5q0 -44 -30 -83t-77 -70z" />
    <glyph glyph-name="scommaaccent.ss02" horiz-adv-x="435" 
d="M105 32q-48 40 -63 97l69 37q15 -48 43.5 -74t75.5 -26q37 0 59.5 19.5t22.5 56.5q0 33 -27 52t-84 40q-60 22 -92.5 55t-32.5 88q0 60 41.5 97.5t105.5 37.5q97 0 146 -79l-54 -48q-34 53 -93 53q-28 0 -47 -16.5t-19 -44.5t24.5 -46.5t87.5 -41.5q123 -45 123 -144
q0 -71 -44 -112t-117 -41q-77 0 -125 40zM166 -243q23 15 38.5 38.5t17.5 47.5q-24 7 -36 22t-12 34q0 23 15.5 39t40.5 16t41.5 -17.5t16.5 -45.5q0 -44 -30 -83t-77 -70z" />
    <glyph glyph-name="tcaron.ss02" horiz-adv-x="352" 
d="M135 32.5q-39 40.5 -39 121.5v276h-85v74h85v151l83 53v-204h135v-74h-135v-282q0 -82 70 -82q34 0 58 14l21 -70q-36 -18 -86 -18q-68 0 -107 40.5zM260 553q23 15 38.5 38.5t17.5 47.5q-24 7 -36 22t-12 34q0 23 15.5 39t40.5 16t41.5 -17.5t16.5 -45.5q0 -44 -30 -83
t-77 -70z" />
    <glyph glyph-name="uni021B.ss02" horiz-adv-x="352" 
d="M135 32.5q-39 40.5 -39 121.5v276h-85v74h85v151l83 53v-204h135v-74h-135v-282q0 -82 70 -82q34 0 58 14l21 -70q-36 -18 -86 -18q-68 0 -107 40.5zM164 -243q23 15 38.5 38.5t17.5 47.5q-24 7 -36 22t-12 34q0 23 15.5 39t40.5 16t41.5 -17.5t16.5 -45.5q0 -44 -30 -83
t-77 -70z" />
    <glyph glyph-name="f_b" horiz-adv-x="873" 
d="M724 478.5q51 -33.5 77 -92.5t26 -134t-26 -134t-77 -92.5t-123 -33.5q-46 0 -87.5 21t-59.5 48v-61h-82v634h-125q-38 0 -58.5 -22.5t-20.5 -67.5v-40h117v-74h-117v-430h-82v430h-75v74h75v30q0 88 42.5 131t119.5 43h206v-267q24 32 63.5 51.5t83.5 19.5
q72 0 123 -33.5zM701.5 117.5q39.5 51.5 39.5 134.5t-39.5 134.5t-108.5 51.5q-68 0 -107.5 -51.5t-39.5 -134.5t39 -134.5t108 -51.5t108.5 51.5z" />
    <glyph glyph-name="f_f_b" horiz-adv-x="1159" 
d="M1010 478.5q51 -33.5 77 -92.5t26 -134t-26 -134t-77 -92.5t-123 -33.5q-46 0 -87.5 21t-59.5 48v-61h-82v634h-126q-37 0 -57.5 -22.5t-20.5 -67.5v-40h117v-74h-117v-430h-82v430h-204v-430h-82v430h-75v74h75v30q0 88 42.5 131t119.5 43q41 0 71 -15l-18 -71
q-26 12 -54 12q-38 0 -58.5 -22.5t-20.5 -67.5v-40h204v30q0 88 42.5 131t119.5 43h206v-267q24 32 63.5 51.5t83.5 19.5q72 0 123 -33.5zM987.5 117.5q39.5 51.5 39.5 134.5t-39.5 134.5t-108.5 51.5q-68 0 -107.5 -51.5t-39.5 -134.5t39 -134.5t108 -51.5t108.5 51.5z" />
    <glyph glyph-name="f_f_h" horiz-adv-x="1145" 
d="M1028.5 470.5q41.5 -41.5 41.5 -119.5v-351h-82v331q0 52 -24 79.5t-71 27.5q-41 0 -76 -26.5t-56 -77.5t-21 -120v-214h-82v634h-126q-37 0 -57.5 -22.5t-20.5 -67.5v-40h117v-74h-117v-430h-82v430h-204v-430h-82v430h-75v74h75v30q0 88 42.5 131t119.5 43q41 0 71 -15
l-18 -71q-26 12 -54 12q-38 0 -58.5 -22.5t-20.5 -67.5v-40h204v30q0 88 42.5 131t119.5 43h206v-305q25 52 72 80.5t101 28.5q74 0 115.5 -41.5z" />
    <glyph glyph-name="f_f_j" horiz-adv-x="796" 
d="M740 504v-528q0 -83 -38 -128t-115 -60l-19 75q47 13 68.5 37.5t21.5 76.5v453h-204v-430h-82v430h-204v-430h-82v430h-75v74h75v30q0 88 42.5 131t119.5 43q41 0 71 -15l-18 -71q-26 12 -54 12q-38 0 -58.5 -22.5t-20.5 -67.5v-40h204v13q0 91 58.5 141t149.5 50
q36 0 68.5 -7.5t55.5 -21.5l-21 -72q-48 27 -104 27q-57 0 -91 -30t-34 -81v-19h286z" />
    <glyph glyph-name="f_f_k" horiz-adv-x="1064" 
d="M1054 0h-102l-212 256v-256h-82v634h-126q-37 0 -57.5 -22.5t-20.5 -67.5v-40h117v-74h-117v-430h-82v430h-204v-430h-82v430h-75v74h75v30q0 88 42.5 131t119.5 43q41 0 71 -15l-18 -71q-26 12 -54 12q-38 0 -58.5 -22.5t-20.5 -67.5v-40h204v30q0 88 42.5 131t119.5 43
h206v-419l196 215h102l-213 -231z" />
    <glyph glyph-name="f_h" horiz-adv-x="859" 
d="M86 430h-75v74h75v30q0 88 42.5 131t119.5 43h206v-305q25 52 72 80.5t101 28.5q74 0 115.5 -41.5t41.5 -119.5v-351h-82v331q0 52 -24 79.5t-71 27.5q-41 0 -76 -26.5t-56 -77.5t-21 -120v-214h-82v634h-125q-38 0 -58.5 -22.5t-20.5 -67.5v-40h117v-74h-117v-430h-82
v430z" />
    <glyph glyph-name="f_i" horiz-adv-x="510" 
d="M86 430h-75v74h75v13q0 91 58.5 141t149.5 50q36 0 68.5 -7.5t55.5 -21.5l-21 -72q-48 27 -104 27q-57 0 -91 -30t-34 -81v-19h286v-504h-82v430h-204v-430h-82v430z" />
    <glyph glyph-name="f_j" horiz-adv-x="510" 
d="M282 -137q47 13 68.5 37.5t21.5 76.5v453h-204v-430h-82v430h-75v74h75v13q0 91 58.5 141t149.5 50q36 0 68.5 -7.5t55.5 -21.5l-21 -72q-48 27 -104 27q-57 0 -91 -30t-34 -81v-19h286v-528q0 -83 -38 -128t-115 -60z" />
    <glyph glyph-name="f_k" horiz-adv-x="778" 
d="M768 0h-102l-212 256v-256h-82v634h-125q-38 0 -58.5 -22.5t-20.5 -67.5v-40h117v-74h-117v-430h-82v430h-75v74h75v30q0 88 42.5 131t119.5 43h206v-419l196 215h102l-213 -231z" />
    <glyph glyph-name="f_l" horiz-adv-x="529" 
d="M86 430h-75v74h75v30q0 88 42.5 131t119.5 43h206v-708h-82v634h-125q-38 0 -58.5 -22.5t-20.5 -67.5v-40h117v-74h-117v-430h-82v430z" />
    <glyph glyph-name="lambda_lambda" horiz-adv-x="812" 
d="M802 0h-84l-130 378l-139 -378h-85l-130 378l-139 -378h-85l182 494l-27 75q-13 37 -30.5 51.5t-45.5 14.5q-17 0 -30 -6l-18 69q30 10 56 10q97 0 135 -106l175 -486l139 378l-27 75q-14 37 -31 51.5t-45 14.5q-16 0 -30 -6l-18 69q30 10 56 10q97 0 135 -106z" />
    <glyph glyph-name="zero.osf" horiz-adv-x="577" 
d="M160.5 27.5q-55.5 35.5 -85 95.5t-29.5 129t29.5 129t85 95.5t128.5 35.5t128 -35.5t84.5 -95.5t29.5 -129t-29.5 -129t-84.5 -95.5t-128 -35.5t-128.5 35.5zM373.5 92q35.5 26 53.5 68.5t18 91.5t-18 91.5t-53.5 68.5t-84.5 26t-84.5 -26t-54 -68.5t-18.5 -91.5
t18.5 -91.5t54 -68.5t84.5 -26t84.5 26z" />
    <glyph glyph-name="one.osf" horiz-adv-x="326" 
d="M168 375l-122 -75v95l176 109h29v-504h-83v375z" />
    <glyph glyph-name="two.osf" horiz-adv-x="433" 
d="M36 32l156 160l22 22q46 47 63 73.5t17 63.5q0 43 -23 64.5t-61 21.5q-42 0 -68 -25t-32 -74l-76 14q2 46 25.5 82.5t63 57t87.5 20.5q75 0 120.5 -42.5t45.5 -116.5q0 -50 -26 -89.5t-85 -99.5l-87 -88h222v-76h-364v32z" />
    <glyph glyph-name="three.osf" horiz-adv-x="525" 
d="M109.5 -150q-60.5 54 -70.5 147l81 11q9 -63 45 -99.5t95 -36.5q68 0 105 40t37 110q0 73 -37.5 112.5t-103.5 39.5q-34 0 -62 -17l-37 49l165 223h-254v75h378v-26l-181 -242q10 3 26 3q52 0 95.5 -26t69 -75.5t25.5 -115.5q0 -67 -28 -118t-79 -79.5t-119 -28.5
q-90 0 -150.5 54z" />
    <glyph glyph-name="four.osf" horiz-adv-x="546" 
d="M345 -45h-306v32l295 517h94v-474h88v-75h-88v-151h-83v151zM345 30v354l-197 -354h197z" />
    <glyph glyph-name="five.osf" horiz-adv-x="512" 
d="M113 -154q-58 50 -69 142l80 14q21 -130 135 -130q65 0 99 42.5t34 118.5q0 79 -35 120t-97 41q-47 0 -83 -23t-61 -61l-55 12l37 382h337v-75h-266l-21 -204q48 43 124 43q95 0 149.5 -63.5t54.5 -171.5q0 -69 -26.5 -123t-76 -84t-114.5 -30q-88 0 -146 50z" />
    <glyph glyph-name="six.osf" horiz-adv-x="538" 
d="M154 22q-51 30 -79.5 82t-28.5 116q0 69 41 141l201 347h89l-154 -271q8 5 22.5 8t26.5 3q64 0 114 -29.5t78 -81.5t28 -117q0 -64 -28.5 -116t-79 -82t-115.5 -30q-64 0 -115 30zM369 110.5q39 42.5 39 109.5q0 70 -38.5 111.5t-100.5 41.5q-61 0 -100 -41.5t-39 -111.5
q0 -67 39.5 -109.5t99.5 -42.5q61 0 100 42.5z" />
    <glyph glyph-name="seven.osf" horiz-adv-x="464" 
d="M334 429h-301v75h400v-30l-273 -670h-84z" />
    <glyph glyph-name="eight.osf" horiz-adv-x="528" 
d="M156 16.5q-49 24.5 -78.5 71.5t-29.5 112q0 62 29.5 109.5t76.5 67.5q-37 22 -59 59.5t-22 86.5q0 53 24 95t67.5 66t99.5 24t99.5 -24t67.5 -66t24 -95q0 -48 -22.5 -85.5t-58.5 -60.5q47 -20 76.5 -67.5t29.5 -109.5q0 -65 -29.5 -112t-78.5 -71.5t-108 -24.5
t-108 24.5zM344.5 439q30.5 31 30.5 83t-30.5 83t-80.5 31t-80.5 -31t-30.5 -83t30.5 -83t80.5 -31t80.5 31zM360 103q36 35 36 97t-36.5 97.5t-95.5 35.5t-95.5 -35.5t-36.5 -97.5t36.5 -97t95.5 -35q60 0 96 35z" />
    <glyph glyph-name="nine.osf" horiz-adv-x="538" 
d="M316 67q-8 -5 -22.5 -8t-26.5 -3q-64 0 -114.5 29.5t-78.5 81.5t-28 117q0 64 28.5 116t79.5 82t115 30t115 -30t79.5 -82t28.5 -116q0 -31 -9.5 -64t-26.5 -63l-206 -361h-89zM369.5 173q38.5 41 38.5 111q0 67 -39.5 110t-99.5 43t-99.5 -43t-39.5 -110q0 -70 39 -111
t100 -41q62 0 100.5 41z" />
    <glyph glyph-name="zero.osf.zero" horiz-adv-x="577" 
d="M417 476.5q55 -35.5 84.5 -95.5t29.5 -129t-29.5 -129t-84.5 -95.5t-128 -35.5t-128.5 35.5t-85 95.5t-29.5 129t29.5 129t85 95.5t128.5 35.5t128 -35.5zM204.5 412q-35.5 -26 -54 -68.5t-18.5 -91.5q0 -37 10.5 -71t31.5 -60l174 305q-25 12 -59 12q-49 0 -84.5 -26z
M373.5 92q35.5 26 53.5 68.5t18 91.5q0 36 -10 69.5t-30 59.5l-174 -304q27 -11 58 -11q49 0 84.5 26z" />
    <glyph glyph-name="zero.tf" 
d="M126.5 88q-63.5 96 -63.5 262t63.5 262t183.5 96t183 -95.5t63 -262.5t-63 -262.5t-183 -95.5t-183.5 96zM430.5 144q42.5 76 42.5 206t-42.5 206.5t-120.5 76.5q-79 0 -121 -76.5t-42 -206.5t42 -206t121 -76q78 0 120.5 76z" />
    <glyph glyph-name="one.tf" 
d="M486 81v-81h-352v81h136v490l-122 -75v95l176 109h28v-619h134z" />
    <glyph glyph-name="two.tf" 
d="M98 32l253 328q42 53 56.5 84.5t14.5 71.5q0 54 -30 85.5t-82 31.5q-49 0 -81 -34.5t-40 -91.5l-77 15q4 54 30.5 96t70.5 66t98 24q88 0 141.5 -51.5t53.5 -140.5q0 -46 -19.5 -89.5t-57.5 -91.5l-200 -259h293v-76h-424v32z" />
    <glyph glyph-name="three.tf" 
d="M156.5 46q-60.5 54 -70.5 147l81 11q9 -63 45 -99.5t95 -36.5q68 0 105 40t37 110q0 73 -37.5 112.5t-103.5 39.5q-34 0 -62 -17l-37 49l165 223h-254v75h378v-26l-181 -242q10 3 26 3q52 0 95.5 -26t69 -75.5t25.5 -115.5q0 -67 -28 -118t-79 -79.5t-119 -28.5
q-90 0 -150.5 54z" />
    <glyph glyph-name="four.tf" 
d="M377 151h-306v32l295 517h94v-474h88v-75h-88v-151h-83v151zM377 226v354l-197 -354h197z" />
    <glyph glyph-name="five.tf" 
d="M162 42q-58 50 -69 142l80 14q21 -130 135 -130q65 0 99 42.5t34 118.5q0 79 -35 120t-97 41q-47 0 -83 -23t-61 -61l-55 12l37 382h337v-75h-266l-21 -204q48 43 124 43q95 0 149.5 -63.5t54.5 -171.5q0 -69 -26.5 -123t-76 -84t-114.5 -30q-88 0 -146 50z" />
    <glyph glyph-name="six.tf" 
d="M195 22q-51 30 -79.5 82t-28.5 116q0 69 41 141l201 347h89l-154 -271q8 5 22.5 8t26.5 3q64 0 114 -29.5t78 -81.5t28 -117q0 -64 -28.5 -116t-79 -82t-115.5 -30q-64 0 -115 30zM410 110.5q39 42.5 39 109.5q0 70 -38.5 111.5t-100.5 41.5q-61 0 -100 -41.5t-39 -111.5
q0 -67 39.5 -109.5t99.5 -42.5q61 0 100 42.5z" />
    <glyph glyph-name="seven.tf" 
d="M411 625h-301v75h400v-30l-273 -670h-84z" />
    <glyph glyph-name="eight.tf" 
d="M202 16.5q-49 24.5 -78.5 71.5t-29.5 112q0 62 29.5 109.5t76.5 67.5q-37 22 -59 59.5t-22 86.5q0 53 24 95t67.5 66t99.5 24t99.5 -24t67.5 -66t24 -95q0 -48 -22.5 -85.5t-58.5 -60.5q47 -20 76.5 -67.5t29.5 -109.5q0 -65 -29.5 -112t-78.5 -71.5t-108 -24.5
t-108 24.5zM390.5 439q30.5 31 30.5 83t-30.5 83t-80.5 31t-80.5 -31t-30.5 -83t30.5 -83t80.5 -31t80.5 31zM406 103q36 35 36 97t-36.5 97.5t-95.5 35.5t-95.5 -35.5t-36.5 -97.5t36.5 -97t95.5 -35q60 0 96 35z" />
    <glyph glyph-name="nine.tf" 
d="M357 263q-8 -5 -22.5 -8t-26.5 -3q-64 0 -114.5 29.5t-78.5 81.5t-28 117q0 64 28.5 116t79.5 82t115 30t115 -30t79.5 -82t28.5 -116q0 -31 -9.5 -64t-26.5 -63l-206 -361h-89zM410.5 369q38.5 41 38.5 111q0 67 -39.5 110t-99.5 43t-99.5 -43t-39.5 -110q0 -70 39 -111
t100 -41q62 0 100.5 41z" />
    <glyph glyph-name="zero.tf.zero" 
d="M126.5 88q-63.5 96 -63.5 262t63.5 262t183.5 96t183 -95.5t63 -262.5t-63 -262.5t-183 -95.5t-183.5 96zM401 595q-40 38 -91 38q-79 0 -121 -76.5t-42 -206.5q0 -103 27 -171zM430.5 144q42.5 76 42.5 206q0 100 -28 172l-227 -416q38 -38 92 -38q78 0 120.5 76z" />
    <glyph glyph-name="zero.tosf" 
d="M181.5 27.5q-55.5 35.5 -85 95.5t-29.5 129t29.5 129t85 95.5t128.5 35.5t128 -35.5t84.5 -95.5t29.5 -129t-29.5 -129t-84.5 -95.5t-128 -35.5t-128.5 35.5zM394.5 92q35.5 26 53.5 68.5t18 91.5t-18 91.5t-53.5 68.5t-84.5 26t-84.5 -26t-54 -68.5t-18.5 -91.5
t18.5 -91.5t54 -68.5t84.5 -26t84.5 26z" />
    <glyph glyph-name="one.tosf" 
d="M493 76v-76h-366v76h143v299l-122 -75v95l176 109h29v-428h140z" />
    <glyph glyph-name="two.tosf" 
d="M129 32l156 160l22 22q46 47 63 73.5t17 63.5q0 43 -23 64.5t-61 21.5q-42 0 -68 -25t-32 -74l-76 14q2 46 25.5 82.5t63 57t87.5 20.5q75 0 120.5 -42.5t45.5 -116.5q0 -50 -26 -89.5t-85 -99.5l-87 -88h222v-76h-364v32z" />
    <glyph glyph-name="three.tosf" 
d="M156.5 -150q-60.5 54 -70.5 147l81 11q9 -63 45 -99.5t95 -36.5q68 0 105 40t37 110q0 73 -37.5 112.5t-103.5 39.5q-34 0 -62 -17l-37 49l165 223h-254v75h378v-26l-181 -242q10 3 26 3q52 0 95.5 -26t69 -75.5t25.5 -115.5q0 -67 -28 -118t-79 -79.5t-119 -28.5
q-90 0 -150.5 54z" />
    <glyph glyph-name="four.tosf" 
d="M377 -45h-306v32l295 517h94v-474h88v-75h-88v-151h-83v151zM377 30v354l-197 -354h197z" />
    <glyph glyph-name="five.tosf" 
d="M162 -154q-58 50 -69 142l80 14q21 -130 135 -130q65 0 99 42.5t34 118.5q0 79 -35 120t-97 41q-47 0 -83 -23t-61 -61l-55 12l37 382h337v-75h-266l-21 -204q48 43 124 43q95 0 149.5 -63.5t54.5 -171.5q0 -69 -26.5 -123t-76 -84t-114.5 -30q-88 0 -146 50z" />
    <glyph glyph-name="six.tosf" 
d="M195 22q-51 30 -79.5 82t-28.5 116q0 69 41 141l201 347h89l-154 -271q8 5 22.5 8t26.5 3q64 0 114 -29.5t78 -81.5t28 -117q0 -64 -28.5 -116t-79 -82t-115.5 -30q-64 0 -115 30zM410 110.5q39 42.5 39 109.5q0 70 -38.5 111.5t-100.5 41.5q-61 0 -100 -41.5t-39 -111.5
q0 -67 39.5 -109.5t99.5 -42.5q61 0 100 42.5z" />
    <glyph glyph-name="seven.tosf" 
d="M411 428h-301v75h400v-30l-273 -670h-84z" />
    <glyph glyph-name="eight.tosf" 
d="M202 16.5q-49 24.5 -78.5 71.5t-29.5 112q0 62 29.5 109.5t76.5 67.5q-37 22 -59 59.5t-22 86.5q0 53 24 95t67.5 66t99.5 24t99.5 -24t67.5 -66t24 -95q0 -48 -22.5 -85.5t-58.5 -60.5q47 -20 76.5 -67.5t29.5 -109.5q0 -65 -29.5 -112t-78.5 -71.5t-108 -24.5
t-108 24.5zM390.5 439q30.5 31 30.5 83t-30.5 83t-80.5 31t-80.5 -31t-30.5 -83t30.5 -83t80.5 -31t80.5 31zM406 103q36 35 36 97t-36.5 97.5t-95.5 35.5t-95.5 -35.5t-36.5 -97.5t36.5 -97t95.5 -35q60 0 96 35z" />
    <glyph glyph-name="nine.tosf" 
d="M357 67q-8 -5 -22.5 -8t-26.5 -3q-64 0 -114.5 29.5t-78.5 81.5t-28 117q0 64 28.5 116t79.5 82t115 30t115 -30t79.5 -82t28.5 -116q0 -31 -9.5 -64t-26.5 -63l-206 -361h-89zM410.5 173q38.5 41 38.5 111q0 67 -39.5 110t-99.5 43t-99.5 -43t-39.5 -110q0 -70 39 -111
t100 -41q62 0 100.5 41z" />
    <glyph glyph-name="zero.tosf.zero" 
d="M438 476.5q55 -35.5 84.5 -95.5t29.5 -129t-29.5 -129t-84.5 -95.5t-128 -35.5t-128.5 35.5t-85 95.5t-29.5 129t29.5 129t85 95.5t128.5 35.5t128 -35.5zM225.5 412q-35.5 -26 -54 -68.5t-18.5 -91.5q0 -37 10.5 -71t31.5 -60l174 305q-25 12 -59 12q-49 0 -84.5 -26z
M394.5 92q35.5 26 53.5 68.5t18 91.5q0 36 -10 69.5t-30 59.5l-174 -304q27 -11 58 -11q49 0 84.5 26z" />
    <glyph glyph-name="zero.zero" horiz-adv-x="601" 
d="M117.5 88q-63.5 96 -63.5 262t63.5 262t183.5 96t183 -95.5t63 -262.5t-63 -262.5t-183 -95.5t-183.5 96zM392 595q-40 38 -91 38q-79 0 -121 -76.5t-42 -206.5q0 -103 27 -171zM421.5 144q42.5 76 42.5 206q0 100 -28 172l-227 -416q38 -38 92 -38q78 0 120.5 76z" />
    <glyph glyph-name="uni2080.zero" horiz-adv-x="389" 
d="M306 145.5q40 -54.5 40 -149.5t-40 -149.5t-111 -54.5q-72 0 -112 54.5t-40 149.5t40 149.5t112 54.5q71 0 111 -54.5zM132.5 104q-23.5 -37 -23.5 -108q0 -57 16 -94l97 234q-13 5 -27 5q-39 0 -62.5 -37zM256.5 -112q23.5 37 23.5 108q0 57 -16 94l-97 -233
q14 -6 28 -6q38 0 61.5 37z" />
    <glyph glyph-name="uni2070.zero" horiz-adv-x="389" 
d="M306 649.5q40 -54.5 40 -149.5t-40 -149.5t-111 -54.5q-72 0 -112 54.5t-40 149.5t40 149.5t112 54.5q71 0 111 -54.5zM132.5 608q-23.5 -37 -23.5 -108q0 -57 16 -94l97 234q-13 5 -27 5q-39 0 -62.5 -37zM256.5 392q23.5 37 23.5 108q0 57 -16 94l-97 -233q14 -6 28 -6
q38 0 61.5 37z" />
    <glyph glyph-name="bullet.case" horiz-adv-x="338" 
d="M111 292q-24 24 -24 58t24 58t58 24t58 -24t24 -58t-24 -58t-58 -24t-58 24z" />
    <glyph glyph-name="exclamdown.case" horiz-adv-x="301" 
d="M104 593.5q-18 18.5 -18 46.5q0 27 18 45t46 18q27 0 45.5 -18t18.5 -45q0 -28 -18.5 -46.5t-45.5 -18.5q-28 0 -46 18.5zM119 497h62l24 -497h-110z" />
    <glyph glyph-name="questiondown.case" horiz-adv-x="445" 
d="M309 465.5q37 -32.5 37 -90.5q0 -48 -27.5 -79.5t-84.5 -59.5q-46 -22 -67.5 -36t-30 -27.5t-8.5 -33.5q0 -36 23.5 -55t64.5 -19q80 0 104 91l78 -14q-12 -68 -60 -109t-126 -41q-74 0 -119.5 40.5t-45.5 105.5q0 49 28.5 79.5t99.5 64.5q58 29 77 48t19 47
q0 24 -14.5 38t-37.5 14q-27 0 -44.5 -14t-27.5 -45l-62 23q15 52 48.5 78.5t83.5 26.5q55 0 92 -32.5zM262 685q18 -18 18 -45q0 -28 -18 -46.5t-46 -18.5t-46 18.5t-18 46.5q0 27 18 45t46 18t46 -18z" />
    <glyph glyph-name="comma.ss02" horiz-adv-x="243" 
d="M51 -91q24 17 40.5 42t18.5 50q-51 16 -51 60q0 25 17 42t44 17t44.5 -19t17.5 -48q0 -47 -32 -89t-84 -75z" />
    <glyph glyph-name="semicolon.ss02" horiz-adv-x="245" 
d="M78.5 375.5q-17.5 17.5 -17.5 43.5q0 27 17.5 44.5t43.5 17.5q27 0 44.5 -17.5t17.5 -44.5q0 -26 -17.5 -43.5t-44.5 -17.5q-26 0 -43.5 17.5zM51 -91q24 17 40.5 42t18.5 50q-51 16 -51 60q0 25 17 42t44 17t44.5 -19t17.5 -48q0 -47 -32 -89t-84 -75z" />
    <glyph glyph-name="comma.tf" 
d="M247 104h117l-111 -200h-61z" />
    <glyph glyph-name="period.tf" 
d="M267.5 14.5q-17.5 17.5 -17.5 43.5q0 27 17.5 44.5t43.5 17.5q27 0 44.5 -17.5t17.5 -44.5q0 -26 -17.5 -43.5t-44.5 -17.5q-26 0 -43.5 17.5z" />
    <glyph glyph-name="comma.ss02.tf" 
d="M244 -91q24 17 40.5 42t18.5 50q-51 16 -51 60q0 25 17 42t44 17t44.5 -19t17.5 -48q0 -47 -32 -89t-84 -75z" />
    <glyph glyph-name="semicolon.ss02.tf" 
d="M271.5 375.5q-17.5 17.5 -17.5 43.5q0 27 17.5 44.5t43.5 17.5q27 0 44.5 -17.5t17.5 -44.5q0 -26 -17.5 -43.5t-44.5 -17.5q-26 0 -43.5 17.5zM244 -91q24 17 40.5 42t18.5 50q-51 16 -51 60q0 25 17 42t44 17t44.5 -19t17.5 -48q0 -47 -32 -89t-84 -75z" />
    <glyph glyph-name="braceleft.case" horiz-adv-x="291" 
d="M136.5 28q-26.5 28 -26.5 75v127q0 46 -18 65t-61 19v72q43 0 61 19t18 65v127q0 47 26.5 75t69.5 28h60v-73h-29q-25 0 -36 -11t-11 -37v-132q0 -46 -17 -67t-50 -30q33 -9 50 -30t17 -67v-132q0 -26 11 -37t36 -11h29v-73h-60q-43 0 -69.5 28z" />
    <glyph glyph-name="braceright.case" horiz-adv-x="291" 
d="M154.5 28q26.5 28 26.5 75v127q0 46 18 65t61 19v72q-43 0 -61 19t-18 65v127q0 47 -26.5 75t-69.5 28h-60v-73h29q25 0 36 -11t11 -37v-132q0 -46 17 -67t50 -30q-33 -9 -50 -30t-17 -67v-132q0 -26 -11 -37t-36 -11h-29v-73h60q43 0 69.5 28z" />
    <glyph glyph-name="bracketleft.case" horiz-adv-x="307" 
d="M87 700h195v-73h-116v-554h116v-73h-195v700z" />
    <glyph glyph-name="bracketright.case" horiz-adv-x="306" 
d="M220 700h-195v-73h116v-554h-116v-73h195v700z" />
    <glyph glyph-name="parenleft.case" horiz-adv-x="251" 
d="M77 162.5q-27 83.5 -27 187.5t27 187.5t73 162.5h80q-45 -79 -69.5 -164t-24.5 -186q0 -102 24.5 -187t69.5 -163h-80q-46 79 -73 162.5z" />
    <glyph glyph-name="parenright.case" horiz-adv-x="251" 
d="M174 162.5q27 83.5 27 187.5t-27 187.5t-73 162.5h-80q45 -79 69.5 -164t24.5 -186q0 -102 -24.5 -187t-69.5 -163h80q46 79 73 162.5z" />
    <glyph glyph-name="emdash.case" horiz-adv-x="759" 
d="M68 386h623v-72h-623v72z" />
    <glyph glyph-name="endash.case" horiz-adv-x="560" 
d="M68 386h424v-72h-424v72z" />
    <glyph glyph-name="hyphen.case" horiz-adv-x="480" 
d="M68 386h344v-72h-344v72z" />
    <glyph glyph-name="uni00AD.case" horiz-adv-x="480" 
d="M68 386h344v-72h-344v72z" />
    <glyph glyph-name="guillemotleft.case" horiz-adv-x="636" 
d="M48 323v55l278 202v-88l-194 -142l194 -142v-88zM301 323v55l278 202v-88l-193 -142l193 -142v-88z" />
    <glyph glyph-name="guillemotright.case" horiz-adv-x="636" 
d="M57 208l194 142l-194 142v88l278 -202v-55l-278 -203v88zM310 208l194 142l-194 142v88l278 -202v-55l-278 -203v88z" />
    <glyph glyph-name="guilsinglleft.case" horiz-adv-x="383" 
d="M48 323v55l278 202v-88l-194 -142l194 -142v-88z" />
    <glyph glyph-name="guilsinglright.case" horiz-adv-x="383" 
d="M57 208l194 142l-194 142v88l278 -202v-55l-278 -203v88z" />
    <glyph glyph-name="quotedblbase.ss02" horiz-adv-x="423" 
d="M51 -90q24 17 40.5 42t18.5 50q-51 16 -51 60q0 25 17 42t44 17t44.5 -19t17.5 -48q0 -47 -32 -89t-84 -75zM231 -90q24 17 40.5 42t18.5 50q-51 16 -51 60q0 25 17 42t44 17t44.5 -19t17.5 -48q0 -47 -32 -89t-84 -75z" />
    <glyph glyph-name="quotedblleft.ss02" horiz-adv-x="423" 
d="M372 678q-24 -17 -40.5 -42t-18.5 -50q51 -16 51 -60q0 -25 -17 -42t-44 -17t-44.5 19t-17.5 48q0 47 32 89t84 75zM192 678q-24 -17 -40.5 -42t-18.5 -50q51 -16 51 -60q0 -25 -17 -42t-44 -17t-44.5 19t-17.5 48q0 47 32 89t84 75z" />
    </font>
</defs>
</svg>
